SplineFontDB: 3.2
FontName: unaScript
FullName: Una Script
FamilyName: Una
Weight: Regular
Copyright: Lol, take it, see if I fucking care. - Una Ada
UComments: "2020-7-9: Created with FontForge (http://fontforge.org)"
Version: 2020.10.02
ItalicAngle: 0
UnderlinePosition: -100
UnderlineWidth: 50
Ascent: 500
Descent: 500
InvalidEm: 0
LayerCount: 2
Layer: 0 0 "Back" 1
Layer: 1 0 "Fore" 0
XUID: [1021 809 -1299049482 11933]
BaseHoriz: 1 'romn'
BaseScript: 'latn' 0  480
FSType: 0
OS2Version: 0
OS2_WeightWidthSlopeOnly: 0
OS2_UseTypoMetrics: 1
CreationTime: 1594321298
ModificationTime: 1601696770
PfmFamily: 65
TTFWeight: 400
TTFWidth: 5
LineGap: 90
VLineGap: 0
OS2TypoAscent: 500
OS2TypoAOffset: 0
OS2TypoDescent: -500
OS2TypoDOffset: 0
OS2TypoLinegap: 90
OS2WinAscent: 500
OS2WinAOffset: 0
OS2WinDescent: 500
OS2WinDOffset: 0
HheadAscent: 500
HheadAOffset: 0
HheadDescent: 500
HheadDOffset: 0
OS2CapHeight: 370
OS2XHeight: 250
OS2Vendor: 'PfEd'
Lookup: 260 0 0 "'abvm' Above Base Mark in Latin lookup 1" { "'abvm' Above Base Mark in Latin lookup 1-1"  } ['abvm' ('DFLT' <'dflt' > 'latn' <'dflt' > ) ]
Lookup: 258 0 0 "'kern' Horizontal Kerning in Latin lookup 0" { "'kern' Horizontal Kerning in Latin lookup 0-1" [150,15,4] } ['kern' ('DFLT' <'dflt' > 'latn' <'dflt' > ) ]
MarkAttachClasses: 1
DEI: 91125
KernClass2: 10 10 "'kern' Horizontal Kerning in Latin lookup 0-1"
 6 zero O
 18 seven F P Y Yacute
 38 A Agrave Aacute Atilde Adieresis Aring
 1 T
 137 a c e m n o r s u v w agrave aacute atilde adieresis aring egrave eacute edieresis ograve oacute otilde odieresis ugrave uacute udieresis
 1 q
 24 g j y z yacute ydieresis
 19 b d f h i k l p t x
 7 section
 23 comma period underscore
 47 quotedbl quotesingle asterisk asciicircum grave
 11 V backslash
 179 a c e o r u v w agrave aacute acircumflex atilde adieresis aring egrave eacute ecircumflex edieresis ograve oacute ocircumflex otilde odieresis ugrave uacute ucircumflex udieresis
 31 b h i k igrave iacute idieresis
 1 j

StartChar: exclam
Encoding: 33 33 0
Width: 191
VWidth: 720
Flags: W
HStem: -44 103<97.4375 159.625>
VStem: 55 90<116.961 292.518> 82 99<-30.6648 46.6902>
LayerCount: 2
Fore
SplineSet
100 110 m 0xc0
 77 110 57 128 55 152 c 0
 50 232 35 304 13 356 c 0
 11 361 10 367 10 372 c 0
 10 390 20 407 38 414 c 0
 44 417 50 418 56 418 c 0
 73 418 90 407 97 390 c 0
 122 329 139 249 145 158 c 0
 145 157 145 156 145 155 c 0
 145 132 127 112 103 110 c 0
 102 110 101 110 100 110 c 0xc0
136 -44 m 0
 121 -44 106 -37 98 -23 c 2
 89 -10 l 2
 85 -2 82 6 82 14 c 0
 82 29 90 43 104 52 c 0
 111 57 120 59 128 59 c 0
 143 59 158 52 166 38 c 2
 174 24 l 2
 179 17 181 8 181 0 c 0xa0
 181 -15 174 -30 160 -38 c 0
 152 -42 144 -44 136 -44 c 0
EndSplineSet
Validated: 1
EndChar

StartChar: quotedbl
Encoding: 34 34 1
Width: 245
VWidth: 720
Flags: W
HStem: 210 208<42.6907 92.3504>
VStem: 36 90<216.908 351.851> 116 119<270 371>
LayerCount: 2
Fore
SplineSet
81 210 m 0xc0
 58 210 38 228 36 251 c 0
 35 269 27 306 12 360 c 0
 11 364 10 368 10 373 c 0
 10 392 23 410 42 416 c 0
 46 417 50 418 55 418 c 0
 74 418 92 405 98 385 c 0
 113 333 123 287 126 258 c 0
 126 257 126 256 126 255 c 0
 126 232 108 212 85 210 c 0
 83 210 82 210 81 210 c 0xc0
190 225 m 0
 170 225 152 238 147 259 c 0
 145 264 144 270 142 277 c 0
 137 300 127 337 120 353 c 0
 117 359 116 365 116 371 c 0
 116 389 126 405 143 412 c 0
 149 415 156 416 162 416 c 0
 179 416 195 407 202 390 c 0
 212 369 220 336 230 298 c 0
 231 292 233 286 234 281 c 0
 235 277 235 274 235 270 c 0xa0
 235 250 221 231 201 226 c 0
 198 225 194 225 190 225 c 0
EndSplineSet
Validated: 1
EndChar

StartChar: numbersign
Encoding: 35 35 2
Width: 421
VWidth: 720
Flags: W
HStem: 1 21G<63 75> 109 90<290.908 384.777> 230 90<17.2754 79> 253 90<306.844 403.388>
VStem: 22 84<7.85062 72.037> 106 89<348 400.158> 163 88<-17.4609 93.0163> 216 90<337 390.87>
LayerCount: 2
Fore
SplineSet
371 253 m 0xd5
 346 251 322 248 298 246 c 1
 296 228 293 210 290 192 c 1
 306 194 323 196 341 198 c 0
 343 198 346 199 348 199 c 0
 376 199 391 176 391 153 c 0
 391 133 380 114 354 109 c 0
 325 105 298 102 273 99 c 1
 266 71 259 40 251 9 c 0
 246 -14 228 -24 209 -24 c 0
 187 -24 163 -8 163 20 c 0
 163 24 163 27 164 31 c 0
 169 53 175 73 179 94 c 1
 178 94 177 94 175 94 c 0
 162 94 148 95 136 96 c 1
 124 58 114 38 106 23 c 0
 98 9 83 1 67 1 c 0
 59 1 52 3 45 7 c 0
 30 15 22 30 22 46 c 0
 22 53 24 61 28 68 c 0
 33 77 39 90 45 108 c 1
 25 115 16 132 16 149 c 0
 16 172 32 195 60 195 c 0
 63 195 66 195 69 194 c 0
 69 194 69 194 70 194 c 0
 73 206 76 218 79 231 c 1
 71 231 64 230 57 230 c 0
 56 230 55 230 55 230 c 2
 26 230 11 253 11 275 c 0
 11 297 25 319 53 320 c 0xea
 68 321 83 321 99 322 c 1
 101 333 104 345 106 357 c 0
 111 395 132 408 151 408 c 0
 173 408 195 395 195 353 c 0
 195 352 195 350 195 348 c 0
 195 345 195 342 194 339 c 0
 193 335 192 331 192 328 c 1
 200 328 208 329 216 329 c 0
 216 332 216 334 216 336 c 0
 219 380 242 403 264 403 c 0
 285 403 306 393 306 337 c 1
 324 339 342 341 361 343 c 0
 363 343 365 343 366 343 c 0
 395 343 409 321 409 298 c 0
 409 277 397 256 371 253 c 0xd5
198 185 m 1
 201 203 204 221 206 239 c 1
 195 238 183 237 172 236 c 1
 168 217 164 200 160 185 c 1
 166 184 172 184 179 184 c 0
 185 184 192 184 198 185 c 1
EndSplineSet
Validated: 1
EndChar

StartChar: dollar
Encoding: 36 36 3
Width: 371
VWidth: 720
Flags: W
HStem: -3 92<41.251 180.382>
VStem: 87 117<396.047 450.953> 172 87<-94.8258 -4.71187> 182 91<-56.7188 -3> 271 90<98.8712 141.469>
LayerCount: 2
Fore
SplineSet
344 56 m 0xc8
 329 36 304 21 270 11 c 1
 272 11 l 1
 272 9 273 4 273 -4 c 0x90
 273 -19 271 -46 259 -74 c 0
 252 -91 235 -102 217 -102 c 0
 211 -102 206 -100 200 -98 c 0
 183 -91 172 -74 172 -57 c 0xa0
 172 -51 173 -45 176 -39 c 0
 181 -27 182 -16 182 -11 c 0
 182 -9 182 -5 182 -3 c 1x90
 181 -3 180 -3 179 -3 c 0
 167 -3 155 -3 145 -3 c 0
 105 -3 78 -1 73 0 c 0
 50 3 33 22 33 45 c 0
 33 46 33 48 33 49 c 0
 36 72 55 89 77 89 c 0
 78 89 80 89 82 89 c 0
 83 89 112 86 148 86 c 0
 158 86 167 87 177 87 c 0
 250 91 268 106 271 109 c 0
 271 111 271 113 269 117 c 0
 253 157 200 165 133 171 c 0
 108 174 85 176 66 182 c 0
 15 198 10 234 10 250 c 0
 10 268 16 294 44 321 c 0
 58 334 76 347 99 358 c 0
 107 362 116 366 124 369 c 1
 122 372 120 374 118 377 c 2
 92 430 l 2
 89 436 87 443 87 450 c 0
 87 466 96 482 112 490 c 0
 119 493 126 495 133 495 c 0
 149 495 165 486 173 470 c 2
 199 417 l 2
 202 411 204 405 204 398 c 0
 204 393 203 388 201 383 c 1
 213 377 222 367 226 354 c 0
 227 350 227 346 227 343 c 0
 227 323 214 304 194 298 c 0
 194 298 169 292 143 279 c 0
 131 274 122 268 116 264 c 1
 125 263 134 262 142 261 c 0
 175 258 216 254 253 241 c 0
 302 223 335 193 352 151 c 0
 359 135 361 121 361 109 c 0
 361 84 351 66 344 56 c 0xc8
EndSplineSet
Validated: 1
EndChar

StartChar: percent
Encoding: 37 37 4
Width: 625
VWidth: 720
Flags: W
HStem: -45 90<421.311 515.073> 96 92<470.8 524.74> 330 90<268.984 329> 370 90<114.285 181.673>
VStem: 331 89<49.5139 100.234>
LayerCount: 2
Fore
SplineSet
197 0 m 0xe8
 189 0 181 2 174 6 c 0
 159 15 151 30 151 45 c 0
 151 53 154 61 158 68 c 0
 227 181 283 267 329 330 c 1xe8
 309 330 289 333 268 336 c 1
 259 305 244 276 222 253 c 0
 195 223 162 207 131 207 c 0
 128 207 125 207 123 207 c 0
 119 207 115 208 112 209 c 0
 76 221 52 237 36 258 c 0
 16 283 12 312 10 335 c 0
 10 338 10 341 10 344 c 0
 16 385 33 416 60 436 c 0
 83 452 110 460 144 460 c 0xd8
 157 460 170 459 184 457 c 0
 187 456 191 455 195 454 c 0
 245 431 295 420 339 420 c 0
 369 420 398 425 423 436 c 0
 429 438 434 439 440 439 c 0
 455 439 469 432 478 420 c 0
 483 412 485 404 485 395 c 0
 485 384 481 372 472 363 c 0
 421 312 344 200 235 21 c 0
 227 7 212 0 197 0 c 0xe8
100 336 m 0
 102 321 105 316 107 313 c 0
 111 308 120 302 133 297 c 0
 138 299 147 304 157 315 c 0
 164 323 176 338 182 361 c 1
 175 364 169 367 164 369 c 0
 157 370 150 370 144 370 c 0xd8
 131 370 120 368 114 363 c 0
 107 359 103 349 100 336 c 0
459 -45 m 0
 451 -45 446 -44 443 -43 c 0
 442 -43 440 -42 437 -42 c 0
 422 -39 397 -34 374 -17 c 0
 354 -3 331 26 331 75 c 0
 331 77 331 79 331 81 c 0
 332 107 341 132 358 151 c 0
 371 165 387 176 408 184 c 0
 438 197 467 198 470 198 c 1
 471 183 l 1
 479 187 488 188 498 188 c 0
 518 188 539 181 560 167 c 0
 588 148 616 114 616 76 c 0
 616 71 615 65 614 60 c 0
 610 40 598 12 558 -13 c 0
 541 -23 520 -32 500 -38 c 0
 481 -44 468 -45 459 -45 c 0
468 43 m 1
 468 43 l 1
459 45 m 1
 459 45 l 1
458 106 m 1
 452 105 446 103 440 100 c 0
 421 92 421 83 420 77 c 0
 420 58 423 53 455 46 c 0
 457 46 460 45 462 45 c 0
 468 46 482 50 498 57 c 0
 515 65 522 72 525 76 c 0
 524 78 520 83 514 88 c 0
 509 93 503 96 499 98 c 0
 495 96 490 96 485 96 c 0
 475 96 465 99 458 106 c 1
EndSplineSet
Validated: 1
EndChar

StartChar: ampersand
Encoding: 38 38 5
Width: 343
VWidth: 720
Flags: W
HStem: -146 236<157.401 227.219> 37 87<246.587 327.113> 152 90<150.063 227> 260 21G<198.5 210.5> 454 20G<173.5 198.5>
VStem: 44 89<90.5541 125.674> 143 90<-100.766 0.813225 429 465.739>
LayerCount: 2
Fore
SplineSet
306 37 m 0x7e
 276 25 250 16 228 10 c 1
 232 3 234 -6 234 -16 c 0
 234 -22 233 -29 233 -37 c 0
 233 -55 235 -76 238 -86 c 0
 240 -91 241 -96 241 -101 c 0
 241 -119 229 -137 211 -143 c 0
 206 -145 201 -146 196 -146 c 0
 177 -146 160 -134 153 -116 c 0
 145 -93 143 -61 143 -38 c 0
 143 -25 144 -14 144 -10 c 0
 144 -6 145 -3 146 1 c 1
 131 2 118 5 106 11 c 0
 78 25 58 50 47 85 c 0
 47 86 46 88 46 89 c 0
 44 96 44 104 44 111 c 0
 44 132 50 153 63 171 c 0
 69 179 75 186 83 192 c 1
 52 206 29 222 18 245 c 0
 12 256 10 267 10 278 c 0
 10 287 11 296 15 305 c 0
 17 309 19 312 21 315 c 0
 36 336 58 352 85 365 c 0
 102 373 119 378 137 379 c 1
 141 403 141 429 141 429 c 0
 141 454 161 474 186 474 c 2
 211 474 231 453 231 429 c 0
 231 427 231 389 224 355 c 1
 234 347 241 336 247 324 c 0
 250 318 251 311 251 305 c 0
 251 288 242 272 226 264 c 0
 220 261 214 260 207 260 c 0
 190 260 172 268 166 285 c 0
 165 288 159 289 155 290 c 0
 154 290 153 290 152 290 c 0
 139 290 124 285 112 278 c 1
 118 275 126 271 138 267 c 0
 164 258 196 250 227 242 c 2
 230 241 l 2
 250 234 263 218 263 198 c 0
 263 197 263 195 263 194 c 0
 262 173 245 155 224 152 c 0
 159 144 141 125 137 119 c 0
 134 115 133 112 133 109 c 0
 133 95 143 94 145 93 c 0
 148 92 153 90 162 90 c 0xbe
 167 90 173 91 181 92 c 0
 204 96 234 105 272 121 c 0
 277 123 283 124 288 124 c 0
 306 124 323 113 331 95 c 0
 333 90 334 84 334 78 c 0
 334 61 324 44 306 37 c 0x7e
EndSplineSet
Validated: 1
EndChar

StartChar: quotesingle
Encoding: 39 39 6
Width: 147
VWidth: 720
Flags: W
HStem: 224 193<54.7703 93.8986>
VStem: 10 88<324.848 410.899>
LayerCount: 2
Fore
SplineSet
93 224 m 0
 77 224 62 232 54 247 c 0
 48 257 34 294 12 358 c 0
 10 363 10 367 10 372 c 0
 10 391 22 409 40 415 c 0
 45 417 50 417 55 417 c 0
 74 417 92 405 98 387 c 0
 111 347 128 299 133 290 c 0
 136 284 138 277 138 270 c 0
 138 254 130 238 115 230 c 0
 108 226 100 224 93 224 c 0
132 291 m 1
 132 291 132 291 132 290 c 1
 132 291 132 291 132 291 c 1
EndSplineSet
Validated: 1
EndChar

StartChar: parenleft
Encoding: 40 40 7
Width: 222
VWidth: 720
Flags: W
HStem: 289 87<148.09 206.354>
VStem: 10 90<51.3778 228.384>
LayerCount: 2
Fore
SplineSet
165 -85 m 0
 157 -85 150 -83 142 -78 c 0
 107 -58 71 -34 45 4 c 0
 22 38 10 80 10 131 c 0
 10 140 10 150 11 159 c 0
 11 160 11 161 11 162 c 0
 21 235 47 337 153 374 c 0
 158 376 163 376 168 376 c 0
 186 376 204 365 210 346 c 0
 212 341 212 336 212 331 c 0
 212 313 201 295 183 289 c 0
 137 273 112 231 101 151 c 1
 101 144 100 137 100 131 c 0
 100 55 133 31 188 -1 c 0
 203 -10 211 -24 211 -40 c 0
 211 -47 208 -56 204 -63 c 0
 196 -77 181 -85 165 -85 c 0
EndSplineSet
Validated: 1
EndChar

StartChar: parenright
Encoding: 41 41 8
Width: 245
VWidth: 720
Flags: W
HStem: 288 87<16.839 79.5165>
VStem: 146 90<36.5557 214.333>
LayerCount: 2
Fore
SplineSet
121 -97 m 0
 111 -97 101 -94 92 -87 c 0
 81 -78 76 -65 76 -52 c 0
 76 -42 79 -31 86 -23 c 0
 125 24 146 76 146 130 c 0
 146 139 145 149 144 158 c 0
 133 223 101 264 39 288 c 0
 21 295 10 312 10 330 c 0
 10 335 11 341 13 346 c 0
 20 364 37 375 55 375 c 0
 60 375 66 374 71 372 c 0
 163 336 218 268 233 171 c 0
 233 171 233 170 233 169 c 0
 235 155 236 141 236 128 c 0
 236 91 229 56 216 21 c 0
 203 -14 182 -49 156 -81 c 0
 147 -91 134 -97 121 -97 c 0
EndSplineSet
Validated: 1
EndChar

StartChar: asterisk
Encoding: 42 42 9
Width: 319
VWidth: 720
Flags: W
HStem: 274 222<82.4241 152.12 205.144 271.54>
VStem: 10 300<353.37 408.648>
LayerCount: 2
Fore
SplineSet
310 389 m 0
 309 370 295 354 278 348 c 1
 278 348 278 347 279 347 c 0
 285 339 289 329 289 319 c 0
 289 306 283 293 272 284 c 0
 264 277 254 274 244 274 c 0
 230 274 217 280 209 291 c 0
 200 302 190 313 179 325 c 1
 146 289 l 2
 137 279 125 274 113 274 c 0
 102 274 91 278 83 286 c 0
 73 295 68 307 68 319 c 0
 68 322 68 324 69 327 c 1
 67 327 66 327 66 327 c 0
 62 326 59 325 55 325 c 0
 35 325 16 339 11 360 c 0
 10 364 10 367 10 371 c 0
 10 391 24 409 44 414 c 0
 46 415 60 418 82 422 c 1
 74 430 70 442 70 452 c 0
 70 464 74 474 82 483 c 0
 91 493 103 498 115 498 c 0
 126 498 137 494 145 486 c 0
 147 485 159 473 177 456 c 1
 200 481 l 2
 208 491 221 496 233 496 c 0
 244 496 254 492 263 484 c 0
 273 476 278 463 278 451 c 0
 278 445 277 440 275 435 c 1
 295 430 310 412 310 391 c 0
 310 390 310 390 310 389 c 0
EndSplineSet
Validated: 1
EndChar

StartChar: plus
Encoding: 43 43 10
Width: 365
VWidth: 720
Flags: W
HStem: 150 89<16.6554 118.271> 196 90<214.966 349.519>
VStem: 120 90<115.5 164 273 368.703> 123 90<63.3474 164 273 316>
LayerCount: 2
Fore
SplineSet
356 241 m 0x60
 356 216 336 196 311 196 c 0
 311 196 311 196 310 196 c 2
 309 196 l 2x60
 293 196 255 191 213 183 c 1
 216 102 l 2
 216 77 197 56 172 56 c 0
 172 55 171 55 171 55 c 0
 146 55 126 75 126 99 c 2
 123 164 l 1
 102 160 82 155 65 151 c 0
 62 150 58 150 55 150 c 0
 35 150 16 164 11 185 c 0
 10 188 10 191 10 194 c 0
 10 215 24 234 45 239 c 0x90
 53 241 83 248 120 256 c 1
 118 331 l 2
 118 332 118 332 118 333 c 0
 118 356 138 376 161 377 c 0
 162 377 162 377 163 377 c 0
 187 377 207 357 208 334 c 2
 210 273 l 1
 250 281 288 286 310 286 c 0
 311 286 311 286 312 286 c 0
 336 286 356 266 356 241 c 0x60
EndSplineSet
Validated: 1
EndChar

StartChar: comma
Encoding: 44 44 11
Width: 126
VWidth: 720
Flags: W
HStem: -86 182<28.0195 93.7527>
VStem: 26 90<-51.6754 85.3047>
LayerCount: 2
Fore
SplineSet
55 -86 m 0
 45 -86 35 -83 27 -76 c 0
 16 -67 10 -54 10 -41 c 0
 10 -31 13 -21 20 -13 c 0
 25 -7 26 3 26 12 c 0
 26 23 25 32 23 37 c 0
 22 41 21 46 21 50 c 0
 21 70 33 87 53 94 c 0
 57 95 61 96 66 96 c 0
 85 96 103 83 109 64 c 0
 111 60 116 40 116 14 c 0
 116 -12 111 -43 90 -69 c 0
 81 -80 68 -86 55 -86 c 0
EndSplineSet
Validated: 1
EndChar

StartChar: hyphen
Encoding: 45 45 12
Width: 272
VWidth: 720
Flags: W
HStem: 178 90<17.2246 239.248> 194 90<32.0671 255.309>
VStem: 10 252<200.325 261.738>
LayerCount: 2
Fore
SplineSet
73 178 m 4xa0
 67 178 60 178 52 178 c 4
 29 180 10 200 10 224 c 4
 10 225 10 225 10 226 c 4
 11 250 31 268 54 268 c 4
 56 268 57 268 58 268 c 4
 63 268 68 268 74 268 c 4xa0
 102 268 131 272 161 277 c 4
 178 279 195 282 213 284 c 4
 214 284 216 284 217 284 c 4
 240 284 260 267 262 244 c 4
 262 242 262 240 262 239 c 4
 262 216 245 197 223 194 c 4x60
 207 192 190 190 175 188 c 4
 143 183 109 178 73 178 c 4xa0
EndSplineSet
Validated: 1
EndChar

StartChar: period
Encoding: 46 46 13
Width: 116
VWidth: 720
Flags: W
HStem: -20 109<20.8301 77.718>
VStem: 10 97<8.28125 63.8074>
LayerCount: 2
Fore
SplineSet
62 -20 m 0
 56 -20 50 -18 44 -16 c 0
 29 -10 18 2 13 16 c 0
 11 23 10 29 10 35 c 0
 10 49 15 60 17 64 c 0
 25 80 41 89 58 89 c 0
 65 89 72 87 78 84 c 0
 93 76 101 61 102 45 c 1
 105 39 107 33 107 26 c 0
 107 20 105 14 103 8 c 0
 96 -9 79 -20 62 -20 c 0
EndSplineSet
Validated: 1
EndChar

StartChar: slash
Encoding: 47 47 14
Width: 219
VWidth: 720
Flags: W
VStem: 10 86<6.81129 74.748> 121 88<279.272 367.981>
LayerCount: 2
Fore
SplineSet
55 0 m 0
 49 0 43 1 37 4 c 0
 21 11 10 27 10 45 c 0
 10 51 11 57 14 63 c 0
 73 201 111 308 121 343 c 0
 127 363 144 375 164 375 c 0
 168 375 173 374 177 373 c 0
 196 367 209 349 209 330 c 0
 209 325 208 321 207 317 c 0
 194 272 150 154 96 28 c 0
 89 10 72 0 55 0 c 0
EndSplineSet
Validated: 1
EndChar

StartChar: zero
Encoding: 48 48 15
Width: 373
VWidth: 720
Flags: W
HStem: -7 89<116.449 210.441> 263 113<145.667 222.065> 263 90<194.343 258.998>
VStem: 11 89<101.065 214.311> 273 91<142.325 249.085>
LayerCount: 2
Fore
SplineSet
36 62 m 0xb8
 18 93 11 124 11 152 c 0
 11 204 34 249 58 283 c 0
 70 299 134 376 184 376 c 0xd8
 199 376 213 370 223 353 c 1
 245 352 266 346 285 335 c 0
 310 321 330 299 344 272 c 0
 358 246 364 220 364 196 c 0
 364 143 335 94 293 54 c 0
 252 16 201 -7 153 -7 c 0
 107 -7 64 13 36 62 c 0xb8
140 242 m 1
 137 239 135 235 132 231 c 0
 110 199 100 170 100 160 c 0
 100 146 104 124 114 106 c 0
 126 85 139 82 151 82 c 0
 176 83 207 97 232 120 c 0
 256 142 273 173 273 202 c 0
 273 223 264 243 241 257 c 0
 234 261 227 263 218 263 c 0
 205 263 191 258 175 248 c 0
 167 243 159 241 151 241 c 0
 147 241 144 241 140 242 c 1
EndSplineSet
Validated: 1
EndChar

StartChar: one
Encoding: 49 49 16
Width: 225
VWidth: 720
Flags: W
VStem: 119 90<10.2773 242>
LayerCount: 2
Fore
SplineSet
165 3 m 0
 141 3 121 22 120 46 c 0
 120 58 119 71 119 83 c 0
 119 122 121 161 123 196 c 0
 124 211 125 227 125 242 c 1
 110 233 93 224 74 215 c 0
 68 212 62 211 56 211 c 0
 39 211 22 221 14 237 c 0
 11 243 10 250 10 256 c 0
 10 273 19 289 36 297 c 0
 85 320 119 341 135 360 c 0
 144 370 157 375 170 375 c 0
 174 375 179 374 183 373 c 0
 200 367 212 352 214 334 c 0
 216 317 216 299 216 280 c 0
 216 252 215 222 213 191 c 0
 211 156 209 120 209 83 c 0
 209 72 210 60 210 49 c 0
 210 48 210 48 210 47 c 0
 210 23 190 3 167 3 c 0
 166 3 166 3 165 3 c 0
EndSplineSet
Validated: 1
EndChar

StartChar: two
Encoding: 50 50 17
Width: 327
VWidth: 720
Flags: W
HStem: 10 91<145 305.625> 266 90<18.4015 143.864>
VStem: 10 307
LayerCount: 2
Fore
SplineSet
179 10 m 0
 163 10 149 11 137 12 c 0
 117 15 102 18 90 24 c 0
 68 35 59 50 55 61 c 0
 51 70 49 79 49 90 c 0
 49 98 50 106 53 115 c 0
 57 128 64 142 74 160 c 0
 91 188 116 223 143 260 c 0
 144 262 145 263 146 264 c 1
 132 265 118 266 105 266 c 0
 85 266 68 265 58 264 c 0
 57 264 57 264 56 264 c 0
 32 264 11 283 10 307 c 0
 10 308 10 308 10 309 c 0
 10 332 29 353 52 354 c 0
 72 355 90 356 107 356 c 0
 167 356 209 349 240 333 c 0
 252 328 261 317 265 304 c 0
 266 301 266 297 266 293 c 0
 266 284 264 275 258 267 c 0
 244 247 230 227 216 208 c 0
 195 179 175 151 161 128 c 0
 154 117 149 108 145 102 c 1
 152 101 163 101 177 101 c 0
 198 101 227 102 268 106 c 0
 269 106 270 106 272 106 c 0
 294 106 314 89 317 65 c 0
 317 64 317 63 317 61 c 0
 317 39 300 19 277 16 c 0
 238 12 206 10 179 10 c 0
EndSplineSet
Validated: 1
EndChar

StartChar: three
Encoding: 51 51 18
Width: 373
VWidth: 720
Flags: W
HStem: 22 90<81.6894 268.412> 292 90<46.376 184.268>
LayerCount: 2
Fore
SplineSet
210 22 m 0
 182 22 150 24 113 27 c 0
 89 29 72 49 72 72 c 0
 72 73 72 75 72 76 c 0
 74 100 94 117 117 117 c 0
 118 117 120 117 121 117 c 0
 157 113 187 112 212 112 c 0
 220 112 226 112 233 112 c 0
 252 113 264 115 271 117 c 1
 267 133 251 165 165 175 c 0
 146 178 131 192 126 210 c 0
 125 213 125 217 125 220 c 0
 125 235 133 250 146 258 c 0
 167 272 179 283 185 291 c 1
 180 292 174 292 167 292 c 0
 143 292 111 287 67 275 c 0
 63 274 59 273 55 273 c 0
 36 273 18 286 12 306 c 0
 11 310 10 314 10 319 c 0
 10 338 23 356 43 362 c 0
 80 373 126 382 168 382 c 0
 202 382 234 376 259 360 c 0
 269 354 277 343 279 331 c 0
 280 324 281 316 281 309 c 0
 281 286 274 264 261 244 c 1
 278 237 292 229 305 219 c 0
 335 196 353 166 360 130 c 0
 362 122 363 114 363 106 c 0
 363 91 358 76 349 63 c 0
 327 35 285 22 210 22 c 0
EndSplineSet
Validated: 1
EndChar

StartChar: four
Encoding: 52 52 19
Width: 305
VWidth: 720
Flags: W
HStem: 135 90<100.554 200.036>
VStem: 10 103<227.891 373.347> 24 89<227.891 386.541> 203 90<30.9629 146 233.755 396.551>
LayerCount: 2
Fore
SplineSet
252 23 m 0xd0
 251 23 l 0
 226 23 206 42 206 66 c 2
 205 83 l 2
 205 104 204 125 203 146 c 1
 176 138 151 135 127 135 c 0
 97 135 69 140 40 151 c 0
 24 157 13 172 11 189 c 0
 10 199 10 209 10 218 c 0xd0
 10 246 13 271 17 299 c 0
 20 316 22 334 24 352 c 0xb0
 26 376 46 393 68 393 c 0
 70 393 71 393 72 393 c 0
 95 391 113 372 113 349 c 0
 113 347 113 346 113 344 c 0
 112 324 109 305 107 287 c 0
 104 265 101 246 100 227 c 1
 108 225 117 225 126 225 c 0
 147 225 171 229 201 240 c 1
 201 281 202 322 203 361 c 0
 205 385 225 404 249 404 c 0
 250 404 250 404 251 404 c 0
 274 403 293 384 293 360 c 0
 293 359 293 358 293 357 c 0
 292 328 291 297 291 266 c 0
 291 207 293 146 295 86 c 2
 296 69 l 2
 296 44 277 23 252 23 c 0xd0
EndSplineSet
Validated: 1
EndChar

StartChar: five
Encoding: 53 53 20
Width: 351
VWidth: 720
Flags: W
HStem: 0 90<121.951 244.268> 308 88<194.263 335.329>
VStem: 23 98<93.6319 133.294>
LayerCount: 2
Fore
SplineSet
338 134 m 0
 338 130 338 126 338 122 c 0
 338 76 318 49 301 33 c 0
 275 11 238 0 190 0 c 0
 154 0 112 6 64 18 c 0
 55 20 46 25 40 32 c 0
 28 46 23 63 23 81 c 0
 23 100 29 119 43 134 c 0
 52 144 64 148 77 148 c 0
 88 148 99 145 107 137 c 0
 116 128 121 115 121 103 c 0
 121 101 121 99 121 97 c 1
 150 92 173 90 190 90 c 0
 226 90 239 98 242 101 c 0
 244 103 249 107 248 122 c 0
 246 126 235 137 203 149 c 0
 167 163 115 173 50 180 c 0
 37 181 25 189 17 200 c 0
 12 207 10 216 10 224 c 0
 10 229 11 234 12 238 c 0
 16 251 23 265 32 279 c 1
 21 287 13 299 11 314 c 0
 11 315 11 316 11 318 c 0
 11 341 29 360 53 362 c 0
 133 368 210 376 285 395 c 0
 289 396 293 396 296 396 c 0
 316 396 335 383 340 363 c 0
 341 359 341 355 341 352 c 0
 341 332 328 313 308 308 c 0
 256 295 205 287 153 281 c 1
 144 273 137 266 131 260 c 1
 172 253 206 244 235 233 c 0
 261 224 282 213 298 200 c 0
 319 183 332 162 337 140 c 0
 337 138 338 136 338 134 c 0
EndSplineSet
Validated: 1
EndChar

StartChar: six
Encoding: 54 54 21
Width: 342
VWidth: 720
Flags: W
HStem: -43 88<173.501 225.877> 121 90<196.824 242.762> 287 86<141.893 196.096>
VStem: 12 88<126.066 242.736> 243 90<62.2576 120.465>
LayerCount: 2
Fore
SplineSet
61 11 m 0
 30 47 12 106 12 165 c 0
 12 210 22 255 45 290 c 0
 67 326 100 353 140 370 c 0
 146 372 152 373 157 373 c 0
 175 373 191 363 199 346 c 0
 201 340 202 334 202 329 c 0
 202 311 192 294 175 287 c 4
 128 267 101 223 100 167 c 4
 101 152 102 138 105 125 c 1
 113 140 124 154 136 166 c 0
 162 191 199 211 236 211 c 0
 256 211 275 206 292 193 c 0
 316 177 333 149 333 109 c 0
 333 75 319 39 296 11 c 0
 266 -25 223 -43 180 -43 c 0
 136 -43 92 -25 61 11 c 0
173 46 m 1
 177 45 182 45 187 45 c 0
 206 46 220 60 226 67 c 0
 233 75 243 97 243 111 c 0
 243 117 240 121 234 121 c 0
 231 121 226 120 219 116 c 0
 199 106 178 83 174 53 c 0
 174 51 173 48 173 46 c 1
EndSplineSet
Validated: 1
EndChar

StartChar: seven
Encoding: 55 55 22
Width: 361
VWidth: 720
Flags: W
HStem: 129 90<303 345.092> 304 90<105.851 232.429>
VStem: 10 96<254.063 298.724> 123 86<3.01767 65.4195>
LayerCount: 2
Fore
SplineSet
311 129 m 0
 293 128 275 125 258 122 c 1
 243 91 227 57 209 21 c 0
 201 5 185 -4 168 -4 c 0
 162 -4 155 -2 148 1 c 0
 132 9 123 25 123 41 c 0
 123 48 125 55 128 61 c 0
 133 71 138 81 143 90 c 1
 126 90 110 100 103 115 c 0
 100 122 98 129 98 136 c 0
 98 152 107 168 123 176 c 0
 143 186 168 194 194 201 c 1
 210 238 223 272 233 302 c 1
 221 303 209 304 196 304 c 0
 168 304 138 301 105 295 c 1
 105 293 106 290 106 288 c 0
 106 271 97 256 82 248 c 0
 75 245 68 243 61 243 c 0
 44 243 29 252 21 268 c 0
 13 282 10 296 10 310 c 0
 10 326 14 342 24 356 c 0
 30 366 40 373 52 376 c 0
 105 388 154 394 197 394 c 0
 236 394 271 389 303 380 c 0
 322 374 335 356 335 337 c 0
 335 333 335 330 334 326 c 0
 326 294 314 258 298 218 c 1
 300 218 302 219 303 219 c 0
 304 219 305 219 307 219 c 0
 330 219 350 201 352 178 c 0
 352 177 352 176 352 174 c 0
 352 151 334 131 311 129 c 0
EndSplineSet
Validated: 1
EndChar

StartChar: eight
Encoding: 56 56 23
Width: 342
VWidth: 720
Flags: W
HStem: -42 88<160.056 240.979> 249 90<172.234 229.033>
VStem: 243 90<51.1914 99.2802>
LayerCount: 2
Fore
SplineSet
84 -5 m 0
 72 10 67 26 67 42 c 0
 67 90 113 139 142 164 c 1
 125 175 100 188 79 201 c 0
 73 204 68 209 65 215 c 1
 61 214 58 214 54 214 c 0
 37 214 21 223 14 240 c 0
 11 246 10 252 10 258 c 0
 10 275 20 292 36 299 c 0
 89 324 132 336 172 338 c 0
 177 338 182 339 188 339 c 0
 241 339 326 311 326 246 c 0
 326 239 325 232 322 224 c 0
 319 210 311 195 300 181 c 0
 295 175 290 170 285 164 c 1
 316 134 333 101 333 69 c 0
 333 40 320 12 289 -12 c 0
 263 -32 225 -42 188 -42 c 0
 146 -42 105 -30 84 -5 c 0
159 51 m 1
 166 49 179 47 201 46 c 0
 223 47 242 62 243 74 c 0
 243 75 240 83 218 103 c 0
 216 105 214 107 212 109 c 0
 181 87 164 68 159 51 c 1
172 248 m 1
 187 238 201 229 214 221 c 1
 221 227 226 233 230 238 c 1
 220 244 206 249 187 249 c 0
 182 249 177 249 172 248 c 1
EndSplineSet
Validated: 1
EndChar

StartChar: nine
Encoding: 57 57 24
Width: 292
VWidth: 720
Flags: W
HStem: 111 90<100.645 189.879> 119 88<100 131.11> 257 90<106.005 179.762>
VStem: 10 90<204.541 248.797> 185 97<-4.28813 118 204.173 247.81> 185 89<-9.47551 116.725>
LayerCount: 2
Fore
SplineSet
230 -17 m 0x74
 228 -17 227 -17 226 -16 c 0
 202 -14 185 6 185 28 c 0
 185 30 185 31 185 32 c 0
 187 64 189 93 191 118 c 1
 169 114 150 111 132 111 c 0xb8
 113 111 95 114 79 119 c 0
 79 119 78 119 77 119 c 0
 42 132 26 155 19 172 c 0
 11 190 10 209 10 226 c 0
 10 256 26 287 53 310 c 0
 81 334 116 347 153 347 c 0
 154 347 155 347 156 347 c 0
 194 344 223 332 244 311 c 0
 263 292 271 270 276 251 c 0
 276 250 276 248 277 247 c 0
 281 228 282 204 282 173 c 0x78
 282 135 280 86 274 25 c 0
 272 1 253 -17 230 -17 c 0x74
106 205 m 0
 113 203 121 201 133 201 c 0xb0
 147 201 165 204 191 210 c 1
 190 217 189 223 188 229 c 0
 186 236 184 244 180 248 c 0
 175 252 165 256 151 257 c 0
 132 257 119 248 113 243 c 0
 104 235 100 227 100 224 c 0
 100 218 100 210 101 207 c 0x70
 102 207 103 206 106 205 c 0
EndSplineSet
Validated: 1
EndChar

StartChar: colon
Encoding: 58 58 25
Width: 154
VWidth: 720
Flags: W
HStem: -4 106<60.9729 117.719> 152 95<41.2656 85.7344>
VStem: 10 107<163.645 235.355>
LayerCount: 2
Fore
SplineSet
55 152 m 0
 36 152 18 164 12 183 c 0
 11 187 10 192 10 196 c 0
 10 216 22 233 41 240 c 2
 58 245 l 2
 63 247 68 247 72 247 c 0
 91 247 109 235 115 216 c 0
 116 212 117 207 117 203 c 0
 117 183 105 166 86 159 c 2
 69 154 l 2
 64 153 60 152 55 152 c 0
100 -4 m 0
 82 -4 66 6 58 23 c 2
 51 39 l 2
 48 45 47 50 47 56 c 0
 47 74 58 91 75 98 c 0
 81 101 86 102 92 102 c 0
 110 102 127 91 134 75 c 2
 141 59 l 2
 144 53 145 47 145 41 c 0
 145 24 134 7 118 0 c 0
 112 -3 106 -4 100 -4 c 0
EndSplineSet
Validated: 1
EndChar

StartChar: semicolon
Encoding: 59 59 26
Width: 159
VWidth: 720
Flags: W
HStem: 154 124<50.2147 110.671>
VStem: 33 106<171.924 227.623> 43 96<199.469 254.578> 60 90<-85.386 28.9936>
LayerCount: 2
Fore
SplineSet
78 154 m 0xc0
 59 154 41 166 35 185 c 0
 34 189 33 194 33 199 c 0xc0
 33 209 37 220 43 228 c 1xa0
 42 237 44 246 49 255 c 0
 58 270 73 278 88 278 c 0
 96 278 104 276 111 272 c 0
 129 261 139 242 139 221 c 0
 139 219 139 217 139 215 c 0
 136 188 116 164 92 156 c 0
 87 155 82 154 78 154 c 0xc0
66 194 m 1
 66 194 l 1
55 -183 m 0
 43 -183 31 -178 22 -169 c 0
 14 -160 10 -149 10 -138 c 0
 10 -126 15 -114 24 -105 c 0
 30 -100 40 -86 48 -63 c 0
 56 -44 60 -23 60 -10 c 0
 60 -9 60 -9 60 -8 c 0
 60 16 80 35 104 36 c 0
 104 36 104 36 105 36 c 0
 129 36 149 16 150 -8 c 0x90
 150 -42 139 -77 132 -95 c 0
 125 -114 110 -149 86 -171 c 0
 77 -179 66 -183 55 -183 c 0
EndSplineSet
Validated: 1
EndChar

StartChar: less
Encoding: 60 60 27
Width: 293
VWidth: 720
Flags: W
HStem: -5 88<215.909 276.904>
VStem: 10 273
LayerCount: 2
Fore
SplineSet
239 -5 m 0
 234 -5 229 -4 224 -2 c 0
 177 14 113 64 23 156 c 0
 14 165 10 176 10 187 c 0
 10 198 14 209 22 218 c 0
 71 272 115 311 170 348 c 0
 178 353 187 356 195 356 c 0
 209 356 223 349 232 337 c 0
 237 329 240 320 240 311 c 0
 240 297 233 283 221 274 c 0
 182 248 151 222 118 188 c 1
 199 110 237 88 254 83 c 0
 272 77 283 59 283 40 c 0
 283 35 283 30 281 25 c 0
 275 7 257 -5 239 -5 c 0
EndSplineSet
Validated: 1
EndChar

StartChar: equal
Encoding: 61 61 28
Width: 276
VWidth: 720
Flags: W
HStem: 65 90<23.7118 211.766> 212 89<16.8904 220.813> 215 93<55.1399 257.945>
VStem: 10 256<224.814 295.102>
LayerCount: 2
Fore
SplineSet
55 212 m 0xd0
 34 212 15 227 11 249 c 0
 10 252 10 255 10 258 c 0
 10 279 25 297 47 301 c 0xd0
 64 305 93 305 140 305 c 0
 164 305 201 306 210 307 c 0
 214 308 217 308 221 308 c 0
 240 308 258 295 264 276 c 0
 265 272 266 267 266 263 c 0
 266 243 254 226 234 220 c 0
 220 216 197 216 141 215 c 0xb0
 114 215 73 215 63 213 c 0
 60 212 58 212 55 212 c 0xd0
208 307 m 1
 208 307 l 1
211 307 m 1
 211 307 l 1
61 65 m 0
 37 65 18 84 17 108 c 0
 17 109 17 109 17 110 c 0
 17 134 36 154 60 155 c 1
 114 157 182 163 197 168 c 0
 202 170 207 171 212 171 c 0
 230 171 248 159 254 141 c 0
 256 136 256 131 256 126 c 0
 256 107 245 90 226 83 c 0
 191 71 93 66 63 65 c 0
 63 65 62 65 61 65 c 0
EndSplineSet
Validated: 1
EndChar

StartChar: greater
Encoding: 62 62 29
Width: 363
VWidth: 720
Flags: W
LayerCount: 2
Fore
SplineSet
121 -46 m 0
 112 -46 103 -44 95 -39 c 0
 83 -30 76 -16 76 -2 c 0
 76 7 79 16 84 24 c 0
 120 78 164 118 202 153 c 0
 213 163 224 173 235 183 c 1
 214 192 194 201 174 209 c 0
 127 229 78 250 31 279 c 0
 17 287 10 302 10 317 c 0
 10 325 12 334 17 341 c 0
 26 355 40 363 55 363 c 0
 63 363 71 360 79 356 c 0
 120 330 163 312 209 292 c 0
 249 275 290 258 330 235 c 0
 342 229 350 218 353 205 c 0
 353 202 354 200 354 197 c 0
 354 187 350 176 344 168 c 0
 320 138 292 113 263 86 c 0
 226 53 189 19 158 -27 c 0
 149 -40 135 -46 121 -46 c 0
EndSplineSet
Validated: 1
EndChar

StartChar: question
Encoding: 63 63 30
Width: 327
VWidth: 720
Flags: W
HStem: -63 105<135.87 210.13> 71 90<168 310.309> 338 90<16.7132 176.88>
VStem: 114 118<-41.2297 20.2297>
LayerCount: 2
Fore
SplineSet
194 66 m 0
 182 66 172 67 162 68 c 0
 102 75 80 107 72 133 c 0
 70 140 70 147 71 153 c 0
 76 188 106 230 151 289 c 0
 159 300 169 314 178 326 c 1
 171 328 162 330 151 331 c 0
 125 335 92 337 55 338 c 0
 30 338 10 358 10 383 c 0
 10 408 31 428 55 428 c 0
 105 427 147 424 180 418 c 0
 216 412 265 398 280 359 c 0
 284 350 285 341 283 333 c 0
 278 309 259 283 223 235 c 0
 207 215 192 194 179 175 c 0
 175 168 171 162 168 158 c 1
 173 157 179 156 188 156 c 0
 209 156 237 158 266 161 c 2
 268 161 l 2
 269 161 270 161 272 161 c 0
 295 161 315 143 317 120 c 0
 317 119 317 117 317 116 c 0
 317 93 300 73 276 71 c 2
 274 71 l 2
 244 68 218 66 194 66 c 0
202 318 m 1
 202 318 l 1
159 -63 m 0
 143 -63 128 -55 120 -40 c 0
 116 -33 114 -26 114 -18 c 0
 114 -2 123 13 137 21 c 2
 165 36 l 2
 172 40 180 42 187 42 c 0
 203 42 218 34 226 19 c 0
 230 12 232 5 232 -3 c 0
 232 -19 223 -34 209 -42 c 2
 181 -58 l 2
 174 -62 166 -63 159 -63 c 0
EndSplineSet
Validated: 1
EndChar

StartChar: at
Encoding: 64 64 31
Width: 447
VWidth: 720
Flags: W
HStem: 29 91<153.471 328.806> 137 90<223.001 270.64> 390 90<156.6 334.753>
VStem: 10 90<179.196 336.688> 133 90<227.802 269.905> 156 157<284.013 346.14> 347 90<288.207 371>
LayerCount: 2
Fore
SplineSet
230 29 m 0xf6
 226 29 223 29 219 30 c 0
 186 30 155 37 128 52 c 0
 102 65 79 84 61 108 c 0
 28 151 10 208 10 268 c 0
 10 270 10 271 10 273 c 0
 11 330 34 382 76 421 c 0
 97 440 122 455 151 465 c 0
 178 475 206 480 237 480 c 0
 239 480 242 480 245 480 c 0
 292 480 332 472 363 456 c 0
 412 432 429 397 433 372 c 0
 434 372 434 371 434 371 c 0
 436 357 437 344 437 331 c 0
 437 291 426 256 405 232 c 0
 394 219 376 205 350 198 c 1
 347 192 344 187 340 182 c 0
 330 169 317 159 301 152 c 0
 276 140 250 137 232 137 c 0
 230 137 227 137 225 137 c 0
 170 137 133 178 133 239 c 0
 133 239 133 240 133 241 c 0xfa
 134 269 142 298 156 320 c 0
 175 351 204 369 236 369 c 0
 236 369 236 369 237 369 c 0
 260 369 280 362 294 348 c 0
 303 339 313 323 313 297 c 0
 313 292 312 288 310 283 c 1
 312 283 314 284 316 284 c 0
 331 283 335 288 337 291 c 0
 342 297 347 311 347 331 c 0
 347 338 346 346 345 355 c 0
 343 364 332 371 324 375 c 0
 305 385 276 390 244 390 c 0
 242 390 241 390 239 390 c 0
 197 390 163 377 137 354 c 0
 114 333 100 303 100 272 c 0
 100 270 100 269 100 267 c 0
 100 227 112 190 132 163 c 0
 154 135 183 120 220 120 c 0
 225 120 230 120 235 120 c 0
 307 120 325 134 330 142 c 0
 338 157 353 166 369 166 c 0
 376 166 383 165 390 161 c 0
 406 153 415 137 415 121 c 0
 415 114 413 107 410 101 c 0
 394 71 366 50 325 39 c 0
 300 33 269 29 230 29 c 0xf6
225 227 m 0
 225 227 226 227 227 227 c 0
 229 227 230 227 232 227 c 0
 244 227 255 230 263 233 c 0
 270 236 270 238 270 240 c 0
 270 245 271 249 272 253 c 1
 270 253 269 253 267 253 c 0
 252 253 239 261 231 271 c 1
 227 264 223 252 223 240 c 0
 223 233 224 229 225 227 c 0
EndSplineSet
Validated: 1
EndChar

StartChar: A
Encoding: 65 65 32
Width: 393
VWidth: 720
Flags: W
HStem: -20 40G<47.5 59 330 342> 353 20G<179.5 190>
AnchorPoint: "bottom" 200 0 basechar 0
AnchorPoint: "top" 176 371 basechar 0
LayerCount: 2
Fore
SplineSet
378 66 m 2
 382 59 384 52 384 44 c 0
 384 28 375 13 360 5 c 0
 353 1 346 -1 338 -1 c 0
 322 -1 307 8 299 22 c 2
 265 84 l 1
 137 70 l 1
 132 61 127 53 123 45 c 0
 98 1 88 -7 79 -13 c 0
 72 -18 63 -20 55 -20 c 0
 40 -20 26 -13 17 1 c 0
 12 8 10 17 10 25 c 0
 10 38 16 50 26 59 c 0
 32 65 46 91 64 125 c 0
 66 129 69 134 71 139 c 0
 76 153 84 166 91 182 c 0
 125 259 137 304 137 322 c 0
 137 323 137 323 137 324 c 0
 137 325 137 327 137 328 c 0
 137 348 149 365 168 371 c 0
 173 372 177 373 182 373 c 0
 198 373 213 365 221 350 c 2
 378 66 l 2
187 166 m 5
 218 170 l 1
 198 204 l 1
 194 192 192 179 187 166 c 5
EndSplineSet
Validated: 1
EndChar

StartChar: B
Encoding: 66 66 33
Width: 424
VWidth: 720
Flags: W
HStem: -64 90<213.537 322.719> 276 90<117.131 258.309>
VStem: 259 90<243.281 275.189> 324 91<28.052 87.6245>
LayerCount: 2
Fore
SplineSet
308 -64 m 0xd0
 278 -64 243 -56 201 -39 c 0
 195 -36 190 -32 185 -28 c 1
 180 -33 174 -37 167 -39 c 0
 162 -41 157 -41 153 -41 c 0
 134 -41 116 -29 110 -10 c 0
 109 -8 36 221 12 290 c 0
 11 294 10 299 10 304 c 0
 10 312 12 321 17 328 c 0
 23 339 35 347 48 349 c 0
 50 350 104 358 161 363 c 0
 186 365 209 366 228 366 c 0
 235 366 240 366 246 366 c 0
 275 365 306 361 323 337 c 0
 343 313 349 289 349 270 c 0xe0
 349 262 348 256 347 250 c 0
 341 227 328 205 306 184 c 1
 318 181 329 176 338 171 c 0
 383 147 410 111 414 68 c 0
 414 67 414 67 414 67 c 0
 415 61 415 55 415 49 c 0
 415 32 413 17 409 4 c 0
 402 -16 390 -33 374 -45 c 0
 356 -58 334 -64 308 -64 c 0xd0
218 48 m 0
 224 48 230 47 235 44 c 0
 271 29 294 26 308 26 c 0
 315 26 320 27 321 28 c 0
 322 29 326 37 324 59 c 0xd0
 323 71 314 82 297 91 c 0
 278 101 242 113 179 113 c 0
 178 113 178 113 178 113 c 0
 173 113 169 113 165 115 c 1
 175 83 184 55 190 37 c 1
 198 44 208 48 218 48 c 0
115 267 m 1
 123 243 132 214 142 185 c 1
 146 191 152 196 159 199 c 0
 233 231 256 258 259 269 c 0xe0
 259 271 259 273 257 275 c 0
 252 275 243 276 229 276 c 0
 212 276 188 275 153 272 c 0
 140 270 127 269 115 267 c 1
EndSplineSet
Validated: 1
EndChar

StartChar: C
Encoding: 67 67 34
Width: 360
VWidth: 720
Flags: W
HStem: 41 91<121.475 305.813> 260 90<128.635 230.476>
LayerCount: 2
Fore
SplineSet
180 41 m 0
 133 41 96 52 67 73 c 0
 32 98 13 138 10 189 c 0
 10 192 10 194 10 197 c 0
 15 239 34 277 66 304 c 0
 97 330 140 346 189 350 c 0
 190 350 191 350 193 350 c 0
 216 350 236 332 238 309 c 0
 238 308 238 308 238 307 c 0
 238 283 220 262 196 260 c 0
 163 258 108 246 100 191 c 1
 103 158 116 149 121 145 c 0
 131 138 149 132 181 132 c 0
 208 132 245 136 295 149 c 0
 299 150 302 150 306 150 c 0
 326 150 345 137 350 116 c 0
 351 112 351 109 351 105 c 0
 351 85 337 67 317 62 c 0
 266 49 224 42 188 42 c 0
 186 42 183 41 180 41 c 0
EndSplineSet
Validated: 1
EndChar

StartChar: D
Encoding: 68 68 35
Width: 405
VWidth: 720
Flags: W
HStem: 27 320<96.9635 126.945>
VStem: 306 90<142.474 210.236> 306 79<169.751 210.309>
LayerCount: 2
Fore
SplineSet
139 27 m 0xc0
 138 27 136 27 135 27 c 0
 113 27 95 43 91 64 c 0
 73 163 41 239 17 277 c 0
 12 284 10 292 10 300 c 0
 10 308 12 315 15 322 c 0
 23 336 37 345 53 346 c 0
 66 346 79 347 92 347 c 0
 156 347 210 340 254 326 c 0
 315 307 358 274 383 228 c 0
 384 227 385 225 385 223 c 0xa0
 393 203 396 185 396 169 c 0
 396 141 386 120 376 105 c 0
 340 53 260 27 139 27 c 0xc0
128 256 m 1
 146 215 161 167 172 118 c 1
 250 122 290 140 302 156 c 0
 303 158 306 162 306 169 c 0xc0
 306 174 305 180 302 188 c 1
 289 212 264 229 227 240 c 0
 200 249 167 254 128 256 c 1
EndSplineSet
Validated: 1
EndChar

StartChar: E
Encoding: 69 69 36
Width: 286
VWidth: 720
Flags: W
HStem: -24 90<109.515 211.641> 257 21G<203 214.5> 299 91<100.336 170.588>
VStem: 10 90<250.299 298.447> 18 90<69.0911 147.79>
LayerCount: 2
Fore
SplineSet
146 -24 m 0xe8
 137 -24 129 -23 122 -22 c 0
 83 -15 52 8 29 47 c 0
 27 50 25 53 24 57 c 0
 20 70 18 84 18 98 c 0xe8
 18 115 21 134 28 151 c 0
 33 165 40 179 49 192 c 1
 24 216 10 248 10 285 c 0xf0
 10 293 11 302 12 311 c 0
 13 317 15 323 18 328 c 0xe8
 40 363 77 385 117 389 c 0
 121 389 124 390 128 390 c 0
 146 390 165 385 182 378 c 0
 204 368 224 353 243 332 c 0
 251 324 254 313 254 302 c 0
 254 290 250 277 240 269 c 0
 231 261 220 257 209 257 c 0
 197 257 185 262 176 272 c 0
 165 284 147 299 128 299 c 0
 127 299 126 299 125 299 c 0
 114 298 106 293 100 287 c 1
 100 286 100 285 100 284 c 0xf0
 100 264 111 252 134 244 c 0
 151 239 162 225 165 209 c 0
 165 206 166 204 166 201 c 0
 166 187 159 173 148 165 c 0
 120 144 108 118 108 97 c 0
 108 94 108 91 109 88 c 1
 120 72 130 68 137 67 c 0
 140 66 143 66 147 66 c 0
 160 66 180 71 210 87 c 0
 217 91 224 93 232 93 c 0
 248 93 263 84 271 69 c 0
 275 62 277 55 277 47 c 0
 277 31 268 16 253 8 c 0
 213 -14 178 -24 146 -24 c 0xe8
EndSplineSet
Validated: 1
EndChar

StartChar: F
Encoding: 70 70 37
Width: 359
VWidth: 720
Flags: W
HStem: 274 89<132.253 311.966> 290 90<130 273.813>
VStem: 84 90<10.7582 115.203>
LayerCount: 2
Fore
SplineSet
311 136 m 2x60
 172 116 l 1
 173 99 174 82 174 66 c 0
 174 60 174 54 174 48 c 0
 174 23 154 4 129 4 c 0
 128 4 l 0
 103 5 84 25 84 50 c 0
 84 56 84 61 84 67 c 0
 84 167 52 260 19 303 c 0
 13 311 10 321 10 331 c 0
 10 337 11 342 13 347 c 0
 19 362 32 372 48 375 c 0
 69 378 95 380 121 380 c 0x60
 180 380 244 373 285 363 c 0
 305 357 318 339 318 319 c 0
 318 315 318 312 317 308 c 0
 312 288 294 274 274 274 c 0xa0
 270 274 267 274 263 275 c 0
 230 283 178 289 130 290 c 1
 139 268 147 245 154 220 c 0
 155 215 156 210 157 205 c 1
 298 225 l 2
 300 225 303 226 305 226 c 0
 327 226 345 210 349 187 c 0
 349 185 349 183 349 181 c 0
 349 160 333 140 311 136 c 2x60
EndSplineSet
Validated: 1
EndChar

StartChar: G
Encoding: 71 71 38
Width: 409
VWidth: 720
Flags: W
HStem: -14 89<334.95 393.888> 8 91<113.412 229.536> 249 126<194.155 248.854>
VStem: 12 88<113.186 212.418>
LayerCount: 2
Fore
SplineSet
285 17 m 0xb0
 278 24 273 30 267 36 c 1
 245 23 202 8 164 8 c 0
 156 8 149 9 142 10 c 1
 104 18 74 33 52 54 c 0
 23 83 12 116 12 149 c 0
 12 213 53 280 93 325 c 0
 94 326 95 327 97 329 c 0
 117 346 136 359 154 366 c 0
 168 372 181 375 194 375 c 0
 203 375 211 373 219 371 c 0
 236 366 265 350 277 304 c 0
 278 300 278 297 278 293 c 0
 278 273 264 255 244 250 c 0
 240 249 237 249 233 249 c 0
 213 249 194 263 189 283 c 0
 183 281 173 275 158 263 c 0
 121 221 100 179 100 151 c 0
 102 130 112 109 157 99 c 1
 158 99 160 99 161 99 c 0x70
 209 99 227 116 238 130 c 0
 246 141 259 147 272 147 c 0
 286 147 301 140 309 129 c 0
 312 125 315 121 318 118 c 0
 326 107 335 95 343 86 c 0
 350 78 354 75 356 75 c 0
 379 75 400 56 400 33 c 0
 400 32 400 32 400 31 c 0
 399 -2 380 -14 357 -14 c 0
 332 -14 301 1 285 17 c 0xb0
EndSplineSet
Validated: 1
EndChar

StartChar: H
Encoding: 72 72 39
Width: 403
VWidth: 720
Flags: W
VStem: 10 86<274.933 348.302> 63 90<6.13379 85.3144> 211 86<286.826 353.982>
LayerCount: 2
Fore
SplineSet
362 -2 m 0xa0
 358 -3 353 -4 348 -4 c 0
 329 -4 312 8 306 27 c 0
 296 56 287 87 279 116 c 0
 278 117 278 118 278 118 c 0
 239 118 209 111 189 97 c 0
 169 84 157 65 153 37 c 0
 149 15 130 -1 108 -1 c 0
 107 -1 105 -1 104 -1 c 0
 81 2 63 21 63 44 c 0
 63 45 63 45 63 46 c 0
 63 52 63 57 63 63 c 0x60
 63 137 46 220 14 292 c 0
 11 298 10 304 10 310 c 0
 10 327 20 344 37 351 c 0
 43 354 49 355 55 355 c 0
 72 355 89 345 96 328 c 0
 118 279 134 227 143 175 c 1
 172 193 208 204 251 207 c 1
 240 240 229 271 216 296 c 0
 213 302 211 309 211 316 c 0
 211 332 220 348 236 356 c 0
 243 360 250 361 257 361 c 0
 273 361 289 352 297 336 c 0
 324 282 345 211 365 142 c 0
 373 113 382 83 391 55 c 0
 393 50 393 45 393 41 c 0
 393 22 381 4 362 -2 c 0xa0
EndSplineSet
Validated: 1
EndChar

StartChar: I
Encoding: 73 73 40
Width: 198
VWidth: 720
Flags: W
HStem: 31 311
VStem: 10 85<271.117 335.5> 101 87<37.4035 117.63>
AnchorPoint: "top" 55 339 basechar 0
AnchorPoint: "bottom" 151 28 basechar 0
LayerCount: 2
Fore
SplineSet
143 31 m 0
 125 31 108 42 101 60 c 0
 95 77 88 95 82 112 c 0
 60 172 37 234 15 276 c 0
 12 283 10 290 10 297 c 0
 10 313 19 329 34 337 c 0
 41 340 48 342 55 342 c 0
 71 342 87 333 95 317 c 0
 119 270 143 206 166 143 c 0
 172 126 179 109 185 92 c 0
 187 87 188 81 188 76 c 0
 188 57 177 40 159 34 c 0
 154 32 148 31 143 31 c 0
EndSplineSet
Validated: 1
EndChar

StartChar: J
Encoding: 74 74 41
Width: 265
VWidth: 720
Flags: W
HStem: -63 92<82.9 163.6> -50 89<16.7878 99.4>
VStem: 165 90<27.7227 67.2068>
LayerCount: 2
Fore
SplineSet
153 -63 m 0xa0
 143 -63 133 -62 121 -60 c 2
 49 -50 l 2
 26 -47 10 -27 10 -6 c 0
 10 -4 10 -2 10 0 c 0
 14 23 33 39 55 39 c 0
 57 39 59 39 61 39 c 2x60
 134 29 l 2
 135 29 136 29 136 29 c 0
 153 25 162 27 165 29 c 0
 165 30 165 31 165 33 c 0
 165 39 164 51 156 68 c 0
 156 68 156 68 156 69 c 0
 124 147 71 229 32 279 c 0
 26 287 23 297 23 306 c 0
 23 320 29 333 40 342 c 0
 48 349 58 352 68 352 c 0
 81 352 94 346 103 334 c 0
 124 308 195 212 239 103 c 0
 249 79 255 57 255 37 c 0
 255 35 255 34 255 32 c 0
 255 9 248 -11 236 -28 c 0
 224 -42 200 -63 153 -63 c 0xa0
EndSplineSet
Validated: 1
EndChar

StartChar: K
Encoding: 75 75 42
Width: 491
VWidth: 720
Flags: W
LayerCount: 2
Fore
SplineSet
473 2 m 0
 464 -10 450 -16 436 -16 c 0
 427 -16 418 -14 410 -8 c 0
 363 26 293 57 185 91 c 1
 190 60 195 28 200 -2 c 0
 200 -5 201 -7 201 -10 c 0
 201 -32 185 -50 163 -54 c 0
 161 -54 158 -54 156 -54 c 0
 134 -54 115 -38 111 -16 c 0
 93 99 70 242 20 305 c 0
 13 313 10 323 10 333 c 0
 10 346 16 359 27 368 c 0
 35 375 45 378 55 378 c 0
 68 378 81 372 90 361 c 0
 122 320 144 263 161 200 c 1
 192 244 214 292 229 343 c 0
 235 362 253 375 272 375 c 0
 277 375 281 374 285 373 c 0
 305 367 317 350 317 330 c 0
 317 326 316 321 315 317 c 0
 300 263 277 213 246 165 c 1
 345 133 413 101 463 65 c 0
 475 57 481 43 481 29 c 0
 481 19 479 10 473 2 c 0
EndSplineSet
Validated: 1
EndChar

StartChar: L
Encoding: 76 76 43
Width: 328
VWidth: 720
Flags: W
HStem: -20 90<122.493 231.999>
VStem: 10 90<84.2805 361.96>
LayerCount: 2
Fore
SplineSet
190 -20 m 0
 156 -20 115 -12 67 3 c 0
 51 8 39 22 37 38 c 0
 22 121 10 206 10 281 c 0
 10 298 11 314 12 329 c 0
 14 352 34 370 57 370 c 0
 59 370 60 370 61 370 c 0
 84 368 102 348 102 325 c 0
 102 323 102 322 102 321 c 0
 101 308 100 294 100 280 c 0
 100 220 110 151 121 81 c 1
 153 73 175 70 190 70 c 0
 200 70 207 71 212 73 c 0
 223 76 227 80 232 92 c 0
 240 110 257 120 274 120 c 0
 280 120 286 119 291 117 c 0
 308 110 319 93 319 76 c 0
 319 70 318 64 315 58 c 0
 300 21 275 -3 238 -14 c 0
 224 -18 208 -20 190 -20 c 0
EndSplineSet
Validated: 1
EndChar

StartChar: M
Encoding: 77 77 44
Width: 459
VWidth: 720
Flags: W
LayerCount: 2
Fore
SplineSet
55 -24 m 0
 46 -24 37 -21 29 -15 c 0
 17 -6 10 8 10 22 c 0
 10 31 13 40 18 48 c 0
 51 94 56 179 59 269 c 0
 59 285 68 299 81 307 c 0
 88 311 96 313 104 313 c 0
 111 313 118 311 125 308 c 0
 162 288 202 257 238 220 c 1
 253 249 266 285 272 319 c 0
 274 334 284 346 298 352 c 0
 304 355 310 356 317 356 c 0
 325 356 333 354 340 349 c 0
 405 307 425 202 445 100 c 0
 446 95 447 89 448 84 c 0
 449 81 449 78 449 75 c 0
 449 54 434 35 413 31 c 0
 410 30 407 30 404 30 c 0
 383 30 364 45 360 67 c 0
 359 72 358 78 357 83 c 0
 349 125 340 167 330 203 c 1
 319 178 300 143 275 116 c 0
 266 106 253 101 240 101 c 0
 227 102 215 108 207 119 c 0
 188 142 167 165 145 184 c 1
 143 162 141 139 138 119 c 0
 129 67 114 26 92 -5 c 0
 83 -17 69 -24 55 -24 c 0
EndSplineSet
Validated: 1
EndChar

StartChar: N
Encoding: 78 78 45
Width: 428
VWidth: 720
Flags: W
HStem: 60 90<250.706 318.968>
VStem: 10 85<17.0177 95.1293> 329 90<157.241 297.071>
LayerCount: 2
Fore
SplineSet
55 11 m 0
 48 11 42 12 35 15 c 0
 19 23 10 39 10 55 c 0
 10 62 12 69 15 75 c 0
 42 132 48 231 52 310 c 2
 52 317 l 2
 53 337 67 354 87 359 c 0
 90 360 93 360 97 360 c 0
 112 360 128 352 136 337 c 0
 139 333 141 328 144 323 c 0
 170 278 194 235 216 203 c 0
 241 167 255 157 261 153 c 0
 269 152 278 150 286 150 c 0
 294 150 302 152 308 156 c 0
 320 165 328 191 329 227 c 1
 323 283 307 305 281 323 c 0
 269 332 262 346 262 360 c 0
 262 369 264 377 270 385 c 0
 279 398 293 405 307 405 c 0
 316 405 324 402 332 397 c 0
 358 379 378 358 391 332 c 0
 406 305 415 272 418 232 c 0
 419 230 419 229 419 227 c 0
 417 160 398 112 362 84 c 0
 345 71 325 63 302 61 c 0
 297 60 292 60 286 60 c 0
 270 60 253 62 235 67 c 0
 234 68 232 68 230 69 c 0
 201 80 174 106 142 152 c 0
 139 157 135 163 131 169 c 1
 124 121 114 74 95 36 c 0
 88 20 72 11 55 11 c 0
EndSplineSet
Validated: 1
EndChar

StartChar: O
Encoding: 79 79 46
Width: 381
VWidth: 720
Flags: W
HStem: 209 127<110.594 186.083> 223 90<156.683 269.506>
VStem: 281 90<127.181 191.859>
AnchorPoint: "top" 191 335 basechar 0
AnchorPoint: "bottom" 204 10 basechar 0
LayerCount: 2
Fore
SplineSet
202 13 m 0x60
 201 13 201 13 200 13 c 0
 147 15 106 24 75 43 c 0
 34 68 11 108 10 159 c 0
 10 162 10 165 11 169 c 0
 20 212 36 248 58 277 c 0
 78 303 103 322 131 333 c 0
 136 335 142 336 147 336 c 0xa0
 163 336 179 327 187 313 c 1
 194 313 201 313 207 313 c 0
 244 313 277 304 303 289 c 0
 339 268 363 234 371 192 c 0
 371 189 372 186 371 182 c 0
 370 129 355 91 324 63 c 0
 296 38 259 26 212 14 c 0
 209 14 205 13 202 13 c 0x60
100 156 m 1
 102 135 111 126 121 120 c 0
 137 110 163 105 197 103 c 1
 265 120 279 133 281 180 c 1
 278 194 270 204 258 211 c 0
 244 219 225 223 204 223 c 0x60
 182 223 158 219 134 211 c 0
 130 210 125 209 121 209 c 0
 113 196 105 179 100 156 c 1
EndSplineSet
Validated: 1
EndChar

StartChar: P
Encoding: 80 80 47
Width: 315
VWidth: 720
Flags: W
HStem: -1 21G<126.5 138.5> 132 90<140 198.669> 298 90<103.991 208.237>
VStem: 10 90<224.02 273.812> 96 84<5.375 63.5>
LayerCount: 2
Fore
SplineSet
96 23 m 0xe8
 56 98 28 156 14 213 c 0
 14 216 13 218 13 221 c 0
 13 224 12 228 12 233 c 0
 11 243 10 253 10 263 c 0xf0
 10 279 12 294 19 309 c 0
 32 341 61 364 105 378 c 0
 125 384 144 388 163 388 c 0
 193 388 222 379 247 363 c 0
 281 340 302 304 305 266 c 0
 305 264 305 262 305 259 c 0
 300 202 277 163 236 145 c 0
 213 135 188 132 165 132 c 0
 156 132 148 133 140 133 c 1
 151 112 162 90 175 65 c 0
 179 58 180 51 180 44 c 0
 180 28 171 12 156 4 c 0
 149 0 142 -1 135 -1 c 0
 118 -1 104 8 96 23 c 0xe8
140 224 m 0
 150 223 160 222 169 222 c 0
 181 222 192 224 199 227 c 0
 202 228 212 232 215 262 c 0
 213 270 207 281 196 288 c 0
 187 294 176 298 163 298 c 0
 153 298 143 296 132 292 c 0
 115 287 104 280 102 274 c 0
 100 270 100 266 100 260 c 0
 100 255 100 248 101 242 c 0
 102 238 102 235 103 231 c 0
 103 225 114 224 124 224 c 0
 130 224 136 224 140 224 c 0
EndSplineSet
Validated: 1
EndChar

StartChar: Q
Encoding: 81 81 48
Width: 411
VWidth: 720
Flags: W
HStem: -114 222<127.5 230> -85 116<272.659 368.956> 205 133<120.329 187.62> 240 89<185.631 301.081>
VStem: 10 90<119.772 209.778> 306 90<147.825 233.999>
LayerCount: 2
Fore
SplineSet
384 22 m 0x6c
 395 13 401 0 401 -14 c 0
 401 -23 398 -33 392 -41 c 0
 371 -68 342 -84 311 -85 c 0x6c
 282 -85 254 -71 232 -46 c 0
 225 -41 226 -43 212 -53 c 0
 198 -64 181 -82 166 -99 c 0
 158 -109 145 -114 133 -114 c 0
 122 -114 111 -110 103 -102 c 0
 93 -93 88 -81 88 -69 c 0
 88 -58 92 -47 99 -39 c 0
 122 -14 141 6 160 20 c 1
 114 25 69 36 39 70 c 0
 20 92 10 119 10 151 c 0
 10 157 10 162 11 168 c 0
 18 239 61 299 130 333 c 0
 136 336 143 338 150 338 c 0xac
 165 338 180 330 188 316 c 1
 199 320 208 322 218 324 c 0
 234 327 249 329 264 329 c 0x1c
 282 329 299 326 316 319 c 0
 351 304 377 276 392 234 c 0
 394 231 395 227 395 223 c 0
 396 217 396 211 396 205 c 0
 396 160 377 114 348 83 c 0
 328 62 302 46 272 34 c 1
 278 31 283 28 289 24 c 0
 292 21 295 18 298 15 c 0
 308 3 311 4 321 13 c 0
 332 23 343 31 357 31 c 0
 366 31 376 28 384 22 c 0x6c
106 130 m 0
 117 117 147 110 195 108 c 1
 265 116 306 152 306 205 c 0xac
 306 206 306 208 306 209 c 1
 298 227 288 234 282 236 c 0
 275 239 267 240 259 240 c 0x1c
 232 240 200 227 162 209 c 0
 156 206 150 205 143 205 c 0
 135 205 127 207 120 211 c 1
 109 196 102 178 100 159 c 0
 98 139 104 132 106 130 c 0
EndSplineSet
Validated: 1
EndChar

StartChar: R
Encoding: 82 82 49
Width: 433
VWidth: 720
Flags: W
HStem: 248 90<122 223.931>
VStem: 230 90<167.016 230.882>
LayerCount: 2
Fore
SplineSet
379 -29 m 0
 367 -29 355 -25 347 -16 c 0
 303 29 245 56 188 60 c 0
 183 60 179 61 175 63 c 1
 175 57 176 51 177 45 c 0
 177 43 177 41 177 39 c 0
 177 18 161 -2 138 -5 c 0
 136 -5 134 -5 132 -5 c 0
 110 -5 91 11 88 34 c 0
 77 117 50 184 19 263 c 0
 17 267 15 272 13 276 c 0
 11 281 10 287 10 293 c 0
 10 302 13 311 18 319 c 0
 26 330 39 338 53 338 c 0
 54 338 55 338 56 338 c 0
 73 338 89 338 105 338 c 0
 144 338 182 337 214 330 c 0
 258 320 288 298 307 263 c 0
 309 260 311 257 312 253 c 0
 317 233 320 214 320 196 c 0
 320 170 314 148 302 128 c 0
 301 127 301 125 300 124 c 1
 305 122 310 119 314 117 c 0
 350 100 383 76 411 47 c 0
 419 39 424 27 424 16 c 0
 424 4 419 -7 410 -16 c 0
 401 -25 390 -29 379 -29 c 0
122 248 m 1
 136 211 149 175 159 137 c 1
 164 142 171 146 179 148 c 0
 203 155 219 164 225 174 c 0
 228 180 230 188 230 196 c 0
 230 205 228 215 226 224 c 1
 212 244 183 247 122 248 c 1
EndSplineSet
Validated: 1
EndChar

StartChar: S
Encoding: 83 83 50
Width: 407
VWidth: 720
Flags: W
HStem: 23 90<137.141 306.069> 206 90<147.452 275.625>
LayerCount: 2
Fore
SplineSet
254 23 m 0
 217 23 173 29 126 40 c 0
 105 45 91 63 91 83 c 0
 91 87 91 90 92 94 c 0
 97 115 116 129 137 129 c 0
 140 129 143 129 146 128 c 0
 187 118 224 113 255 113 c 0
 258 113 260 113 263 113 c 0
 293 114 304 120 307 123 c 0
 302 152 288 177 268 191 c 0
 255 201 241 206 225 206 c 0
 221 206 217 206 213 205 c 0
 211 205 209 204 207 204 c 0
 171 204 133 211 101 226 c 0
 61 244 32 272 15 306 c 0
 12 312 10 320 10 327 c 0
 10 334 12 341 15 347 c 0
 22 360 35 369 49 371 c 0
 92 376 120 390 127 397 c 0
 135 411 150 419 165 419 c 0
 173 419 180 417 187 414 c 0
 202 406 211 391 211 375 c 0
 211 367 209 360 205 353 c 0
 194 331 171 315 146 305 c 1
 164 298 184 294 202 294 c 0
 210 295 217 296 225 296 c 0
 260 296 293 285 321 264 c 0
 361 234 389 186 397 132 c 0
 397 131 397 130 397 129 c 0
 397 127 397 124 397 122 c 0
 397 95 386 72 366 54 c 0
 342 34 307 24 260 23 c 0
 258 23 256 23 254 23 c 0
126 395 m 1
 126 395 l 1
EndSplineSet
Validated: 1
EndChar

StartChar: T
Encoding: 84 84 51
Width: 355
VWidth: 720
Flags: W
HStem: 290 90<18.1395 171.772> 296 94<261.09 334.79>
VStem: 175 95<8.7155 288.472>
LayerCount: 2
Fore
SplineSet
306 301 m 0x60
 290 299 274 298 259 296 c 1x60
 266 241 270 189 270 140 c 0
 270 105 268 71 264 38 c 0
 262 15 242 -2 220 -2 c 0
 218 -2 216 -2 215 -2 c 0
 192 1 175 20 175 42 c 0
 175 43 175 45 175 47 c 0
 178 77 180 107 180 139 c 0
 180 187 176 237 169 291 c 1
 155 290 140 290 127 290 c 0
 101 290 76 291 52 292 c 0
 28 294 10 314 10 338 c 0
 10 339 10 339 10 340 c 0
 12 364 31 382 54 382 c 0
 56 382 57 382 58 382 c 0
 79 381 100 380 122 380 c 0xa0
 175 380 233 384 296 390 c 0
 298 390 300 390 302 390 c 0
 323 390 343 374 345 351 c 0
 345 349 345 347 345 346 c 0
 345 323 328 304 306 301 c 0x60
EndSplineSet
Validated: 1
EndChar

StartChar: U
Encoding: 85 85 52
Width: 369
VWidth: 720
Flags: W
VStem: 10 90<197.405 361.039> 269 91<101.205 267.899>
AnchorPoint: "top" 146 373 basechar 0
AnchorPoint: "bottom" 229 -2 basechar 0
LayerCount: 2
Fore
SplineSet
227 0 m 0
 226 0 226 0 225 0 c 0
 191 1 160 10 133 27 c 0
 107 43 85 66 67 96 c 0
 36 148 18 221 10 320 c 0
 10 321 10 322 10 323 c 0
 10 346 28 366 52 368 c 0
 53 368 54 368 55 368 c 0
 78 368 98 350 100 326 c 0
 106 243 121 181 144 142 c 0
 164 108 189 92 224 90 c 1
 249 94 257 100 260 105 c 0
 265 112 269 126 269 154 c 0
 269 172 268 195 263 226 c 0
 262 229 261 233 260 236 c 0
 254 255 244 286 211 314 c 0
 201 323 195 336 195 349 c 0
 195 359 199 369 206 378 c 0
 215 388 227 394 240 394 c 0
 250 394 260 390 269 383 c 0
 322 338 338 288 345 263 c 0
 346 261 347 258 348 257 c 0
 349 253 350 249 351 245 c 0
 357 210 360 180 360 154 c 0
 360 109 351 77 333 52 c 0
 307 16 266 5 234 0 c 0
 231 0 229 0 227 0 c 0
347 257 m 1
 347 257 l 1
EndSplineSet
Validated: 1
EndChar

StartChar: V
Encoding: 86 86 53
Width: 368
VWidth: 720
Flags: W
HStem: 15 21G<237.5 252.5>
VStem: 269 90<205.75 396.947>
LayerCount: 2
Fore
SplineSet
207 34 m 0
 113 168 52 235 29 251 c 0
 17 260 10 274 10 289 c 0
 10 297 13 306 18 314 c 0
 27 326 41 333 55 333 c 0
 64 333 73 330 81 324 c 0
 121 296 184 217 232 153 c 1
 257 226 269 295 269 359 c 0
 269 384 289 404 314 404 c 0
 338 404 359 384 359 359 c 0
 359 261 334 154 285 42 c 0
 278 24 261 15 244 15 c 0
 231 15 216 21 207 34 c 0
EndSplineSet
Validated: 1
EndChar

StartChar: W
Encoding: 87 87 54
Width: 502
VWidth: 720
Flags: W
HStem: 262 90<315.844 396.719>
VStem: 10 89<181 308.749>
LayerCount: 2
Fore
SplineSet
125 25 m 0
 111 25 98 31 89 43 c 0
 61 82 31 135 11 263 c 0
 11 266 10 268 10 271 c 0
 10 293 26 311 48 315 c 0
 50 315 53 316 55 316 c 0
 76 316 95 300 99 278 c 0
 112 197 128 152 145 123 c 1
 174 135 199 159 223 193 c 0
 231 206 246 213 262 213 c 0
 277 212 291 204 299 190 c 0
 315 162 342 146 363 137 c 1
 389 152 400 175 403 218 c 1
 397 256 381 262 361 262 c 0
 359 262 357 262 355 262 c 0
 331 262 310 281 309 306 c 0
 309 331 328 352 353 352 c 0
 355 352 356 352 358 352 c 0
 394 352 423 342 446 322 c 0
 472 301 487 268 492 226 c 0
 493 223 493 220 493 218 c 0
 490 162 475 84 382 46 c 0
 372 42 361 42 351 45 c 0
 316 57 285 74 260 97 c 1
 224 59 182 35 134 25 c 0
 131 25 128 25 125 25 c 0
EndSplineSet
Validated: 1
EndChar

StartChar: X
Encoding: 88 88 55
Width: 423
VWidth: 720
Flags: W
HStem: 262 87<17.125 79.5918>
LayerCount: 2
Fore
SplineSet
401 34 m 0
 392 25 381 21 369 21 c 0
 357 21 346 25 337 34 c 0
 309 62 269 101 222 141 c 1
 203 93 187 43 172 -8 c 0
 166 -28 148 -40 128 -40 c 0
 124 -40 120 -40 116 -39 c 0
 96 -33 83 -15 83 4 c 0
 83 9 84 13 85 17 c 0
 104 80 124 140 148 198 c 1
 113 223 75 245 37 262 c 0
 20 269 10 286 10 303 c 0
 10 309 11 315 14 321 c 0
 21 338 38 349 55 349 c 0
 61 349 67 348 73 345 c 0
 110 328 146 308 184 283 c 1
 200 318 218 352 236 386 c 0
 244 401 259 410 275 410 c 0
 283 410 290 408 297 404 c 0
 312 396 321 381 321 365 c 0
 321 357 319 350 315 343 c 0
 295 305 276 267 258 228 c 1
 311 185 358 140 401 98 c 0
 410 89 414 78 414 66 c 0
 414 54 410 43 401 34 c 0
EndSplineSet
Validated: 1
EndChar

StartChar: Y
Encoding: 89 89 56
Width: 350
VWidth: 720
Flags: W
VStem: 10 90<300.23 430.04> 157 90<-3.15624 198.413> 251 90<303.592 403.035>
LayerCount: 2
Fore
SplineSet
324 263 m 0
 305 232 274 215 244 206 c 1
 248 175 249 141 249 106 c 0
 249 82 249 58 247 32 c 0
 246 8 226 -10 202 -10 c 0
 201 -10 200 -10 199 -10 c 0
 176 -9 157 12 157 36 c 0
 157 37 157 37 157 38 c 0
 159 62 159 84 159 106 c 0
 159 138 158 168 154 196 c 1
 121 199 85 208 56 237 c 0
 39 254 26 277 19 304 c 0
 13 326 10 351 10 381 c 0
 10 385 10 390 10 394 c 0
 11 417 31 437 55 437 c 0
 56 437 56 437 57 437 c 0
 80 436 100 417 100 393 c 0
 100 392 100 392 100 391 c 0
 100 388 100 385 100 381 c 0
 100 341 106 314 120 301 c 0
 131 290 150 285 180 285 c 0
 182 285 185 285 188 285 c 1
 228 292 242 302 247 310 c 0
 250 314 251 321 251 329 c 0
 251 341 248 356 242 375 c 0
 240 380 240 385 240 389 c 0
 240 408 252 426 271 432 c 0
 276 434 280 434 285 434 c 0
 304 434 321 422 327 403 c 0
 336 375 341 350 341 328 c 0
 341 303 335 281 324 263 c 0
EndSplineSet
Validated: 1
EndChar

StartChar: Z
Encoding: 90 90 57
Width: 390
VWidth: 720
Flags: W
HStem: 55 86<307.768 374.302> 134 110<34.0642 92.9528> 209 87<277.006 355.924> 294 90<21.4161 152.003>
VStem: 91 90<79.3707 134>
LayerCount: 2
Fore
SplineSet
354 55 m 0xa8
 334 46 315 37 297 28 c 0
 253 6 216 -12 183 -12 c 0
 171 -12 160 -9 149 -4 c 0
 146 -3 143 -1 140 1 c 0
 107 27 91 62 91 108 c 0
 91 114 91 120 92 127 c 0
 93 129 93 132 93 134 c 1
 91 134 89 134 87 134 c 0
 75 134 65 136 55 140 c 0
 35 149 27 165 24 172 c 0
 18 180 15 190 15 199 c 0
 15 211 20 223 29 232 c 0
 38 240 49 244 60 244 c 0x48
 72 244 84 239 92 230 c 0
 94 228 95 226 97 225 c 0
 102 225 110 227 121 230 c 1
 130 251 141 273 153 296 c 1x28
 138 295 124 294 110 294 c 0
 87 294 65 296 45 301 c 0
 24 306 10 325 10 346 c 0
 10 349 10 352 11 355 c 0
 16 376 35 390 56 390 c 0
 59 390 62 390 65 389 c 0
 79 386 95 384 112 384 c 0x18
 145 384 184 390 230 403 c 0
 234 404 238 405 243 405 c 0
 257 405 271 399 279 387 c 0
 285 379 288 369 288 360 c 0
 288 352 286 343 281 336 c 0
 265 312 253 290 242 270 c 1
 260 277 279 285 300 293 c 0
 305 295 311 296 317 296 c 0
 335 296 352 286 359 268 c 0
 361 263 362 257 362 252 c 0
 362 233 351 216 333 209 c 0
 275 186 228 169 190 157 c 1
 185 141 183 128 182 118 c 0
 182 113 181 109 181 105 c 0
 181 92 184 84 188 79 c 0
 191 80 197 81 206 85 c 0
 220 90 237 99 257 109 c 0
 275 117 296 127 318 137 c 0
 324 140 330 141 336 141 c 0
 353 141 370 131 377 114 c 0
 380 108 381 102 381 96 c 0
 381 78 371 62 354 55 c 0xa8
EndSplineSet
Validated: 1
EndChar

StartChar: bracketleft
Encoding: 91 91 58
Width: 280
VWidth: 720
Flags: W
HStem: -19 110<129.497 239.465> 325 89<111 186.766> 340 88<112.447 225.899>
VStem: 39 89<74 279.642>
LayerCount: 2
Fore
SplineSet
84 -19 m 0xd0
 72 -19 61 -15 53 -7 c 0
 44 2 39 14 39 26 c 0
 38 140 35 269 11 358 c 0
 10 362 10 365 10 368 c 0
 10 379 13 389 20 397 c 0
 28 408 40 414 53 414 c 0
 54 414 55 414 56 414 c 0
 62 414 68 414 74 414 c 0xd0
 117 414 147 417 173 426 c 0
 178 428 182 428 187 428 c 0
 206 428 224 416 230 397 c 0
 232 392 232 388 232 383 c 0
 232 364 220 346 201 340 c 0xb0
 171 330 140 326 111 325 c 1
 123 248 127 159 128 74 c 1
 160 77 188 82 214 89 c 0
 218 90 222 91 226 91 c 0
 246 91 263 78 269 58 c 0
 270 54 270 50 270 47 c 0
 270 27 257 8 237 2 c 0
 193 -10 144 -17 86 -19 c 0
 85 -19 84 -19 84 -19 c 0xd0
EndSplineSet
Validated: 1
EndChar

StartChar: backslash
Encoding: 92 92 59
Width: 375
VWidth: 720
Flags: W
LayerCount: 2
Fore
SplineSet
320 10 m 0
 307 10 294 15 285 26 c 2
 269 46 l 2
 175 164 69 297 29 326 c 0
 16 335 10 349 10 362 c 0
 10 372 13 381 19 389 c 0
 27 401 41 408 55 408 c 0
 64 408 73 405 81 399 c 0
 129 365 210 264 340 103 c 2
 355 83 l 2
 362 74 365 64 365 54 c 0
 365 41 359 28 348 19 c 0
 340 13 330 10 320 10 c 0
EndSplineSet
Validated: 1
EndChar

StartChar: bracketright
Encoding: 93 93 60
Width: 289
VWidth: 720
Flags: W
HStem: -28 89<66.5914 177.375> 326 89<17.2773 155.295>
VStem: 156 90<88.0806 328>
LayerCount: 2
Fore
SplineSet
105 -28 m 0
 81 -28 61 -10 60 15 c 0
 60 16 60 16 60 17 c 0
 60 40 79 60 103 61 c 0
 129 63 154 66 179 71 c 1
 164 138 157 223 156 328 c 1
 141 326 124 326 104 326 c 0
 89 326 71 326 53 327 c 0
 29 328 10 348 10 371 c 0
 10 372 10 372 10 373 c 0
 11 397 31 416 55 416 c 0
 56 416 56 416 57 416 c 0
 71 416 84 415 95 415 c 0
 152 415 175 421 185 425 c 0
 190 427 196 428 202 428 c 0
 211 428 220 426 227 420 c 0
 240 412 247 397 247 382 c 0
 247 365 246 349 246 333 c 0
 246 211 257 117 277 52 c 0
 279 47 279 42 279 38 c 0
 279 31 278 24 274 17 c 0
 269 7 259 -1 247 -5 c 0
 201 -18 154 -26 107 -28 c 0
 106 -28 106 -28 105 -28 c 0
EndSplineSet
Validated: 1
EndChar

StartChar: asciicircum
Encoding: 94 94 61
AltUni2: 000302.ffffffff.0
Width: 342
VWidth: 720
Flags: W
HStem: 226 233 258 21G<280.5 292>
VStem: 10 323<271 303>
AnchorPoint: "top" 173 257 mark 0
LayerCount: 2
Fore
SplineSet
55 226 m 0xa0
 47 226 38 228 31 233 c 0
 17 241 10 256 10 271 c 0
 10 279 12 288 17 295 c 0
 55 354 94 405 133 446 c 0
 142 455 154 459 165 459 c 0xa0
 175 459 185 456 193 450 c 0
 287 378 313 346 325 328 c 0
 330 320 333 312 333 303 c 0
 333 288 325 274 312 265 c 0
 304 260 296 258 288 258 c 0x60
 273 258 259 265 250 278 c 0
 244 288 225 309 171 354 c 1
 145 323 119 287 93 247 c 0
 85 233 70 226 55 226 c 0xa0
EndSplineSet
Validated: 1
EndChar

StartChar: underscore
Encoding: 95 95 62
Width: 268
VWidth: 720
Flags: W
HStem: -46 90<56.1414 249.595> -23 88<16.9624 162.6>
VStem: 10 248<-17.6529 39.1602>
LayerCount: 2
Fore
SplineSet
189 -46 m 0xa0
 141 -46 79 -33 43 -23 c 0
 23 -17 10 0 10 20 c 0
 10 24 11 28 12 32 c 0
 17 52 36 65 56 65 c 0x60
 59 65 63 65 67 64 c 0
 121 50 168 44 190 44 c 0
 196 44 200 44 202 45 c 0
 206 46 209 46 213 46 c 0
 233 46 252 32 257 12 c 0
 258 8 258 5 258 1 c 0
 258 -19 244 -37 224 -42 c 0
 214 -45 202 -46 189 -46 c 0xa0
EndSplineSet
Validated: 1
EndChar

StartChar: grave
Encoding: 96 96 63
Width: 216
VWidth: 720
Flags: W
HStem: 400 89<16.4623 82.2581>
VStem: 10 197
LayerCount: 2
Fore
SplineSet
161 328 m 4
 151 328 140 331 132 339 c 4
 68 394 48 400 45 400 c 4
 24 405 10 424 10 445 c 4
 10 448 10 451 11 454 c 4
 15 475 34 489 55 489 c 4
 59 489 62 489 65 488 c 4
 95 482 132 457 191 407 c 4
 201 398 207 386 207 373 c 4
 207 363 203 352 195 343 c 4
 187 333 174 328 161 328 c 4
EndSplineSet
Validated: 1
EndChar

StartChar: a
Encoding: 97 97 64
Width: 435
VWidth: 720
Flags: W
HStem: -10 90<103.193 198.212> 0 90<340.718 418.749> 171 90<129.469 232.645>
AnchorPoint: "top" 165 259 basechar 0
AnchorPoint: "bottom" 148 -12 basechar 0
LayerCount: 2
Fore
SplineSet
135 -10 m 0xa0
 94 -10 59 3 37 28 c 0
 24 42 10 65 10 100 c 0
 10 109 11 118 13 129 c 0
 23 178 54 220 96 243 c 0
 117 254 140 260 165 261 c 0
 191 261 217 256 244 245 c 0
 261 238 272 221 272 204 c 0
 272 198 271 192 268 186 c 0
 266 181 263 177 260 173 c 1
 262 173 264 174 266 174 c 0
 282 174 298 165 306 151 c 0
 321 125 352 96 388 90 c 0
 410 86 426 67 426 45 c 0
 426 43 425 40 425 38 c 0
 421 16 403 0 381 0 c 0x60
 378 0 376 1 373 1 c 0
 333 7 299 27 273 51 c 1
 268 45 263 39 257 33 c 0
 233 12 202 -1 161 -8 c 0
 160 -8 159 -8 158 -8 c 0
 150 -9 143 -10 135 -10 c 0xa0
169 171 m 0
 158 171 148 168 138 163 c 0
 120 153 106 134 101 111 c 0
 100 106 98 94 103 89 c 0
 107 84 119 80 135 80 c 0xa0
 139 80 143 81 147 81 c 0
 196 89 203 103 220 137 c 0
 223 141 225 145 227 150 c 0
 229 153 231 156 233 159 c 1
 225 157 217 158 209 162 c 0
 195 168 181 171 169 171 c 0
EndSplineSet
Validated: 1
EndChar

StartChar: b
Encoding: 98 98 65
Width: 457
VWidth: 720
Flags: W
HStem: -19 21G<218 229.5> -8 90<260.563 348.86> 181 90<229.534 330.399>
LayerCount: 2
Fore
SplineSet
439 164 m 0xa0
 445 146 448 129 448 113 c 0
 448 96 444 81 437 66 c 0
 422 35 393 12 349 -3 c 0
 346 -3 344 -4 341 -4 c 0
 326 -7 312 -8 297 -8 c 0x60
 285 -8 272 -7 260 -6 c 1
 255 -11 249 -15 242 -17 c 0
 237 -18 232 -19 227 -19 c 0
 209 -19 191 -8 185 11 c 1
 180 12 174 14 169 16 c 0
 151 22 139 40 139 58 c 0
 139 63 140 68 142 73 c 0
 144 81 149 88 156 93 c 1
 114 204 66 309 16 397 c 0
 12 404 10 412 10 419 c 0
 10 435 18 450 33 458 c 0
 40 462 48 464 55 464 c 0
 71 464 86 456 94 441 c 0
 127 383 160 317 190 247 c 1
 210 262 233 270 256 271 c 2
 257 271 l 2
 295 271 333 261 366 244 c 0
 402 224 428 196 439 164 c 0xa0
356 105 m 0
 360 112 357 126 353 136 c 0
 350 145 339 156 323 164 c 0
 304 175 280 181 258 181 c 0
 247 180 236 171 228 157 c 1
 237 133 246 110 254 86 c 1
 269 84 283 82 297 82 c 0
 306 82 315 83 324 84 c 0
 341 90 353 98 356 105 c 0
EndSplineSet
Validated: 1
EndChar

StartChar: c
Encoding: 99 99 66
Width: 329
VWidth: 720
Flags: W
HStem: 8 90<119.513 235.885> 196 90<124.164 234.355>
VStem: 10 90<117.701 172.554>
LayerCount: 2
Fore
SplineSet
171 8 m 0
 128 8 80 29 47 62 c 0
 23 87 10 114 10 143 c 0
 10 144 10 145 10 146 c 0
 10 179 30 215 65 243 c 0
 85 258 107 270 129 278 c 0
 146 283 163 286 180 286 c 0
 189 286 198 285 207 283 c 0
 228 278 242 260 242 239 c 0
 242 235 242 232 241 229 c 0
 237 208 218 194 197 194 c 0
 193 194 190 194 187 195 c 0
 184 196 181 196 178 196 c 0
 163 196 142 188 125 175 c 0
 107 162 100 148 100 145 c 0
 100 144 100 144 100 144 c 0
 100 141 103 134 111 126 c 0
 127 110 152 98 171 98 c 0
 194 99 224 105 240 124 c 0
 249 135 262 141 275 141 c 0
 285 141 295 138 303 131 c 0
 314 122 320 109 320 96 c 0
 320 86 316 76 310 68 c 0
 295 50 276 35 252 25 c 0
 230 15 204 10 175 8 c 0
 174 8 173 8 173 8 c 0
 172 8 172 8 171 8 c 0
EndSplineSet
Validated: 1
EndChar

StartChar: d
Encoding: 100 100 67
Width: 347
VWidth: 720
Flags: W
HStem: -18 90<113.473 228.625> 168 87<116.719 200.672>
VStem: 10 90<83.0391 150.256> 141 90<357.801 441.535> 248 89<92.625 146.766>
LayerCount: 2
Fore
SplineSet
164 -18 m 0
 123 -18 87 -7 60 13 c 0
 28 37 10 73 10 114 c 0
 10 152 25 185 54 212 c 0
 77 233 107 248 142 255 c 0
 143 255 144 256 145 256 c 0
 157 257 168 258 180 258 c 0
 187 258 194 258 201 257 c 1
 197 266 192 275 188 284 c 0
 154 354 142 381 141 401 c 0
 141 402 141 402 141 403 c 0
 141 427 160 447 184 449 c 0
 185 449 185 449 186 449 c 0
 209 449 229 431 231 408 c 0
 234 396 254 354 269 323 c 0
 310 238 337 179 337 142 c 0
 337 141 337 140 337 138 c 0
 337 89 317 48 281 20 c 0
 251 -4 210 -17 165 -18 c 0
 164 -18 l 0
159 167 m 0
 131 161 100 143 100 114 c 0
 100 101 104 92 113 85 c 0
 123 78 139 72 158 72 c 0
 160 72 161 72 163 72 c 0
 186 73 248 85 248 132 c 0
 248 137 247 142 246 147 c 1
 238 149 230 153 224 159 c 0
 220 162 203 168 178 168 c 0
 172 168 166 168 159 167 c 0
EndSplineSet
Validated: 1
EndChar

StartChar: e
Encoding: 101 101 68
Width: 368
VWidth: 720
Flags: W
HStem: -26 90<121.469 291.902> 123 90<177 217.191> 216 90<183 217.616>
AnchorPoint: "top" 196 304 basechar 0
AnchorPoint: "bottom" 188 -27 basechar 0
LayerCount: 2
Fore
SplineSet
181 -26 m 0
 136 -26 93 -10 61 19 c 0
 29 48 10 88 10 130 c 0
 10 167 25 206 51 237 c 0
 82 273 126 296 178 305 c 0
 180 305 181 306 183 306 c 0
 187 306 191 306 194 306 c 0
 221 306 242 303 259 295 c 0
 285 284 303 264 309 239 c 0
 309 235 310 231 310 227 c 0
 309 210 307 184 292 162 c 0
 280 144 256 123 211 123 c 0
 210 123 209 123 208 123 c 2
 108 124 l 2
 106 124 103 124 100 124 c 1
 104 91 139 64 181 64 c 0
 230 64 267 71 291 85 c 0
 298 89 305 91 313 91 c 0
 329 91 344 82 352 68 c 0
 356 61 358 53 358 45 c 0
 358 30 350 15 335 6 c 0
 297 -15 246 -26 181 -26 c 0
177 213 m 1
 209 213 l 2
 214 213 216 213 218 214 c 0
 212 215 204 216 190 216 c 0
 186 215 181 214 177 213 c 1
EndSplineSet
Validated: 1
EndChar

StartChar: f
Encoding: 102 102 69
Width: 343
VWidth: 720
Flags: W
HStem: 16 21G<225 237> 120 102<253.421 315.625> 408 91<101.048 141.132>
VStem: 192 87<23.1742 90.495>
LayerCount: 2
Fore
SplineSet
300 208 m 0
 320 203 333 185 333 165 c 0
 333 161 333 157 332 153 c 0
 327 133 308 120 288 120 c 0
 285 120 281 120 277 121 c 0
 270 123 262 125 253 126 c 1
 261 111 269 95 275 78 c 0
 278 72 279 66 279 60 c 0
 279 43 268 27 251 20 c 0
 245 17 240 16 234 16 c 0
 216 16 199 27 192 44 c 0
 179 75 164 104 147 132 c 1
 136 131 125 130 114 129 c 0
 112 129 110 129 108 129 c 0
 86 129 66 145 63 168 c 0
 63 170 63 171 63 173 c 0
 63 192 74 209 91 215 c 1
 81 229 72 241 63 252 c 0
 59 259 54 264 50 270 c 0
 50 270 50 271 49 271 c 0
 39 286 25 310 17 339 c 0
 12 355 10 370 10 384 c 0
 10 398 12 411 16 423 c 0
 25 446 45 478 93 493 c 0
 94 493 l 0
 108 497 121 499 133 499 c 0
 177 499 211 474 230 429 c 0
 230 427 231 425 231 423 c 0
 233 414 234 406 234 398 c 0
 234 378 227 363 220 353 c 0
 209 337 186 316 139 310 c 0
 137 310 135 310 133 310 c 1
 133 309 134 308 135 307 c 0
 152 285 174 256 196 222 c 1
 234 221 269 216 300 208 c 0
101 393 m 0
 101 391 100 388 100 385 c 1
 107 393 117 398 128 400 c 0
 135 401 139 402 142 403 c 1
 140 406 139 408 138 408 c 0
 136 409 130 410 120 407 c 0
 104 402 102 396 101 393 c 0
EndSplineSet
Validated: 1
EndChar

StartChar: g
Encoding: 103 103 70
Width: 423
VWidth: 720
Flags: W
HStem: -7 90<100.514 212.455> 167 90<142.724 226.372>
VStem: 324 90<-281.507 -171.931>
LayerCount: 2
Fore
SplineSet
343 -374 m 0
 303 -374 242 -355 198 -336 c 0
 123 -303 87 -267 87 -226 c 0
 87 -199 107 -178 121 -164 c 0
 135 -152 154 -138 175 -126 c 0
 195 -113 243 -87 286 -81 c 1
 262 29 l 1
 229 6 187 -7 142 -7 c 0
 55 -7 10 48 10 103 c 0
 10 144 49 184 71 204 c 0
 94 224 139 257 186 257 c 0
 231 257 269 238 296 203 c 0
 316 177 330 143 338 102 c 2
 387 -120 l 1
 407 -194 414 -243 414 -278 c 0
 414 -316 405 -335 395 -348 c 0
 382 -365 364 -374 343 -374 c 0
186 -227 m 1
 197 -235 217 -246 248 -259 c 0
 277 -271 305 -278 324 -282 c 1
 324 -265 322 -232 306 -169 c 0
 305 -170 304 -170 302 -170 c 0
 293 -170 267 -177 232 -196 c 0
 211 -208 196 -219 186 -227 c 1
100 101 m 1
 103 90 119 83 142 83 c 0
 179 83 214 98 228 121 c 0
 230 125 232 128 235 131 c 0
 218 167 196 167 186 167 c 0
 179 167 160 160 137 141 c 0
 116 124 104 108 100 101 c 1
EndSplineSet
Validated: 1
EndChar

StartChar: h
Encoding: 104 104 71
Width: 479
VWidth: 720
Flags: W
HStem: 146 90<266.637 331.327>
LayerCount: 2
Fore
SplineSet
424 25 m 0
 408 25 392 33 384 49 c 0
 347 120 311 146 296 146 c 0
 296 146 296 146 295 146 c 0
 291 146 283 146 270 129 c 0
 258 113 246 89 234 54 c 0
 227 37 211 25 192 25 c 0
 192 25 191 25 190 25 c 0
 171 25 154 38 148 57 c 0
 110 188 74 266 20 334 c 0
 13 342 10 352 10 362 c 0
 10 376 16 389 27 398 c 0
 35 404 45 407 55 407 c 0
 68 407 81 402 90 390 c 0
 135 334 169 271 201 187 c 1
 212 201 224 212 238 220 c 0
 255 231 274 236 294 236 c 0
 295 236 l 0
 376 236 435 145 464 90 c 0
 468 83 469 76 469 69 c 0
 469 53 460 38 445 30 c 0
 438 26 431 25 424 25 c 0
EndSplineSet
Validated: 1
EndChar

StartChar: i
Encoding: 105 105 72
Width: 315
VWidth: 720
Flags: W
HStem: 255 20G<118 130> 335 88<55.9368 140.899> 343 90<16.4806 101.812>
VStem: 10 137<349.735 418.315>
LayerCount: 2
Fore
SplineSet
170 15 m 0x90
 158 15 136 19 119 46 c 0
 112 56 107 70 102 88 c 0
 94 115 86 156 75 223 c 0
 75 225 74 228 74 230 c 0
 74 251 90 270 112 274 c 0
 114 274 117 275 119 275 c 0
 141 275 160 259 164 237 c 0
 171 190 177 157 183 134 c 0
 185 123 187 115 189 109 c 1
 198 113 209 122 230 141 c 0
 239 149 250 153 261 153 c 0
 273 153 285 148 294 138 c 0
 302 130 306 119 306 109 c 0
 306 96 301 84 291 75 c 0
 251 39 222 15 170 15 c 0x90
102 335 m 0xd0
 98 335 93 336 88 337 c 0
 75 341 65 343 55 343 c 0
 30 343 10 363 10 388 c 0
 10 413 30 433 55 433 c 0xb0
 75 433 94 430 116 423 c 0
 135 417 147 399 147 380 c 0
 147 376 147 371 145 366 c 0
 139 347 121 335 102 335 c 0xd0
EndSplineSet
Validated: 1
EndChar

StartChar: j
Encoding: 106 106 73
Width: 326
VWidth: 720
Flags: W
HStem: -344 90<112.051 213.516> -143 90<111.89 177.698> 243 20G<128.5 140.5> 326 107<46.875 113.138>
VStem: 10 90<-240.496 -153.347> 22 116<349.938 409.01> 226 90<-242.302 -153>
LayerCount: 2
Fore
SplineSet
168 -344 m 0xfa
 128 -344 90 -331 61 -308 c 0
 28 -282 10 -245 10 -207 c 0
 10 -145 37 -108 59 -88 c 0
 85 -66 119 -53 152 -53 c 0
 156 -53 159 -53 162 -53 c 0
 167 -53 173 -53 178 -53 c 1
 177 -52 177 -50 176 -48 c 0
 139 41 98 141 85 210 c 0
 85 212 84 215 84 217 c 0
 84 239 99 258 121 262 c 0
 124 263 127 263 130 263 c 0
 151 263 170 248 174 226 c 0
 185 167 226 67 259 -14 c 0
 282 -71 303 -120 311 -151 c 0
 312 -152 312 -153 312 -153 c 0
 315 -166 316 -179 316 -192 c 0
 316 -228 305 -262 284 -289 c 0
 256 -324 214 -344 168 -344 c 0xfa
170 -143 m 0
 167 -143 165 -143 162 -143 c 0
 159 -143 156 -143 152 -143 c 0
 144 -143 100 -146 100 -207 c 0
 100 -232 132 -254 168 -254 c 0
 192 -254 206 -243 213 -233 c 0
 222 -222 226 -208 226 -193 c 0
 226 -187 225 -181 224 -175 c 0
 223 -168 220 -161 217 -152 c 1
 209 -152 201 -149 194 -144 c 0
 189 -143 179 -143 170 -143 c 0
190 -141 m 1
 190 -141 l 1
93 326 m 0
 84 326 75 328 68 334 c 2
 42 351 l 2
 29 360 22 374 22 388 c 0
 22 397 25 406 30 414 c 0
 39 426 53 433 67 433 c 0
 76 433 85 430 93 425 c 2
 118 408 l 2
 131 399 138 385 138 371 c 0xf6
 138 362 135 354 130 346 c 0
 122 333 107 326 93 326 c 0
EndSplineSet
Validated: 1
EndChar

StartChar: k
Encoding: 107 107 74
Width: 468
VWidth: 720
Flags: W
HStem: 0 21G<178 190> 195 90<195 273.798>
LayerCount: 2
Fore
SplineSet
446 46 m 0
 454 37 459 26 459 14 c 0
 459 2 454 -9 445 -18 c 0
 437 -27 425 -31 414 -31 c 0
 402 -31 390 -27 382 -18 c 0
 375 -10 347 8 245 22 c 0
 239 23 234 25 230 27 c 1
 224 15 213 4 199 1 c 0
 195 0 192 0 188 0 c 0
 168 0 149 13 144 34 c 0
 104 199 56 333 17 393 c 0
 12 401 10 409 10 417 c 0
 10 432 17 447 30 456 c 0
 38 461 46 463 54 463 c 0
 69 463 84 456 93 443 c 0
 116 406 141 351 166 279 c 1
 197 283 225 285 250 285 c 0
 285 285 315 281 341 275 c 0
 358 271 372 256 375 239 c 0
 375 236 376 232 376 228 c 0
 376 207 368 181 352 147 c 0
 345 132 336 116 326 99 c 1
 385 86 423 69 446 46 c 0
220 101 m 1
 248 141 265 172 275 194 c 1
 267 194 258 195 248 195 c 0
 232 195 214 194 195 192 c 1
 203 163 212 133 220 101 c 1
EndSplineSet
Validated: 1
EndChar

StartChar: l
Encoding: 108 108 75
Width: 299
VWidth: 720
Flags: W
HStem: 26 87<207.184 283.161>
VStem: 10 90<201.742 398.408>
LayerCount: 2
Fore
SplineSet
141 -12 m 0
 133 -12 124 -10 115 -8 c 0
 112 -7 109 -6 106 -5 c 0
 77 10 60 46 43 130 c 0
 33 183 22 255 10 355 c 0
 10 357 10 359 10 360 c 0
 10 383 27 402 50 405 c 0
 52 405 54 405 55 405 c 0
 77 405 97 388 100 365 c 0
 110 279 119 213 128 165 c 0
 137 116 145 92 150 80 c 1
 159 82 173 87 192 95 c 0
 203 100 215 105 229 110 c 0
 234 112 240 113 245 113 c 0
 263 113 280 102 287 84 c 0
 289 79 290 73 290 68 c 0
 290 50 279 33 261 26 c 0
 248 21 236 16 226 12 c 0
 194 -1 168 -12 141 -12 c 0
EndSplineSet
Validated: 1
EndChar

StartChar: m
Encoding: 109 109 76
Width: 489
VWidth: 720
Flags: W
HStem: -5 279<367 434> 243 20G<186.5 197.5>
VStem: 69 88<8.19629 105.576>
LayerCount: 2
Fore
SplineSet
434 -5 m 0xa0
 414 -5 395 9 390 30 c 0
 388 40 386 50 384 60 c 0
 377 90 371 121 363 147 c 0
 362 152 360 156 359 159 c 1
 355 154 351 149 347 143 c 0
 333 124 318 103 297 83 c 0
 289 75 277 70 265 70 c 0
 263 70 260 71 258 71 c 0
 244 73 232 83 225 96 c 0
 217 113 206 132 194 149 c 1
 192 144 190 139 188 132 c 0
 177 103 166 66 157 34 c 0
 152 14 134 2 113 2 c 0
 112 2 110 2 109 2 c 0
 88 4 71 22 69 44 c 0
 66 94 58 164 24 195 c 0
 15 204 10 216 10 228 c 0
 10 239 14 250 22 259 c 0
 31 268 43 273 55 273 c 0
 66 273 77 269 86 261 c 0
 101 247 114 229 123 210 c 1
 127 218 132 225 136 231 c 0
 156 258 179 263 194 263 c 0x60
 201 262 208 260 214 256 c 0
 234 245 255 219 272 194 c 1
 273 194 274 195 274 196 c 0
 295 224 316 253 348 269 c 0
 354 272 360 274 367 274 c 0
 374 274 380 272 386 269 c 0
 419 254 435 216 446 184 c 0
 456 152 464 115 472 79 c 0
 474 69 476 59 478 50 c 0
 479 46 479 43 479 39 c 0
 479 19 465 0 444 -4 c 0
 441 -5 437 -5 434 -5 c 0xa0
168 179 m 1
 168 179 l 1
EndSplineSet
Validated: 1
EndChar

StartChar: n
Encoding: 110 110 77
Width: 371
VWidth: 720
Flags: W
HStem: -25 298
VStem: 70 89<-18.2796 99.8515> 272 89<1.12633 139.846>
LayerCount: 2
Fore
SplineSet
114 -25 m 0
 93 -25 75 -10 70 11 c 0
 63 44 54 83 45 113 c 0
 33 151 25 160 24 161 c 0
 15 170 10 182 10 193 c 0
 10 205 14 216 23 224 c 0
 32 233 44 238 56 238 c 0
 66 238 77 234 86 226 c 0
 98 214 108 198 118 176 c 1
 120 180 122 184 125 188 c 0
 139 211 156 229 173 244 c 0
 194 260 215 270 238 273 c 0
 240 274 242 274 245 274 c 0
 260 274 284 268 304 239 c 0
 314 225 323 207 331 185 c 0
 344 147 355 97 361 45 c 0
 361 43 361 41 361 39 c 0
 361 17 345 -2 322 -5 c 0
 320 -6 318 -6 317 -6 c 0
 294 -6 275 11 272 34 c 0
 267 71 260 108 251 138 c 0
 245 158 240 170 236 178 c 1
 224 171 212 157 201 140 c 0
 180 107 165 63 159 14 c 0
 156 -7 138 -24 116 -25 c 0
 115 -25 115 -25 114 -25 c 0
EndSplineSet
Validated: 1
EndChar

StartChar: o
Encoding: 111 111 78
Width: 363
VWidth: 720
Flags: W
HStem: -19 90<121.879 240.978> 254 20G<211.5 232>
VStem: 10 90<92.0769 170.227> 264 90<94.1227 165.78>
AnchorPoint: "top" 181 284 basechar 0
AnchorPoint: "bottom" 179 -23 basechar 0
LayerCount: 2
Fore
SplineSet
179 -19 m 0
 140 -19 99 -5 68 20 c 0
 31 49 10 90 10 134 c 0
 10 173 31 212 67 243 c 0
 100 270 141 286 179 286 c 0
 191 286 202 281 210 273 c 0
 211 274 211 274 212 274 c 0
 214 274 215 274 216 274 c 0
 248 274 282 256 310 226 c 0
 338 195 354 159 354 125 c 0
 354 86 332 48 294 20 c 0
 261 -4 219 -19 179 -19 c 0
138 183 m 1
 133 180 129 177 125 173 c 0
 109 161 100 146 100 134 c 0
 100 95 146 71 179 71 c 0
 200 71 223 79 241 93 c 0
 255 103 264 115 264 125 c 0
 264 135 257 150 245 163 c 0
 235 175 225 181 219 183 c 0
 218 182 216 180 213 176 c 0
 204 165 191 159 178 159 c 0
 168 159 158 162 150 169 c 0
 145 173 141 178 138 183 c 1
216 184 m 1
 216 184 l 1
EndSplineSet
Validated: 1
EndChar

StartChar: p
Encoding: 112 112 79
Width: 362
VWidth: 720
Flags: W
HStem: -25 90<158.662 241.698> 188 90<119.19 239.037>
VStem: 92 89<-221.272 -47.192> 262 90<84.2666 166.064>
LayerCount: 2
Fore
SplineSet
147 278 m 0
 298 278 352 199 352 125 c 0
 352 89 335 51 304 21 c 0
 275 -8 240 -25 208 -25 c 2
 207 -25 l 2
 206 -25 205 -25 205 -25 c 0
 186 -25 171 -24 158 -22 c 1
 161 -45 165 -69 168 -93 c 0
 172 -120 176 -148 181 -176 c 0
 181 -178 181 -180 181 -182 c 0
 181 -204 165 -224 143 -227 c 0
 141 -228 138 -228 136 -228 c 0
 114 -228 95 -212 92 -190 c 0
 87 -162 83 -133 79 -106 c 0
 61 21 43 140 13 215 c 0
 11 221 10 226 10 232 c 0
 10 250 20 267 38 274 c 0
 43 276 49 277 54 277 c 0
 66 277 78 272 86 264 c 1
 105 273 125 278 147 278 c 0
241 85 m 0
 254 98 262 114 262 125 c 0
 262 143 256 156 241 166 c 0
 227 176 199 188 147 188 c 0
 132 188 123 182 119 180 c 1
 127 149 134 117 140 82 c 1
 151 72 162 65 204 65 c 0
 205 65 206 65 207 65 c 2
 208 65 l 2
 214 65 228 71 241 85 c 0
EndSplineSet
Validated: 1
EndChar

StartChar: q
Encoding: 113 113 80
Width: 436
VWidth: 720
Flags: W
HStem: -344 90<247.762 330.831> -166 90<252.332 323.185> -13 90<102.168 165.775> 236 20G<167.5 189.5 205 218>
VStem: 10 90<91.093 129.869> 154 90<-247.906 -167.846> 166 93<84.8445 100.297 101.612 158.114> 170 99<77.2437 158.114> 336 90<-249.677 -178.999>
LayerCount: 2
Fore
SplineSet
296 -344 m 0xfa80
 257 -344 224 -333 199 -314 c 0
 179 -297 154 -266 154 -211 c 0xfc80
 154 -173 158 -129 161 -82 c 0
 163 -59 165 -36 166 -12 c 1xfa80
 161 -13 156 -13 151 -13 c 0
 134 -13 75 -10 38 28 c 0
 19 47 10 70 10 96 c 0
 10 129 25 162 55 191 c 0
 93 230 147 256 188 256 c 0
 191 256 194 256 197 255 c 0
 200 256 203 256 207 256 c 0
 229 256 248 240 251 218 c 0
 254 197 256 176 258 154 c 1
 265 130 269 114 269 101 c 0xf980
 269 86 265 71 259 57 c 1
 258 11 255 -35 252 -78 c 1
 261 -77 271 -76 280 -76 c 0
 315 -76 352 -91 380 -117 c 0
 410 -144 426 -178 426 -212 c 0
 426 -246 414 -279 391 -303 c 0
 366 -330 332 -344 296 -344 c 0xfa80
245 -174 m 1
 245 -187 244 -200 244 -211 c 0
 244 -226 244 -254 296 -254 c 0
 322 -254 336 -233 336 -212 c 0
 336 -195 309 -166 280 -166 c 0
 265 -166 252 -171 245 -174 c 1
163 159 m 1
 149 153 133 142 119 128 c 0
 105 114 100 102 100 97 c 0
 100 96 100 96 100 96 c 0
 100 94 100 93 102 91 c 0
 109 84 128 77 151 77 c 0
 159 77 165 80 170 84 c 1xf980
 170 102 169 121 168 139 c 0
 167 146 165 153 163 159 c 1
EndSplineSet
Validated: 1
EndChar

StartChar: r
Encoding: 114 114 81
Width: 252
VWidth: 720
Flags: W
HStem: 166 96<149 217.247>
VStem: 60 88<56.4907 126.264>
LayerCount: 2
Fore
SplineSet
104 50 m 0
 84 50 66 63 60 83 c 0
 53 110 37 130 26 140 c 0
 15 148 10 161 10 174 c 0
 10 184 13 195 20 203 c 0
 29 214 42 219 55 219 c 0
 60 219 66 218 71 216 c 1
 77 229 86 239 99 248 c 0
 101 250 104 251 107 253 c 0
 120 258 141 262 163 262 c 0
 182 262 202 259 218 251 c 0
 233 243 242 227 242 211 c 0
 242 204 241 197 237 190 c 0
 229 175 214 166 198 166 c 0
 191 166 184 168 177 171 c 0
 172 173 159 172 149 171 c 0
 149 168 148 164 147 157 c 0
 147 153 147 148 147 144 c 0
 147 132 147 117 148 98 c 0
 148 97 148 95 148 94 c 0
 148 73 133 55 111 51 c 0
 109 50 106 50 104 50 c 0
177 171 m 1
 177 171 l 1
EndSplineSet
Validated: 1
EndChar

StartChar: s
Encoding: 115 115 82
Width: 297
VWidth: 720
Flags: W
HStem: -52 90<53.9228 186.275> 236 20G<131 143.5>
VStem: 10 278
LayerCount: 2
Fore
SplineSet
145 -52 m 0
 102 -52 61 -50 31 -20 c 0
 22 -12 18 0 18 12 c 0
 18 23 22 34 31 43 c 0
 40 52 52 57 63 57 c 0
 75 57 86 52 95 44 c 0
 99 40 116 38 145 38 c 0
 161 38 176 40 187 43 c 1
 183 46 178 49 172 53 c 0
 155 63 133 73 113 83 c 0
 91 93 71 103 55 113 c 0
 43 120 10 140 10 176 c 0
 10 186 13 206 35 222 c 0
 42 228 52 233 64 238 c 0
 83 246 107 252 123 255 c 0
 126 256 129 256 133 256 c 0
 154 256 173 242 177 220 c 0
 178 217 178 214 178 211 c 0
 178 191 164 173 144 168 c 1
 147 166 149 165 151 164 c 0
 179 151 208 137 232 121 c 0
 246 112 288 84 288 40 c 0
 288 23 281 -19 222 -40 c 0
 191 -51 158 -52 145 -52 c 0
EndSplineSet
Validated: 1
EndChar

StartChar: t
Encoding: 116 116 83
Width: 343
VWidth: 720
Flags: W
HStem: -29 90<147.125 231.925>
VStem: 65 90<230 361>
LayerCount: 2
Fore
SplineSet
326 55 m 0
 298 14 247 -29 186 -29 c 0
 156 -29 131 -23 111 -11 c 0
 84 5 66 31 58 66 c 0
 58 68 57 69 57 71 c 0
 56 82 55 94 55 106 c 1
 38 106 21 116 14 133 c 0
 11 139 10 145 10 151 c 0
 10 169 20 185 37 192 c 0
 44 195 52 198 59 201 c 1
 60 208 60 215 61 221 c 0
 63 252 65 282 65 306 c 0
 65 311 65 316 65 320 c 0
 65 321 65 322 65 324 c 0
 65 347 83 366 107 368 c 0
 108 368 108 368 109 368 c 0
 133 368 153 350 155 326 c 0
 155 321 155 316 155 310 c 0
 155 286 154 259 152 230 c 1
 177 236 204 241 234 246 c 0
 236 246 239 247 241 247 c 0
 263 247 282 231 285 208 c 0
 285 206 286 203 286 201 c 0
 286 180 270 161 247 157 c 0
 212 152 179 145 145 136 c 1
 145 117 145 99 147 83 c 0
 150 69 155 61 186 61 c 0
 207 61 234 79 251 105 c 0
 260 118 274 125 288 125 c 0
 297 125 306 122 314 117 c 0
 327 108 334 94 334 79 c 0
 334 71 331 62 326 55 c 0
EndSplineSet
Validated: 1
EndChar

StartChar: u
Encoding: 117 117 84
Width: 286
VWidth: 720
Flags: W
HStem: -24 90<132.466 178.033> 244 20G<190 201.5>
VStem: 10 90<108.492 230.408> 186 90<68.8242 186.877>
AnchorPoint: "top" 126 245 basechar 0
AnchorPoint: "bottom" 158 -29 basechar 0
LayerCount: 2
Fore
SplineSet
158 -24 m 0
 134 -24 111 -15 91 1 c 0
 75 13 60 31 48 53 c 0
 29 89 15 137 10 188 c 0
 10 189 10 191 10 192 c 0
 10 215 27 235 51 237 c 0
 53 237 55 237 56 237 c 0
 78 237 97 220 100 197 c 0
 108 116 139 66 158 66 c 0
 176 66 186 101 186 135 c 0
 186 154 174 178 168 184 c 0
 157 193 151 205 151 219 c 0
 151 228 155 238 161 247 c 0
 170 258 183 264 197 264 c 0
 206 264 216 261 224 255 c 0
 253 232 276 179 276 135 c 0
 276 40 229 -24 158 -24 c 0
169 184 m 1
 169 184 l 1
EndSplineSet
Validated: 1
EndChar

StartChar: v
Encoding: 118 118 85
Width: 288
VWidth: 720
Flags: W
HStem: 3 279<194.481 214.884> 232 20G<52 64>
VStem: 188 90<122.742 275.519>
LayerCount: 2
Fore
SplineSet
175 3 m 0xa0
 164 3 154 6 145 14 c 0
 121 35 36 136 14 189 c 0
 11 195 10 201 10 207 c 0
 10 225 20 241 37 248 c 0
 43 251 49 252 55 252 c 0x60
 73 252 89 241 96 225 c 0
 106 201 142 154 170 120 c 1
 182 149 188 189 188 237 c 0
 188 262 208 282 233 282 c 0
 258 282 278 262 278 237 c 0
 278 134 255 62 206 15 c 0
 197 7 186 3 175 3 c 0xa0
EndSplineSet
Validated: 1
EndChar

StartChar: w
Encoding: 119 119 86
Width: 380
VWidth: 720
Flags: W
HStem: 13 90<236.112 278.899> 238 20G<64 75.5 247.5 259>
VStem: 10 90<87.4109 212.672> 281 90<103.552 177.282>
LayerCount: 2
Fore
SplineSet
83 -25 m 0
 68 -25 54 -20 43 -10 c 0
 40 -8 37 -5 35 -2 c 0
 15 26 11 82 10 105 c 0
 10 109 10 114 10 119 c 0
 10 150 13 197 32 233 c 0
 40 249 56 258 72 258 c 0
 79 258 86 256 92 253 c 0
 108 245 117 229 117 213 c 0
 117 206 115 199 112 193 c 0
 105 177 100 151 100 121 c 0
 100 119 100 116 100 113 c 0
 100 103 101 94 102 86 c 1
 103 88 105 90 107 92 c 0
 120 111 130 134 133 156 c 0
 136 176 152 192 173 194 c 0
 174 194 176 194 177 194 c 0
 196 194 214 183 220 164 c 0
 238 113 248 103 259 103 c 0
 271 103 273 106 274 108 c 0
 276 110 281 118 281 138 c 0
 281 159 261 181 245 186 c 0
 225 192 212 210 212 229 c 0
 212 234 213 238 214 242 c 0
 220 262 238 274 257 274 c 0
 261 274 265 274 269 273 c 0
 296 265 321 248 340 224 c 0
 360 198 371 168 371 138 c 0
 371 61 328 13 259 13 c 0
 238 13 209 19 183 45 c 1
 162 12 134 -11 110 -20 c 0
 101 -23 92 -25 83 -25 c 0
110 48 m 1
 110 48 l 1
EndSplineSet
Validated: 1
EndChar

StartChar: x
Encoding: 120 120 87
Width: 377
VWidth: 720
Flags: W
VStem: 89 98<-1.88818 36>
LayerCount: 2
Fore
SplineSet
349 37 m 0
 341 31 331 28 322 28 c 0
 308 28 295 35 286 47 c 0
 269 70 249 93 227 116 c 1
 214 90 200 62 187 36 c 0
 183 27 179 19 175 11 c 0
 167 -5 151 -14 134 -14 c 0
 128 -14 121 -13 115 -10 c 0
 99 -2 89 14 89 30 c 0
 89 37 91 44 94 50 c 0
 98 59 102 67 106 75 c 0
 124 112 142 148 159 181 c 1
 149 191 139 200 130 207 c 1
 126 204 123 201 119 197 c 0
 109 186 101 173 99 163 c 0
 95 141 76 126 54 126 c 0
 52 126 49 127 47 127 c 0
 25 131 10 150 10 171 c 0
 10 174 10 177 11 180 c 0
 16 207 31 235 54 259 c 0
 67 273 94 297 126 304 c 0
 129 304 132 305 135 305 c 0
 145 305 154 302 162 296 c 0
 174 287 188 276 204 262 c 1
 222 291 239 315 255 332 c 0
 264 340 276 345 287 345 c 0
 298 345 310 340 319 332 c 0
 328 323 332 312 332 300 c 0
 332 288 328 277 319 268 c 0
 305 255 289 230 271 199 c 1
 303 168 335 133 359 100 c 0
 365 92 367 83 367 74 c 0
 367 60 361 46 349 37 c 0
EndSplineSet
Validated: 1
EndChar

StartChar: y
Encoding: 121 121 88
Width: 379
VWidth: 720
Flags: W
HStem: -475 88<168.785 278.662> 4 88<104.199 177.858> 92 2<111 112> 252 20G<62 73.5>
VStem: 10 90<95.2617 226.672> 30 85<151.733 264.982> 215 89<133.499 233.177> 279 91<-386.793 -312.078>
LayerCount: 2
Fore
SplineSet
275 -478 m 0xb1
 264 -478 254 -477 244 -476 c 0
 239 -476 234 -476 229 -475 c 0
 228 -475 228 -475 227 -475 c 0
 176 -470 137 -456 109 -433 c 0
 85 -413 70 -387 63 -353 c 0
 62 -350 62 -347 62 -344 c 0
 62 -266 157 -182 242 -158 c 1
 233 -95 226 -31 221 33 c 1
 194 15 157 4 107 4 c 0
 77 4 51 19 33 47 c 0
 12 81 10 126 10 150 c 0xd9
 10 187 18 222 30 247 c 0
 38 263 54 272 70 272 c 0
 77 272 84 270 90 267 c 0
 106 259 115 243 115 227 c 0xd4
 115 220 114 213 110 206 c 0
 105 196 100 174 100 147 c 0
 100 145 100 143 100 141 c 0
 101 115 107 100 110 94 c 1
 157 95 174 108 183 118 c 0
 199 137 208 170 215 204 c 0
 219 225 238 240 259 240 c 0
 260 240 262 240 263 240 c 0
 286 238 303 218 304 195 c 0xba
 305 117 312 -89 361 -309 c 0
 361 -310 361 -310 362 -311 c 0
 366 -334 370 -357 370 -379 c 0
 370 -407 364 -432 348 -451 c 0
 328 -473 301 -478 275 -478 c 0xb1
235 -386 m 0
 241 -386 246 -386 250 -387 c 0
 259 -387 272 -388 279 -388 c 1
 279 -386 279 -383 279 -379 c 0
 279 -369 278 -354 273 -329 c 0
 267 -302 262 -275 257 -247 c 1
 234 -256 210 -271 189 -289 c 0
 165 -311 155 -330 153 -341 c 1
 155 -351 160 -358 167 -364 c 0
 180 -375 204 -382 235 -386 c 0
111 92 m 1
 112 92 l 1
 111 92 l 1
EndSplineSet
Validated: 1
EndChar

StartChar: z
Encoding: 122 122 89
Width: 410
VWidth: 720
Flags: W
HStem: -391 90<141.34 288.36> -204 90<160.585 306.284> 188 91<17.2528 143.708>
LayerCount: 2
Fore
SplineSet
205 -391 m 0
 170 -391 130 -380 99 -360 c 0
 59 -334 36 -298 36 -259 c 0
 36 -222 61 -184 105 -154 c 0
 142 -129 184 -114 219 -114 c 0
 247 -114 277 -114 307 -122 c 1
 303 -105 298 -87 292 -71 c 0
 279 -38 264 -19 255 -12 c 0
 228 4 192 20 147 20 c 0
 136 20 124 19 112 17 c 0
 110 17 108 17 106 17 c 0
 91 17 78 23 69 35 c 0
 63 43 60 52 60 62 c 0
 60 69 61 75 64 81 c 0
 76 106 103 140 134 178 c 0
 137 183 141 187 145 192 c 1
 123 189 102 188 81 188 c 0
 71 188 61 188 51 189 c 0
 27 191 10 211 10 234 c 0
 10 235 10 237 10 238 c 0
 12 262 32 279 55 279 c 0
 56 279 58 279 59 279 c 0
 68 278 77 278 86 278 c 0
 132 278 182 288 231 306 c 0
 236 308 242 309 247 309 c 0
 258 309 268 305 277 297 c 0
 286 289 292 277 292 265 c 0
 292 261 291 257 290 253 c 0
 282 221 252 182 204 122 c 0
 200 117 196 112 192 107 c 1
 238 99 274 81 301 65 c 0
 302 65 303 64 304 64 c 0
 340 40 363 -5 376 -38 c 0
 392 -78 401 -123 401 -160 c 0
 401 -200 398 -231 393 -257 c 0
 387 -288 377 -313 361 -333 c 0
 321 -385 257 -391 205 -391 c 0
126 -259 m 0
 127 -266 135 -276 147 -284 c 0
 164 -295 187 -301 205 -301 c 0
 264 -301 282 -289 290 -278 c 0
 299 -267 305 -248 308 -220 c 0
 306 -219 304 -218 303 -217 c 0
 286 -205 257 -204 219 -204 c 0
 206 -204 182 -211 158 -227 c 0
 136 -241 127 -255 126 -259 c 0
EndSplineSet
Validated: 1
EndChar

StartChar: braceleft
Encoding: 123 123 90
Width: 285
VWidth: 720
Flags: W
HStem: -120 90<156.947 229.766> 325 87<130.547 203.899>
VStem: 67 90<-28.762 56.6156>
LayerCount: 2
Fore
SplineSet
164 -120 m 0
 139 -120 113 -113 91 -92 c 0
 89 -89 86 -86 84 -83 c 0
 70 -61 67 -34 67 -13 c 0
 67 -5 67 2 68 8 c 0
 70 27 74 46 81 62 c 1
 72 65 62 67 52 68 c 0
 31 69 14 84 11 104 c 0
 10 107 10 110 10 113 c 0
 10 130 20 146 36 153 c 0
 60 164 79 179 90 189 c 1
 79 196 66 205 54 217 c 0
 34 238 23 263 23 289 c 0
 23 311 31 342 68 370 c 0
 88 385 116 399 151 410 c 0
 156 412 161 412 165 412 c 0
 184 412 202 400 208 382 c 0
 210 377 210 372 210 368 c 0
 210 349 198 331 180 325 c 0
 123 306 114 291 113 289 c 0
 114 280 134 267 145 260 c 0
 162 250 177 240 185 222 c 0
 185 221 186 220 186 218 c 0
 188 212 189 206 189 198 c 0
 189 179 181 155 154 127 c 1
 166 119 174 109 178 98 c 0
 181 91 183 83 183 76 c 0
 183 65 179 54 172 44 c 0
 165 33 159 16 157 -1 c 0
 156 -14 157 -24 159 -29 c 1
 161 -29 163 -30 166 -30 c 0
 179 -30 198 -24 215 -17 c 0
 220 -15 225 -15 230 -15 c 0
 249 -15 267 -26 273 -44 c 0
 275 -49 275 -54 275 -59 c 0
 275 -77 264 -95 246 -102 c 0
 226 -109 195 -120 164 -120 c 0
EndSplineSet
Validated: 1
EndChar

StartChar: bar
Encoding: 124 124 91
Width: 130
VWidth: 720
Flags: W
VStem: 10 90<65.9449 354.56> 31 89<-39.4378 249.438>
LayerCount: 2
Fore
SplineSet
75 -46 m 0x40
 53 -46 33 -28 31 -5 c 0x40
 21 96 13 221 10 315 c 0
 10 316 10 316 10 317 c 0
 10 341 30 361 54 361 c 0
 55 361 55 361 56 361 c 0
 79 361 99 342 100 318 c 0x80
 103 226 111 102 120 3 c 0
 120 1 120 -1 120 -2 c 0
 120 -24 103 -43 80 -46 c 0
 78 -46 77 -46 75 -46 c 0x40
EndSplineSet
Validated: 1
EndChar

StartChar: braceright
Encoding: 125 125 92
Width: 242
VWidth: 720
Flags: W
HStem: -112 90<72.0528 138.941> 323 94<19.625 111>
VStem: 10 202<329.472 394.528> 65 167<-88.8814 -29.898 156 211.464>
LayerCount: 2
Fore
SplineSet
110 -112 m 0xd0
 85 -112 65 -91 65 -67 c 0
 65 -42 85 -22 110 -22 c 2
 122 -22 132 -21 139 -21 c 1
 131 18 109 70 90 93 c 0
 84 101 80 111 80 121 c 0
 80 129 83 138 88 146 c 0
 90 149 92 152 94 154 c 1
 91 156 88 157 86 159 c 0
 72 167 64 182 64 197 c 0
 64 200 64 203 65 206 c 0
 72 245 89 281 103 310 c 0
 106 315 108 321 111 327 c 1
 97 327 80 327 65 324 c 0xd0
 61 323 58 323 54 323 c 0
 34 323 15 337 11 358 c 0
 10 361 10 364 10 367 c 0
 10 388 24 407 45 412 c 0
 64 416 84 417 99 417 c 0
 108 417 116 416 122 416 c 0
 170 412 186 399 192 395 c 0
 204 385 212 370 212 354 c 0xe0
 212 328 199 302 184 271 c 0
 178 257 171 243 165 227 c 1
 179 224 193 220 208 213 c 0
 223 205 232 189 232 172 c 0
 232 167 231 161 229 156 c 0
 219 132 200 120 185 111 c 1
 210 65 232 2 232 -43 c 0
 232 -64 221 -83 202 -95 c 0
 192 -101 181 -105 166 -108 c 0
 146 -111 125 -112 111 -112 c 2
 110 -112 110 -112 110 -112 c 0xd0
EndSplineSet
Validated: 1
EndChar

StartChar: asciitilde
Encoding: 126 126 94
AltUni2: 000303.ffffffff.0
Width: 303
Flags: W
HStem: 144 90<164.513 232.086> 164 89<81.9844 163.999>
VStem: 10 284<174.331 218.063>
AnchorPoint: "top" 150 137 mark 0
LayerCount: 2
Fore
SplineSet
55 134 m 0x60
 43 134 31 138 22 148 c 0
 14 157 10 168 10 178 c 0
 10 190 15 202 24 211 c 0
 25 212 26 213 27 214 c 0
 46 231 69 253 109 253 c 0x60
 124 253 141 250 162 242 c 0
 163 242 164 242 164 241 c 0
 175 236 183 234 190 234 c 0
 200 234 208 238 218 247 c 0
 227 255 238 259 248 259 c 0
 261 259 273 254 282 244 c 0
 290 235 294 224 294 214 c 0
 294 201 289 189 279 180 c 0
 255 159 231 147 204 144 c 0
 200 144 196 144 192 144 c 0xa0
 172 144 151 148 127 159 c 0
 115 164 109 164 107 164 c 0
 103 162 96 155 89 149 c 0
 88 148 87 147 86 146 c 0
 77 138 66 134 55 134 c 0x60
EndSplineSet
Validated: 1
EndChar

StartChar: exclamdown
Encoding: 161 161 95
Width: 191
Flags: W
HStem: 174 103<24.5 86.6711>
VStem: 10 99<186.817 263.665> 46 90<-63.2121 115.092>
LayerCount: 2
Fore
SplineSet
136 -185 m 0xa0
 118 -185 102 -175 94 -157 c 0
 69 -96 52 -16 46 74 c 0
 46 75 46 76 46 78 c 0
 46 101 64 121 88 122 c 0
 89 122 90 122 91 122 c 0
 114 122 134 104 136 81 c 0
 141 1 156 -72 178 -123 c 0
 180 -128 181 -134 181 -140 c 0
 181 -157 171 -174 153 -182 c 0
 148 -184 142 -185 136 -185 c 0xa0
63 174 m 0
 48 174 34 181 25 195 c 2
 17 208 l 2
 12 216 10 224 10 232 c 0
 10 247 17 262 31 270 c 0
 38 275 47 277 55 277 c 0
 70 277 85 270 93 256 c 2
 102 242 l 2
 106 235 109 227 109 219 c 0xc0
 109 204 101 189 87 180 c 0
 80 176 72 174 63 174 c 0
EndSplineSet
Validated: 1
EndChar

StartChar: cent
Encoding: 162 162 96
Width: 295
Flags: W
HStem: 30 171<126.645 202.743> 135 87<214.702 278.826> 277 91<173.375 226.883> 462 20G<114 125.5>
VStem: 10 90<206.616 266.362> 69 90<429.14 474.816> 120 90<36.6907 117.406>
LayerCount: 2
Fore
SplineSet
258 135 m 0x78
 243 129 229 124 214 120 c 1
 210 71 l 2
 208 47 188 30 165 30 c 0
 164 30 162 30 161 30 c 0
 137 32 120 52 120 75 c 0
 120 76 120 78 120 79 c 2
 123 112 l 1
 101 115 82 122 65 134 c 0
 63 135 62 136 60 138 c 0
 37 159 20 189 13 220 c 0
 11 230 10 240 10 250 c 0xba
 10 271 14 290 23 306 c 0
 24 307 25 309 25 310 c 0
 42 334 64 348 89 357 c 1
 80 379 75 403 70 429 c 0
 70 432 69 434 69 437 c 0
 69 459 85 477 107 481 c 0
 110 482 113 482 115 482 c 0
 136 482 155 466 159 445 c 0xb4
 169 390 176 377 193 368 c 0
 194 368 194 367 195 367 c 0
 217 364 234 345 234 322 c 0
 234 321 234 321 234 320 c 0
 233 297 213 277 190 277 c 0
 189 277 189 277 188 277 c 0
 181 277 175 277 169 277 c 0
 133 277 110 272 101 261 c 0
 100 259 100 255 100 251 c 0
 100 239 104 221 118 207 c 1
 125 203 135 201 149 201 c 0xb8
 168 201 193 206 223 218 c 0
 229 221 235 222 241 222 c 0
 258 222 275 211 282 194 c 0
 285 188 286 183 286 177 c 0
 286 159 275 142 258 135 c 0x78
EndSplineSet
Validated: 1
EndChar

StartChar: sterling
Encoding: 163 163 97
Width: 360
Flags: W
HStem: -24 89<219.173 343.682> -17 91<167.774 321.511> 134 90<166 260.75> 282 105<133.467 207.521>
VStem: 78 90<71.3671 117>
LayerCount: 2
Fore
SplineSet
350 14 m 0xb8
 346 -8 327 -24 305 -24 c 0xb8
 303 -24 301 -24 298 -23 c 0
 270 -19 243 -17 218 -17 c 0
 178 -17 142 -22 110 -33 c 0
 105 -34 100 -35 96 -35 c 0
 81 -35 67 -28 59 -15 c 0
 53 -7 51 1 51 10 c 0
 51 20 54 31 61 39 c 0
 73 54 78 74 78 96 c 0
 78 103 78 110 77 117 c 1
 75 116 73 116 73 116 c 0
 69 115 66 114 63 114 c 0
 42 114 24 128 19 149 c 0
 18 152 18 156 18 159 c 0
 18 178 30 196 49 202 c 1
 41 216 32 228 23 237 c 0
 15 246 10 257 10 269 c 0
 10 273 11 278 12 282 c 0
 27 333 63 370 109 383 c 0
 120 386 130 387 141 387 c 0
 169 387 195 377 214 360 c 0
 223 351 228 339 228 327 c 0
 228 316 224 305 216 296 c 0
 207 287 195 282 183 282 c 0
 173 282 162 286 153 294 c 0
 151 296 143 299 133 296 c 0
 126 294 116 289 108 277 c 1
 120 260 131 240 141 219 c 1
 166 223 184 224 198 224 c 0
 219 224 230 221 239 219 c 0
 257 213 269 195 269 176 c 0
 269 171 269 166 267 161 c 0
 261 142 242 131 223 131 c 0
 219 131 214 132 210 133 c 0
 209 134 205 134 197 134 c 0
 190 134 180 134 166 132 c 1
 168 120 168 109 168 98 c 0
 168 88 168 80 167 71 c 1
 183 73 200 74 216 74 c 0x78
 247 74 279 71 312 65 c 0
 335 62 351 43 351 21 c 0
 351 19 350 16 350 14 c 0xb8
EndSplineSet
Validated: 1
EndChar

StartChar: currency
Encoding: 164 164 98
Width: 394
Flags: W
HStem: -3 3G<49.5 61 301 312.5> 46 90<152.481 243.665> 203 95<161.235 236.529> 351 20G<65 76.5>
VStem: 60 90<139.521 196.115> 253 90<144.83 193.488>
LayerCount: 2
Fore
SplineSet
382 319 m 0
 384 314 385 308 385 303 c 0
 385 285 374 268 356 261 c 0
 350 259 340 248 330 238 c 0
 327 236 325 233 322 231 c 0
 336 211 343 189 343 165 c 0
 343 140 336 118 322 100 c 1
 350 44 l 2
 353 38 355 31 355 24 c 0
 355 8 345 -8 329 -16 c 0
 323 -20 316 -21 309 -21 c 0
 293 -21 277 -12 269 4 c 2
 245 52 l 1
 228 48 208 46 185 46 c 0
 184 46 183 46 182 46 c 0
 163 47 146 52 130 59 c 1
 89 12 l 2
 80 2 67 -3 55 -3 c 0
 44 -3 34 1 25 9 c 0
 15 18 10 30 10 42 c 0
 10 53 14 64 21 72 c 2
 69 125 l 1
 63 140 60 157 60 174 c 0
 60 199 67 221 79 240 c 1
 72 256 57 277 40 293 c 0
 31 302 26 314 26 325 c 0
 26 337 31 348 39 357 c 0
 48 366 59 371 71 371 c 0
 82 371 93 367 102 358 c 0
 123 338 141 315 154 292 c 1
 159 294 165 295 171 297 c 0
 175 298 178 298 182 298 c 0
 190 298 197 296 203 292 c 1
 219 292 235 290 249 285 c 1
 255 290 260 295 265 300 c 0
 283 319 299 336 324 345 c 0
 329 347 335 348 340 348 c 0
 358 348 375 337 382 319 c 0
244 147 m 0
 249 151 253 155 253 165 c 0
 253 175 247 184 237 192 c 0
 227 199 214 203 201 203 c 0
 193 203 186 202 178 199 c 0
 172 197 166 196 161 196 c 0
 150 189 150 180 150 174 c 0
 150 166 150 139 187 136 c 0
 221 136 237 143 244 147 c 0
EndSplineSet
Validated: 1
EndChar

StartChar: yen
Encoding: 165 165 99
Width: 306
Flags: W
HStem: 359 20G<247.5 259.5>
VStem: 10 90<297.33 390.591> 107 90<-29.7105 33.718> 204 92<295.377 371.14>
LayerCount: 2
Fore
SplineSet
235 39 m 0
 224 38 213 37 201 36 c 1
 200 24 200 11 197 -1 c 0
 191 -25 171 -36 151 -36 c 0
 129 -36 107 -22 107 4 c 0
 107 5 107 5 107 6 c 0
 107 8 108 13 108 15 c 0
 109 21 110 28 110 34 c 1
 97 35 84 37 72 40 c 0
 52 45 38 63 38 83 c 0
 38 87 38 90 39 94 c 0
 41 106 49 116 59 122 c 1
 48 130 42 144 42 157 c 0
 42 161 43 166 44 170 c 0
 50 190 68 203 87 203 c 0
 92 203 96 202 100 201 c 1
 85 209 70 220 58 233 c 0
 30 264 13 305 10 349 c 0
 10 350 10 350 10 351 c 0
 10 382 32 397 55 397 c 0
 76 397 98 383 100 355 c 0
 102 331 110 310 124 294 c 0
 135 282 148 276 162 276 c 0
 175 276 188 282 198 295 c 0
 205 303 208 314 205 325 c 0
 204 328 204 331 204 334 c 0
 204 355 219 374 240 378 c 0
 243 379 246 379 249 379 c 0
 270 379 289 364 294 343 c 0
 296 335 296 326 296 318 c 0
 296 289 287 261 268 238 c 0
 262 230 254 222 245 216 c 1
 254 211 262 204 267 194 c 0
 270 188 271 182 271 175 c 0
 271 158 262 142 245 134 c 0
 241 132 237 131 232 129 c 1
 261 127 276 105 276 83 c 0
 276 63 262 42 235 39 c 0
EndSplineSet
Validated: 1
EndChar

StartChar: brokenbar
Encoding: 166 166 100
Width: 205
Flags: W
VStem: 10 83<335.043 390.355> 79 116<27.7644 128.698> 106 89<-56.5413 114.545>
LayerCount: 2
Fore
SplineSet
101 185 m 0x80
 81 185 62 199 57 220 c 0
 45 269 32 305 17 328 c 0
 12 335 10 344 10 352 c 0
 10 367 17 382 31 390 c 0
 38 395 47 397 55 397 c 0
 70 397 85 390 93 376 c 0
 113 344 130 301 145 241 c 0
 146 237 146 234 146 230 c 0
 146 210 132 192 112 187 c 0
 108 186 104 185 101 185 c 0x80
150 -63 m 0
 127 -63 107 -45 106 -21 c 0x20
 102 33 92 93 81 124 c 0
 79 129 79 133 79 138 c 0x40
 79 157 91 175 109 181 c 0
 114 183 119 183 124 183 c 0
 143 183 160 172 166 153 c 0
 180 115 191 47 195 -15 c 0
 195 -16 195 -17 195 -19 c 0x20
 195 -42 177 -61 153 -63 c 0
 152 -63 151 -63 150 -63 c 0
EndSplineSet
Validated: 1
EndChar

StartChar: section
Encoding: 167 167 101
Width: 380
Flags: W
HStem: -162 91<132.697 273.333> 292 90<118.062 199.749>
LayerCount: 2
Fore
SplineSet
348 5 m 0
 362 -9 370 -26 370 -45 c 0
 370 -75 358 -101 336 -121 c 0
 315 -139 287 -152 252 -158 c 0
 236 -161 218 -162 200 -162 c 0
 188 -162 176 -161 165 -160 c 0
 142 -157 125 -138 125 -116 c 0
 125 -115 125 -113 125 -111 c 0
 128 -88 147 -71 170 -71 c 0
 171 -71 173 -71 175 -71 c 0
 183 -72 192 -72 200 -72 c 0
 231 -72 260 -66 274 -56 c 1
 272 -55 269 -54 266 -53 c 0
 253 -49 237 -46 221 -42 c 0
 192 -35 162 -28 137 -18 c 0
 86 5 75 38 75 62 c 0
 75 95 88 130 111 160 c 1
 98 162 85 165 74 168 c 0
 18 185 10 221 10 241 c 0
 10 277 27 311 57 337 c 0
 82 359 116 374 154 381 c 0
 157 381 159 382 162 382 c 0
 184 382 202 366 206 344 c 0
 206 342 207 339 207 337 c 0
 207 315 191 296 169 292 c 0
 137 287 111 271 103 253 c 1
 106 253 110 252 115 251 c 0
 130 248 147 246 165 244 c 0
 195 240 227 236 253 228 c 0
 312 209 320 170 320 149 c 0
 320 118 312 85 298 56 c 0
 294 49 290 42 286 35 c 1
 295 32 305 29 313 26 c 0
 328 20 339 13 348 5 c 0
221 135 m 0
 199 129 170 97 166 69 c 0
 169 67 175 64 186 60 c 1
 212 76 227 110 230 139 c 1
 227 137 224 136 221 135 c 0
EndSplineSet
Validated: 1
EndChar

StartChar: dieresis
Encoding: 168 168 102
AltUni2: 000308.ffffffff.0
Width: 290
Flags: W
HStem: 294 106<32.1428 103.5> 303 106<194.25 259.75>
VStem: 10 117<316.33 377.142> 174 106<323.25 388.75>
AnchorPoint: "top" 160 296 mark 0
LayerCount: 2
Fore
SplineSet
81 294 m 0xb0
 74 294 66 296 59 300 c 2
 32 316 l 2
 18 325 10 340 10 355 c 0
 10 363 12 371 16 378 c 0
 25 392 39 400 54 400 c 0
 62 400 70 397 78 393 c 2
 104 378 l 2
 119 369 127 355 127 339 c 0
 127 332 124 323 120 316 c 0
 112 302 97 294 81 294 c 0xb0
235 303 m 0x70
 223 303 212 307 203 316 c 2
 187 332 l 2
 178 341 174 352 174 364 c 0
 174 376 178 387 187 396 c 0
 196 404 207 409 219 409 c 0
 230 409 242 404 251 396 c 2
 267 380 l 2
 276 371 280 360 280 348 c 0
 280 336 276 325 267 316 c 0
 258 307 247 303 235 303 c 0x70
EndSplineSet
Validated: 1
EndChar

StartChar: copyright
Encoding: 169 169 103
Width: 535
Flags: W
HStem: -64 90<177.844 352.631> 43 90<213.478 292.074> 253 90<232.518 333.65> 385 101<202.884 337.244>
VStem: 10 90<98.1787 272.794> 118 90<138.443 236.544> 436 90<104.632 278.534>
LayerCount: 2
Fore
SplineSet
268 -64 m 0
 198 -64 134 -41 87 1 c 0
 37 44 10 106 10 175 c 0
 10 215 18 257 34 295 c 0
 51 339 78 378 111 407 c 0
 130 424 151 438 174 449 c 1
 177 470 196 486 218 486 c 0
 248 486 277 482 305 475 c 0
 316 474 329 473 341 472 c 0
 358 470 371 459 377 444 c 1
 400 431 420 416 439 397 c 0
 495 341 526 265 526 183 c 0
 526 117 499 54 452 8 c 0
 403 -38 338 -64 268 -64 c 0
291 385 m 1
 243 384 202 369 170 340 c 0
 118 294 100 224 100 175 c 0
 100 87 169 26 268 26 c 0
 362 26 436 95 436 183 c 0
 436 279 377 357 291 385 c 1
252 43 m 0
 208 43 176 54 152 77 c 0
 129 100 118 134 118 176 c 0
 118 231 137 277 174 308 c 0
 201 331 235 343 272 343 c 0
 283 343 293 342 304 340 c 0
 326 336 342 318 342 296 c 0
 342 293 341 291 341 288 c 0
 337 267 318 251 297 251 c 0
 295 251 292 251 289 252 c 0
 284 253 279 253 274 253 c 0
 257 253 243 248 232 239 c 0
 216 226 208 204 208 176 c 0
 208 159 210 146 216 141 c 0
 221 136 234 133 252 133 c 0
 279 133 284 140 291 153 c 0
 300 167 315 175 330 175 c 0
 338 175 346 172 353 168 c 0
 367 159 375 144 375 129 c 0
 375 121 372 113 368 106 c 0
 350 77 321 43 252 43 c 0
EndSplineSet
Validated: 1
EndChar

StartChar: ordfeminine
Encoding: 170 170 104
Width: 428
Flags: W
HStem: 231 90<102.086 165.984> 384 89<140.846 209>
LayerCount: 2
Fore
SplineSet
111 231 m 0
 106 231 101 231 97 232 c 0
 74 234 53 243 38 257 c 0
 19 274 10 297 10 321 c 0
 10 329 11 337 13 345 c 0
 14 347 15 349 15 351 c 0
 45 419 126 473 199 473 c 0
 219 473 236 460 242 442 c 1
 245 443 248 443 251 443 c 0
 262 443 272 439 281 431 c 0
 321 396 352 376 391 359 c 0
 408 352 419 336 419 319 c 0
 419 313 418 307 415 301 c 0
 407 283 390 273 373 273 c 0
 367 273 361 274 356 276 c 0
 329 288 304 301 279 318 c 1
 274 310 267 303 258 295 c 0
 237 276 207 259 166 242 c 0
 166 242 165 242 165 242 c 0
 147 235 128 231 111 231 c 0
102 322 m 1
 104 322 106 321 109 321 c 0
 115 321 123 322 133 326 c 0
 163 338 185 350 198 362 c 0
 212 374 210 379 209 383 c 0
 209 383 209 384 208 384 c 0
 206 383 202 383 199 383 c 0
 164 383 120 355 102 322 c 1
EndSplineSet
Validated: 1
EndChar

StartChar: guillemotleft
Encoding: 171 171 105
Width: 486
Flags: W
HStem: -19 21G<425.5 437>
LayerCount: 2
Fore
SplineSet
207 -30 m 0
 193 -30 179 -23 170 -11 c 0
 134 39 82 75 31 106 c 0
 19 114 10 128 10 143 c 0
 10 158 17 172 29 181 c 0
 67 207 107 246 150 297 c 0
 159 308 172 313 185 313 c 0
 195 313 205 310 214 303 c 0
 224 294 230 281 230 269 c 0
 230 258 226 248 219 239 c 0
 189 204 160 173 132 148 c 1
 172 119 211 86 243 42 c 0
 249 34 252 25 252 16 c 0
 252 1 245 -13 233 -21 c 0
 225 -27 216 -30 207 -30 c 0
432 -19 m 0
 419 -19 406 -14 397 -3 c 0
 362 39 312 83 263 116 c 0
 251 124 243 138 243 153 c 0
 243 154 243 155 243 156 c 0
 244 172 254 186 268 193 c 0
 321 220 359 248 380 276 c 0
 388 288 402 294 416 294 c 0
 425 294 435 291 443 285 c 0
 454 276 460 262 460 249 c 0
 460 239 458 230 452 222 c 0
 432 196 405 172 370 148 c 1
 406 119 440 86 466 55 c 0
 473 46 477 36 477 25 c 0
 477 13 471 -0 461 -9 c 0
 452 -16 442 -19 432 -19 c 0
EndSplineSet
Validated: 1
EndChar

StartChar: logicalnot
Encoding: 172 172 106
Width: 359
Flags: W
HStem: 8 21G<294.5 306.5> 182 95<20.3439 249>
VStem: 249 90<53.1406 184>
LayerCount: 2
Fore
SplineSet
305 8 m 0
 284 8 265 23 261 44 c 0
 253 84 249 125 249 169 c 0
 249 174 249 179 249 184 c 1
 224 183 197 182 169 182 c 0
 133 182 93 184 51 187 c 0
 28 189 10 209 10 232 c 0
 10 234 10 235 10 236 c 0
 12 259 32 277 55 277 c 0
 57 277 58 277 59 277 c 0
 97 274 132 273 166 273 c 0
 203 273 238 274 271 275 c 0
 279 276 287 276 294 276 c 0
 295 276 296 276 297 276 c 0
 309 276 320 271 328 262 c 0
 336 254 341 243 341 231 c 0
 341 230 341 229 341 228 c 0
 339 208 339 188 339 170 c 0
 339 131 342 96 349 62 c 0
 350 59 350 56 350 53 c 0
 350 32 335 13 314 9 c 0
 311 9 308 8 305 8 c 0
EndSplineSet
Validated: 1
EndChar

StartChar: registered
Encoding: 174 174 107
Width: 596
Flags: W
HStem: -69 90<216.134 379.961> 254 89<235.845 300.527> 466 20G<312.5 337>
VStem: 10 90<125.362 292.297> 151 249<106.887 300.875> 496 90<126.405 282.302>
LayerCount: 2
Fore
SplineSet
478 406 m 0
 549 357 586 285 586 198 c 0
 586 132 553 63 495 11 c 0
 438 -40 364 -69 292 -69 c 0
 233 -69 165 -41 108 6 c 0
 79 30 56 58 39 87 c 0
 20 121 10 157 10 192 c 0
 10 285 40 357 99 407 c 0
 127 431 161 449 201 462 c 0
 207 464 213 466 220 468 c 0
 228 474 238 477 249 476 c 0
 250 476 252 476 253 476 c 0
 276 481 300 484 325 486 c 0
 326 486 327 486 327 486 c 0
 347 486 365 473 371 455 c 1
 412 443 448 427 478 406 c 0
435 78 m 0
 474 113 496 157 496 198 c 0
 496 256 473 299 427 332 c 0
 386 360 328 379 259 385 c 1
 216 375 183 360 158 339 c 0
 119 306 100 258 100 192 c 0
 100 160 116 126 145 95 c 1
 145 98 145 102 146 106 c 0
 149 129 151 152 151 173 c 0
 151 218 144 257 138 285 c 0
 137 289 137 292 137 296 c 0
 137 316 151 335 172 339 c 0
 181 341 189 340 197 337 c 0
 200 338 202 339 205 339 c 0
 224 342 243 343 260 343 c 0
 308 343 349 332 373 311 c 0
 390 296 400 277 400 255 c 0
 400 237 393 218 380 201 c 0
 371 190 360 180 347 170 c 1
 364 160 378 150 388 140 c 0
 396 131 400 120 400 109 c 0
 400 97 395 85 386 76 c 0
 377 68 366 64 355 64 c 0
 343 64 331 69 322 78 c 0
 315 85 283 104 238 116 c 1
 237 108 236 100 235 92 c 0
 231 72 215 56 195 54 c 1
 228 34 263 21 292 21 c 0
 342 21 394 42 435 78 c 0
235 253 m 1
 237 239 239 225 240 210 c 1
 254 218 270 226 283 235 c 0
 291 240 297 245 301 249 c 1
 291 251 275 254 255 254 c 0
 249 254 242 253 235 253 c 1
EndSplineSet
Validated: 1
EndChar

StartChar: macron
Encoding: 175 175 108
Width: 451
Flags: W
HStem: 338 89<16.5391 300.698> 352 90<144.162 435.519>
LayerCount: 2
Fore
SplineSet
55 338 m 0x80
 33 338 13 354 10 377 c 0
 10 379 10 381 10 382 c 0
 10 405 27 424 49 427 c 0x80
 141 439 294 442 397 442 c 0
 422 442 442 422 442 397 c 0
 442 372 422 352 397 352 c 0x40
 288 352 142 348 61 338 c 0
 59 338 57 338 55 338 c 0x80
EndSplineSet
Validated: 1
EndChar

StartChar: degree
Encoding: 176 176 109
AltUni2: 00030a.ffffffff.0
Width: 312
Flags: W
HStem: 203 90<102.005 196.223> 465 20G<126.5 161>
VStem: 10 90<297.612 344.434> 212 90<308.257 383.061>
AnchorPoint: "top" 153 199 mark 0
LayerCount: 2
Fore
SplineSet
142 203 m 0
 109 203 68 208 39 235 c 0
 20 254 10 280 10 313 c 0
 10 357 43 403 94 436 c 0
 94 437 94 438 94 440 c 0
 94 464 114 485 139 485 c 0
 183 485 221 475 249 457 c 0
 283 435 302 403 302 365 c 0
 302 323 291 288 270 260 c 0
 244 227 205 208 154 203 c 0
 153 203 152 203 151 203 c 0
 148 203 145 203 142 203 c 0
196 384 m 1
 166 375 140 361 121 344 c 0
 104 327 100 315 100 313 c 0
 100 305 101 301 102 300 c 0
 102 300 109 293 141 293 c 0
 143 293 145 293 147 293 c 0
 193 298 212 319 212 365 c 0
 212 373 206 379 196 384 c 1
EndSplineSet
Validated: 1
EndChar

StartChar: plusminus
Encoding: 177 177 110
Width: 392
Flags: W
HStem: 82 90<273.622 375.947> 206 87<16.455 118.806> 250 90<264 373.287>
VStem: 146 89<336.938 424.968>
LayerCount: 2
Fore
SplineSet
383 127 m 0xb0
 383 102 363 82 338 82 c 0
 299 82 252 79 214 75 c 0
 150 69 133 60 132 59 c 0
 132 59 131 59 131 59 c 0
 124 54 115 52 107 52 c 0
 92 52 78 59 69 72 c 0
 64 80 62 88 62 97 c 0
 62 112 69 126 82 135 c 0
 94 143 118 154 184 162 c 1
 183 183 179 208 175 235 c 1
 134 227 97 218 69 208 c 0
 65 207 60 206 55 206 c 0xd0
 36 206 19 218 12 236 c 0
 10 241 10 246 10 250 c 0xb0
 10 270 22 287 41 293 c 0xd0
 71 304 112 314 159 323 c 1
 155 340 151 358 147 376 c 0
 146 380 146 383 146 387 c 0
 146 407 160 425 180 430 c 0
 184 431 187 431 191 431 c 0
 212 431 230 417 235 397 c 0
 240 376 244 356 248 336 c 1
 276 338 306 340 335 340 c 0
 359 340 380 320 380 295 c 0
 380 270 359 250 335 250 c 0
 311 250 288 249 264 247 c 1
 269 219 272 193 274 170 c 1
 296 171 318 172 338 172 c 0
 363 172 383 151 383 127 c 0xb0
EndSplineSet
Validated: 1
EndChar

StartChar: uni00B2
Encoding: 178 178 111
Width: 255
Flags: W
HStem: 209 90<151.395 239.272> 383 88<17.0178 82.3437>
VStem: 10 235
LayerCount: 2
Fore
SplineSet
193 209 m 0
 175 209 154 213 135 220 c 0
 112 228 80 245 64 277 c 0
 61 282 60 287 59 293 c 0
 58 297 58 301 58 305 c 0
 58 331 69 352 83 370 c 1
 69 373 55 378 40 383 c 0
 22 390 10 407 10 425 c 0
 10 431 11 436 13 441 c 0
 19 459 36 471 54 471 c 0
 60 471 65 470 70 468 c 0
 99 458 117 452 135 452 c 0
 146 452 157 454 170 459 c 0
 175 461 180 462 185 462 c 0
 198 462 212 455 221 443 c 0
 226 435 229 426 229 417 c 0
 229 408 226 398 220 390 c 0
 203 367 187 350 173 336 c 0
 162 324 155 317 151 311 c 1
 155 309 159 307 165 305 c 0
 179 299 191 298 194 299 c 0
 196 299 198 299 200 299 c 0
 223 299 242 284 245 261 c 0
 245 259 246 256 246 254 c 0
 246 232 230 213 208 210 c 0
 203 209 198 209 193 209 c 0
EndSplineSet
Validated: 1
EndChar

StartChar: uni00B3
Encoding: 179 179 112
Width: 243
Flags: W
HStem: 227 90<34.0667 128.156> 393 92<18.2376 84>
LayerCount: 2
Fore
SplineSet
145 219 m 0
 123 219 99 222 75 226 c 0
 72 226 69 227 66 227 c 0
 44 231 27 249 27 271 c 0
 27 273 28 276 28 278 c 0
 31 301 50 317 72 317 c 0
 74 317 77 316 79 316 c 0
 82 316 85 315 87 315 c 0
 102 313 116 311 129 310 c 1
 120 317 110 323 104 325 c 0
 87 331 76 346 74 363 c 0
 74 364 74 365 74 367 c 0
 74 377 78 387 84 395 c 1
 76 395 68 395 61 394 c 0
 59 394 56 393 54 393 c 0
 32 393 13 410 10 433 c 0
 10 435 10 437 10 438 c 0
 10 460 27 480 49 483 c 0
 61 484 74 485 88 485 c 0
 96 485 104 485 112 484 c 0
 145 481 167 474 182 461 c 0
 194 449 202 434 202 417 c 0
 202 417 202 416 202 415 c 0
 201 402 199 388 192 374 c 0
 194 372 196 371 197 369 c 0
 221 345 234 318 234 291 c 0
 234 270 225 252 211 239 c 0
 193 224 170 219 145 219 c 0
EndSplineSet
Validated: 1
EndChar

StartChar: acute
Encoding: 180 180 113
AltUni2: 000301.ffffffff.0
Width: 188
Flags: W
HStem: 296 176<55 134>
VStem: 10 168
AnchorPoint: "top" 56 291 mark 0
LayerCount: 2
Fore
SplineSet
55 296 m 0
 47 296 39 298 32 302 c 0
 18 311 10 326 10 342 c 0
 10 349 12 357 16 364 c 0
 40 403 63 434 108 464 c 0
 116 469 125 472 134 472 c 0
 148 472 162 465 171 452 c 0
 176 445 178 436 178 428 c 0
 178 413 171 399 158 390 c 0
 127 368 112 349 94 318 c 0
 85 304 70 296 55 296 c 0
EndSplineSet
Validated: 1
EndChar

StartChar: mu
Encoding: 181 181 114
Width: 430
Flags: W
HStem: -15 89<210.533 264.656> 231 20G<155 183>
VStem: 10 84<-176.23 -119.318> 121 89<201 244.61> 288 90<98.9915 218.994>
LayerCount: 2
Fore
SplineSet
55 -183 m 0
 48 -183 40 -181 33 -177 c 0
 18 -169 10 -154 10 -138 c 0
 10 -131 12 -123 16 -116 c 0
 67 -24 97 72 121 214 c 0
 125 236 144 251 166 251 c 0
 168 251 170 251 172 251 c 0
 194 247 210 228 210 206 c 0
 210 205 210 203 210 201 c 0
 208 182 207 165 207 150 c 0
 207 115 211 89 214 74 c 1
 219 74 228 75 242 77 c 1
 270 90 286 126 288 183 c 0
 290 207 309 226 333 226 c 0
 333 226 334 226 334 226 c 0
 358 226 378 206 378 182 c 0
 380 124 390 85 408 66 c 0
 416 57 420 46 420 35 c 0
 420 23 415 11 406 2 c 0
 397 -6 386 -9 375 -9 c 0
 363 -9 351 -5 342 5 c 0
 336 12 330 19 325 28 c 1
 307 9 288 -2 270 -9 c 0
 267 -10 264 -10 261 -11 c 0
 246 -13 230 -15 214 -15 c 0
 208 -15 201 -15 195 -14 c 0
 182 -12 171 -8 162 -3 c 1
 144 -58 122 -110 94 -159 c 0
 86 -174 71 -183 55 -183 c 0
EndSplineSet
Validated: 1
EndChar

StartChar: paragraph
Encoding: 182 182 115
Width: 415
Flags: W
HStem: 94 90<101.099 170> 270 90<243.846 281.72>
VStem: 10 90<190.215 229.389> 186 90<-33.5194 92.6399> 316 90<-31.4086 192.563>
LayerCount: 2
Fore
SplineSet
406 9 m 0
 406 8 406 8 406 7 c 0
 406 -17 387 -37 363 -38 c 0
 362 -38 362 -38 361 -38 c 0
 337 -38 317 -20 316 4 c 0
 311 112 297 201 276 270 c 1
 265 270 254 270 243 270 c 1
 264 190 276 94 276 5 c 0
 276 -20 256 -40 231 -40 c 0
 206 -40 186 -20 186 5 c 0
 186 35 184 65 182 94 c 1
 178 94 174 94 170 94 c 0
 151 94 134 96 118 98 c 0
 84 104 57 116 39 134 c 0
 20 152 10 175 10 201 c 0
 10 237 31 273 68 303 c 0
 100 328 140 346 180 353 c 0
 180 353 181 353 181 353 c 0
 218 358 240 360 264 360 c 0
 279 360 293 359 312 358 c 0
 330 356 345 345 351 328 c 0
 381 246 399 142 406 9 c 0
100 200 m 0
 102 196 121 185 170 184 c 1
 165 209 160 231 155 251 c 1
 144 246 133 239 125 232 c 0
 106 218 100 205 100 201 c 0
 100 200 100 200 100 200 c 0
EndSplineSet
Validated: 1
EndChar

StartChar: periodcentered
Encoding: 183 183 116
Width: 131
Flags: W
HStem: 167 107<33.4193 97.774>
VStem: 10 111<189.938 250.82>
LayerCount: 2
Fore
SplineSet
55 167 m 0
 42 167 29 172 21 183 c 0
 14 192 10 202 10 212 c 0
 10 225 16 237 26 246 c 2
 47 264 l 2
 55 271 65 274 76 274 c 0
 89 274 102 269 111 258 c 0
 118 250 121 240 121 230 c 0
 121 217 116 204 105 195 c 2
 84 177 l 2
 75 170 65 167 55 167 c 0
EndSplineSet
Validated: 1
EndChar

StartChar: cedilla
Encoding: 184 184 117
AltUni2: 000327.ffffffff.0
Width: 295
Flags: W
HStem: -359 90<58.4702 184.667> -180 90<120.865 188.035> 4 20G<51.5 63>
VStem: 10 85<-54.2156 16.9992> 195 90<-262.073 -190.335>
AnchorPoint: "bottom" 50 -1 mark 0
LayerCount: 2
Fore
SplineSet
143 -359 m 0
 125 -359 107 -357 89 -355 c 0
 66 -352 50 -333 50 -311 c 0
 50 -309 50 -307 50 -305 c 0
 53 -282 73 -266 94 -266 c 0
 96 -266 98 -266 100 -266 c 0
 117 -268 132 -269 144 -269 c 0
 165 -269 178 -266 185 -260 c 0
 194 -252 195 -234 195 -220 c 0
 195 -207 185 -197 179 -193 c 0
 168 -186 152 -180 133 -180 c 0
 121 -180 108 -182 94 -187 c 0
 89 -189 83 -190 78 -190 c 0
 68 -190 59 -187 51 -180 c 0
 40 -172 34 -159 34 -146 c 0
 34 -144 34 -143 34 -141 c 0
 35 -130 35 -122 35 -114 c 0
 35 -89 31 -72 15 -41 c 0
 12 -34 10 -27 10 -21 c 0
 10 -4 19 11 35 19 c 0
 41 22 48 24 55 24 c 0
 71 24 87 15 95 -1 c 0
 113 -37 121 -63 124 -90 c 1
 127 -90 131 -90 134 -90 c 0
 169 -90 203 -100 230 -119 c 0
 265 -144 285 -180 285 -220 c 0
 285 -267 272 -303 244 -327 c 0
 217 -352 180 -359 143 -359 c 0
EndSplineSet
Validated: 1
EndChar

StartChar: uni00B9
Encoding: 185 185 118
Width: 202
Flags: W
VStem: 94 90<278.187 352.76> 104 88<240.032 345.972>
LayerCount: 2
Fore
SplineSet
147 234 m 0x40
 127 234 109 248 104 269 c 0x40
 97 297 94 322 94 353 c 1x80
 88 349 83 346 78 343 c 0
 71 339 63 337 55 337 c 0
 40 337 25 345 16 359 c 0
 12 366 10 374 10 382 c 0
 10 397 18 412 32 421 c 0
 61 438 98 459 127 473 c 0
 133 476 140 478 147 478 c 0
 156 478 165 475 173 469 c 0
 185 461 192 448 192 434 c 0x40
 192 431 191 429 191 426 c 0
 186 392 184 367 184 347 c 0x80
 184 325 187 307 191 289 c 0
 192 285 192 282 192 278 c 0
 192 258 178 240 158 235 c 0
 154 234 151 234 147 234 c 0x40
EndSplineSet
Validated: 1
EndChar

StartChar: ordmasculine
Encoding: 186 186 119
Width: 276
Flags: W
HStem: 227 90<100.736 166.059> 463 20G<122 146.5>
VStem: 10 90<318.883 385.167> 177 90<327.936 387.598>
LayerCount: 2
Fore
SplineSet
135 227 m 0
 102 227 72 237 50 256 c 0
 32 272 10 300 10 348 c 0
 10 386 22 418 46 441 c 0
 52 448 60 454 68 459 c 1
 75 471 88 481 103 482 c 0
 111 483 118 483 126 483 c 0
 167 483 204 470 231 446 c 0
 254 426 267 399 267 370 c 0
 267 334 255 300 233 274 c 0
 209 244 174 227 135 227 c 0
140 392 m 1
 103 382 100 368 100 348 c 0
 100 339 100 317 135 317 c 0
 147 317 156 322 164 331 c 0
 172 341 177 355 177 370 c 0
 177 372 175 376 171 379 c 0
 167 382 158 389 140 392 c 1
EndSplineSet
Validated: 1
EndChar

StartChar: guillemotright
Encoding: 187 187 120
Width: 567
Flags: W
HStem: -14 21G<394.5 406.5> 179 89<16.7282 134.628>
VStem: 352 87<-8.21248 51.1057>
LayerCount: 2
Fore
SplineSet
86 -48 m 0
 77 -48 67 -46 59 -39 c 0
 47 -30 42 -17 42 -4 c 0
 42 6 45 16 51 24 c 0
 83 67 126 109 165 143 c 1
 135 161 98 172 48 179 c 0
 26 182 10 202 10 224 c 0
 10 226 10 228 10 230 c 0
 14 252 34 268 56 268 c 0
 58 268 60 268 62 268 c 0
 126 258 202 240 268 179 c 0
 278 170 283 157 283 144 c 0
 283 131 277 119 266 111 c 0
 204 60 154 11 122 -31 c 0
 113 -42 100 -48 86 -48 c 0
398 -14 m 0
 391 -14 385 -13 379 -11 c 0
 363 -4 352 13 352 31 c 0
 352 37 353 43 356 49 c 0
 376 94 407 134 437 167 c 1
 403 185 369 203 345 223 c 0
 335 232 330 245 330 257 c 0
 330 268 334 278 341 287 c 0
 350 297 362 303 375 303 c 0
 385 303 396 299 405 291 c 0
 422 276 459 257 492 241 c 0
 506 234 520 227 534 219 c 0
 547 212 555 200 557 186 c 0
 557 184 557 182 557 180 c 0
 557 167 553 156 544 147 c 0
 491 97 457 53 439 12 c 0
 431 -4 415 -14 398 -14 c 0
EndSplineSet
Validated: 1
EndChar

StartChar: onequarter
Encoding: 188 188 121
Width: 560
Flags: W
HStem: 7 89<389.016 439.056> 19 21G<143.5 155>
VStem: 10 90<291.854 411.309> 298 90<97.8452 201.287> 442 90<97.4534 208.242>
LayerCount: 2
Fore
SplineSet
83 224 m 0x38
 66 224 49 233 42 250 c 0
 26 283 15 317 10 369 c 0
 10 370 10 372 10 373 c 0
 10 396 27 416 51 418 c 0
 52 418 54 418 55 418 c 0
 78 418 98 401 100 377 c 0
 103 337 111 314 123 288 c 0
 126 282 127 275 127 268 c 0
 127 251 118 235 102 228 c 0
 95 225 89 224 83 224 c 0x38
147 19 m 0x78
 140 19 132 21 125 25 c 0
 111 33 102 49 102 65 c 0
 102 72 104 79 108 86 c 0
 156 173 184 247 195 320 c 0
 198 342 218 358 240 358 c 0
 242 358 244 358 246 358 c 0
 269 354 285 335 285 314 c 0
 285 312 284 309 284 307 c 0
 271 223 240 139 186 42 c 0
 178 28 163 19 147 19 c 0x78
505 -35 m 0
 489 -35 473 -26 465 -10 c 0
 462 -3 459 4 456 11 c 1
 446 9 434 7 420 7 c 0
 416 7 413 7 409 7 c 0
 384 7 358 10 339 15 c 0
 323 19 311 32 307 48 c 0
 298 85 298 117 298 163 c 0
 298 187 318 208 343 208 c 0
 368 208 388 187 388 163 c 0
 388 135 388 115 390 97 c 1
 396 97 403 96 409 96 c 0xb8
 421 96 430 98 436 99 c 1
 438 108 441 126 442 163 c 0
 442 164 442 165 442 165 c 2
 442 171 l 2
 442 196 462 215 487 215 c 0
 487 215 487 215 488 215 c 0
 512 215 532 194 532 170 c 0
 532 167 532 164 532 161 c 0
 532 145 532 131 532 118 c 0
 532 79 534 54 546 30 c 0
 549 24 551 17 551 10 c 0
 551 -6 541 -22 525 -30 c 0
 519 -34 512 -35 505 -35 c 0
433 91 m 1
 433 91 433 91 433 91 c 1
EndSplineSet
Validated: 1
EndChar

StartChar: onehalf
Encoding: 189 189 122
Width: 422
Flags: W
HStem: -39 96<334 401.355> 24 21G<92.5 104> 117 89<225.104 266.766> 230 167<33.3281 93.8043>
VStem: 22 90<236.712 351.671> 51 85<30.5 89.9979> 237 176<-19.3263 50.1431>
LayerCount: 2
Fore
SplineSet
67 230 m 0x3a
 66 230 65 230 65 230 c 0
 41 231 22 251 22 275 c 0
 22 276 22 276 22 277 c 0
 22 282 22 286 22 290 c 0
 22 311 20 322 16 330 c 0
 12 337 10 345 10 352 c 0
 10 368 19 384 33 392 c 0
 40 395 47 397 54 397 c 0
 71 397 87 389 95 374 c 0
 110 346 112 318 112 291 c 0
 112 285 112 279 112 273 c 0
 110 249 91 230 67 230 c 0x3a
96 24 m 0x76
 89 24 82 26 75 29 c 0
 60 37 51 53 51 69 c 0
 51 76 52 83 56 90 c 0
 104 184 140 276 163 363 c 0
 168 384 187 397 207 397 c 0
 211 397 214 397 218 396 c 0
 238 390 251 372 251 352 c 0
 251 348 251 345 250 341 c 0
 225 247 187 148 136 49 c 0
 128 33 112 24 96 24 c 0x76
331 -39 m 0xb2
 297 -39 271 -27 260 -20 c 0
 247 -13 238 0 237 15 c 0
 237 19 237 22 237 26 c 0
 237 57 248 85 267 114 c 1
 262 115 258 116 253 117 c 0
 233 122 219 141 219 161 c 0
 219 165 219 168 220 172 c 0
 224 192 243 206 263 206 c 0
 267 206 270 206 274 205 c 0
 280 203 286 202 292 201 c 0
 310 196 324 192 335 192 c 0
 337 192 339 193 341 193 c 0
 344 194 347 194 350 194 c 0
 366 194 381 185 389 172 c 0
 393 165 395 157 395 149 c 0
 395 139 391 129 384 120 c 0
 364 96 345 72 334 52 c 1
 340 52 347 53 354 55 c 0
 359 57 364 57 368 57 c 0
 387 57 405 45 411 26 c 0
 412 22 413 17 413 13 c 0
 413 -6 401 -24 382 -30 c 0
 364 -36 347 -39 331 -39 c 0xb2
EndSplineSet
Validated: 1
EndChar

StartChar: threequarters
Encoding: 190 190 123
Width: 576
Flags: W
HStem: 16 90<438.003 469.763> 158 94<44.197 125> 326 91<17.2528 66>
VStem: 344 104<107.612 192.398> 359 89<107.612 206.725> 477 90<-30.1618 18 108.188 203.272>
LayerCount: 2
Fore
SplineSet
130 158 m 0xe4
 112 158 93 159 74 162 c 0
 52 165 35 184 35 206 c 0
 35 208 36 211 36 213 c 0
 39 235 58 252 79 252 c 0
 81 252 84 251 86 251 c 0
 101 249 114 248 125 248 c 1
 116 252 106 256 94 258 c 0
 73 263 59 281 59 302 c 0
 59 311 61 319 66 326 c 1
 64 326 61 326 59 326 c 0
 58 326 56 326 55 326 c 0
 32 326 12 343 10 367 c 0
 10 368 10 370 10 371 c 0
 10 394 27 413 51 416 c 0
 61 417 70 417 79 417 c 0
 94 417 108 416 121 415 c 0
 147 411 166 403 179 391 c 0
 191 380 197 365 197 350 c 0
 197 343 197 329 192 314 c 0
 195 312 198 310 201 308 c 0
 240 280 248 250 248 231 c 0
 248 213 240 196 226 184 c 0
 210 169 186 161 152 159 c 0
 145 158 138 158 130 158 c 0xe4
216 -37 m 0
 212 -37 207 -36 203 -35 c 0
 183 -29 171 -12 171 8 c 0
 171 12 172 17 173 21 c 0
 186 64 203 102 220 142 c 0
 246 201 273 262 293 349 c 0
 297 370 316 384 337 384 c 0
 340 384 343 384 346 383 c 0
 368 378 382 359 382 338 c 0
 382 335 382 332 381 329 c 0
 359 234 329 165 303 105 c 0
 286 68 271 33 259 -5 c 0
 253 -25 236 -37 216 -37 c 0
522 -37 m 0
 500 -37 480 -21 477 2 c 0
 477 7 476 13 475 18 c 1
 463 16 452 16 445 16 c 0
 421 17 387 21 363 40 c 0
 356 46 351 54 348 63 c 0
 345 73 344 82 344 90 c 0xf4
 344 104 347 116 350 128 c 0
 353 139 356 153 359 174 c 0xec
 362 197 381 213 403 213 c 0
 405 213 407 213 409 213 c 0
 432 210 448 190 448 169 c 0
 448 167 448 165 448 163 c 0xf4
 445 137 441 120 438 107 c 0
 441 107 445 106 449 106 c 0
 457 106 465 107 470 108 c 0
 471 112 471 116 472 121 c 0
 473 137 475 154 477 172 c 0
 481 194 500 210 522 210 c 0
 524 210 526 210 528 210 c 0
 550 207 567 188 567 165 c 0
 567 164 567 162 567 160 c 0
 566 152 565 143 564 134 c 0
 563 127 562 120 562 113 c 0
 561 104 561 95 561 86 c 0
 561 61 563 38 567 14 c 0
 567 12 567 10 567 8 c 0
 567 -13 551 -33 528 -37 c 0
 526 -37 524 -37 522 -37 c 0
EndSplineSet
Validated: 1
EndChar

StartChar: questiondown
Encoding: 191 191 124
Width: 294
Flags: W
HStem: -268 90<120.612 239.624> 219 98<78.4226 134.673>
VStem: 10 90<-166.323 -90.5981> 53 107<226.018 305.658> 118 90<8.02448 114.18>
LayerCount: 2
Fore
SplineSet
115 219 m 0xd0
 112 219 109 219 107 220 c 0
 97 218 87 219 78 224 c 0
 62 232 53 248 53 264 c 0
 53 271 55 278 58 284 c 0
 73 314 97 317 107 317 c 0
 116 317 140 314 155 284 c 0
 158 278 160 271 160 264 c 0
 160 248 151 232 135 224 c 0
 128 221 122 219 115 219 c 0xd0
167 -268 m 0
 134 -268 102 -260 76 -245 c 0
 34 -222 10 -182 10 -138 c 0
 10 -103 23 -68 46 -39 c 0
 65 -16 89 1 117 13 c 1
 118 21 118 28 118 35 c 0
 118 56 115 73 108 90 c 0
 106 95 105 101 105 107 c 0
 105 125 115 142 133 148 c 0
 139 150 144 151 150 151 c 0
 168 151 185 141 192 123 c 0
 203 94 208 66 208 33 c 0
 208 14 206 -6 203 -28 c 0
 200 -46 187 -61 169 -65 c 0
 122 -76 100 -110 100 -138 c 0xe8
 100 -142 100 -156 120 -167 c 0
 133 -174 150 -178 168 -178 c 0
 185 -178 203 -174 216 -166 c 0
 223 -161 232 -159 240 -159 c 0
 255 -159 270 -167 278 -181 c 0
 282 -188 285 -196 285 -204 c 0
 285 -219 277 -234 263 -243 c 0
 235 -259 203 -268 168 -268 c 0
 168 -268 167 -268 167 -268 c 0
158 -21 m 1
 159 -21 l 1
 158 -21 l 1
EndSplineSet
Validated: 1
EndChar

StartChar: AE
Encoding: 198 198 125
Width: 487
Flags: W
HStem: -26 89<308 355.734 357.985 358.204 360.219 470.749> -19 90<308.246 449.429> 111 90<305.172 458.208> 121 90<305 420.906> 264 90<285.984 441.479> 347 20G<184.5 211>
VStem: 219 89<68 102.878>
LayerCount: 2
Fore
SplineSet
440 63 m 0x82
 462 59 478 41 478 19 c 0
 478 16 477 14 477 11 c 0
 473 -10 454 -26 433 -26 c 0x82
 431 -26 428 -26 425 -25 c 0
 400 -21 378 -19 357 -19 c 0
 330 -19 303 -22 270 -27 c 0
 268 -28 265 -28 263 -28 c 0
 252 -28 241 -24 232 -16 c 0
 223 -7 218 6 218 18 c 0
 218 20 218 21 218 22 c 0
 219 28 219 35 219 44 c 0
 219 60 218 80 216 104 c 1
 171 87 129 56 93 0 c 0
 84 -13 70 -20 55 -20 c 0
 47 -20 39 -18 31 -13 c 0
 17 -5 10 10 10 25 c 0
 10 33 12 41 16 48 c 0
 70 139 114 233 151 337 c 0
 157 356 175 367 194 367 c 0
 196 367 197 367 199 367 c 2x46
 211 365 l 2
 259 360 306 354 346 354 c 0
 365 354 382 355 398 358 c 0
 401 359 404 359 407 359 c 0
 428 359 447 344 451 323 c 0
 452 320 452 317 452 314 c 0
 452 293 437 274 415 270 c 0
 393 266 370 264 346 264 c 0
 326 264 306 265 285 267 c 1
 288 249 291 230 293 211 c 1
 300 211 307 211 314 211 c 0x1a
 354 211 391 207 428 201 c 0
 450 197 466 178 466 157 c 0
 466 155 465 152 465 150 c 0
 461 127 442 111 421 111 c 0x22
 419 111 416 112 414 112 c 0
 382 117 349 121 316 121 c 0
 312 121 309 121 305 121 c 1
 306 102 308 85 308 68 c 1
 326 70 342 71 359 71 c 0x52
 385 71 411 68 440 63 c 0x82
190 191 m 1
 195 192 200 194 205 195 c 1
 204 203 202 210 201 217 c 1
 198 208 194 200 190 191 c 1
EndSplineSet
Validated: 1
EndChar

StartChar: Eth
Encoding: 208 208 126
Width: 419
Flags: W
HStem: -8 21G<195.5 232> 116 87<16.839 80.3438> 135 95<209 274.03> 253 90<164.636 287.389>
VStem: 320 90<132.143 224.528>
LayerCount: 2
Fore
SplineSet
365 287 m 0xd8
 394 262 410 228 410 190 c 0
 410 140 387 91 347 52 c 0
 307 14 256 -8 208 -8 c 0
 205 -8 203 -8 200 -8 c 0
 191 -7 182 -4 175 2 c 1
 152 3 133 22 133 46 c 0
 133 47 133 47 133 48 c 0
 133 71 128 100 116 133 c 1
 101 130 87 125 71 120 c 0
 66 117 60 116 55 116 c 0
 37 116 20 127 13 145 c 0
 11 150 10 156 10 161 c 0
 10 179 21 196 39 203 c 0
 53 209 67 214 81 217 c 1
 73 234 63 252 53 271 c 0
 49 278 47 286 47 294 c 0
 47 300 49 307 52 313 c 0
 59 326 72 336 86 337 c 0
 115 341 144 343 171 343 c 0
 197 343 221 341 243 338 c 0
 295 330 336 313 365 287 c 0xd8
285 117 m 0
 298 130 320 156 320 190 c 0
 320 202 315 211 305 220 c 0
 281 241 232 253 171 253 c 0
 169 253 166 253 164 253 c 1
 168 245 171 237 175 230 c 1
 197 230 220 228 245 225 c 0
 267 222 284 203 284 181 c 0
 284 179 283 176 283 174 c 0
 280 152 262 135 240 135 c 0xb8
 238 135 235 136 233 136 c 0
 225 137 217 138 209 138 c 1
 215 119 218 100 221 83 c 1
 242 87 266 99 285 117 c 0
EndSplineSet
Validated: 1
EndChar

StartChar: multiply
Encoding: 215 215 127
Width: 314
Flags: W
HStem: 69 288<224 260>
VStem: 56 85<91.0181 150.077>
LayerCount: 2
Fore
SplineSet
289 80 m 0
 281 73 270 69 260 69 c 0
 247 69 235 74 226 84 c 0
 205 108 184 130 162 151 c 1
 155 138 148 125 141 111 c 0
 134 94 118 85 101 85 c 0
 94 85 88 86 81 89 c 0
 65 97 56 113 56 130 c 0
 56 136 57 143 60 149 c 0
 71 172 82 193 94 212 c 1
 73 229 51 246 29 262 c 0
 17 271 10 285 10 299 c 0
 10 308 13 317 19 325 c 0
 27 337 41 344 55 344 c 0
 64 344 73 341 81 335 c 0
 104 319 125 303 145 286 c 1
 159 304 173 321 187 338 c 2
 189 341 l 2
 198 352 211 357 224 357 c 0
 234 357 244 354 252 347 c 0
 263 338 269 325 269 312 c 0
 269 302 266 292 259 283 c 2
 256 281 l 2
 241 262 227 245 213 227 c 1
 241 201 267 173 293 144 c 0
 301 135 305 125 305 114 c 0
 305 102 299 89 289 80 c 0
EndSplineSet
Validated: 1
EndChar

StartChar: Oslash
Encoding: 216 216 128
Width: 387
Flags: W
HStem: -2 90<183.152 246.451>
VStem: 10 90<139.197 216.186> 43 86<-57.3024 2.3899> 288 90<125.758 211.588>
LayerCount: 2
Fore
SplineSet
302 297 m 0xd0
 351 267 378 222 378 169 c 0
 378 125 355 81 314 47 c 0
 277 16 230 -2 186 -2 c 0
 174 -2 160 0 147 3 c 1
 141 -10 135 -24 129 -37 c 0
 122 -54 105 -64 88 -64 c 0
 82 -64 76 -63 70 -60 c 0
 53 -53 43 -37 43 -19 c 0xb0
 43 -13 44 -7 47 -1 c 0
 54 14 60 30 67 45 c 1
 30 77 10 120 10 169 c 0
 10 236 49 289 116 316 c 1
 123 331 139 340 156 340 c 0
 158 340 159 340 161 340 c 0
 174 338 187 336 200 334 c 1
 207 348 215 361 224 375 c 0
 232 389 247 397 262 397 c 0
 270 397 278 395 286 390 c 0
 300 382 308 367 308 352 c 0
 308 344 305 336 301 329 c 0
 296 321 291 313 287 305 c 1
 292 303 297 300 302 297 c 0xd0
148 232 m 1
 122 221 100 202 100 169 c 0xd0
 100 158 102 148 106 138 c 1
 119 169 133 200 148 232 c 1
186 88 m 0
 233 88 288 132 288 169 c 0
 288 183 284 202 255 220 c 0
 252 222 248 224 245 226 c 1
 222 180 202 135 183 88 c 1
 184 88 185 88 186 88 c 0
EndSplineSet
Validated: 1
EndChar

StartChar: Thorn
Encoding: 222 222 129
Width: 378
Flags: W
HStem: 18 90<165.678 256.952> 244 90<158.451 270.704>
VStem: 79 90<-57.0391 18.041> 279 90<130.541 233.773>
LayerCount: 2
Fore
SplineSet
321 300 m 0
 343 281 369 248 369 190 c 0
 369 149 354 107 329 75 c 0
 300 38 259 18 216 18 c 0
 197 18 181 19 165 23 c 1
 167 10 168 -3 169 -16 c 0
 169 -17 169 -18 169 -19 c 0
 169 -42 151 -62 127 -64 c 0
 126 -64 125 -64 124 -64 c 0
 101 -64 81 -46 79 -22 c 0
 71 83 49 202 12 340 c 0
 11 344 10 348 10 353 c 0
 10 372 23 390 43 395 c 0
 47 396 51 397 56 397 c 0
 75 397 93 384 98 364 c 0
 104 343 109 322 114 302 c 1
 145 323 178 334 212 334 c 0
 256 334 293 322 321 300 c 0
216 108 m 0
 252 108 279 151 279 190 c 0
 279 204 279 244 212 244 c 0
 187 244 162 230 137 202 c 1
 142 177 147 153 151 129 c 0
 153 127 155 126 156 124 c 0
 164 117 177 108 216 108 c 0
EndSplineSet
Validated: 1
EndChar

StartChar: germandbls
Encoding: 223 223 130
Width: 337
Flags: W
HStem: -64 90<147.481 232.527> 249 90<113.446 182.137>
VStem: 10 90<9.21374 244.003> 187 90<172.769 244.78>
LayerCount: 2
Fore
SplineSet
186 -64 m 0
 161 -64 141 -44 141 -19 c 0
 141 6 161 26 186 26 c 0
 207 26 223 31 233 36 c 1
 231 37 229 38 227 39 c 0
 218 43 207 46 196 49 c 0
 182 53 170 57 158 62 c 0
 124 79 120 106 120 117 c 0
 120 133 128 147 141 155 c 0
 162 169 187 187 187 199 c 0
 187 237 175 249 135 249 c 0
 124 249 120 246 117 242 c 0
 111 235 100 213 100 154 c 0
 100 124 103 83 111 30 c 0
 111 28 112 25 112 23 c 0
 112 2 96 -17 74 -21 c 0
 72 -21 69 -22 67 -22 c 0
 45 -22 26 -6 22 17 c 0
 14 70 10 116 10 155 c 0
 10 223 23 270 49 301 c 0
 70 326 100 339 135 339 c 0
 184 339 221 324 246 295 c 0
 267 271 277 238 277 199 c 0
 277 173 268 149 248 127 c 1
 260 123 271 118 282 112 c 0
 312 93 328 65 328 32 c 0
 328 2 309 -25 275 -43 c 0
 249 -57 218 -64 186 -64 c 0
EndSplineSet
Validated: 1
EndChar

StartChar: ae
Encoding: 230 230 131
Width: 522
Flags: W
HStem: -40 90<134.538 185.283 330.704 449.157> 93 93<331.141 370.723> 181 90<16.4806 147.441> 205 90<336.791 370.861>
LayerCount: 2
Fore
SplineSet
383 -44 m 0xd0
 365 -44 348 -41 331 -35 c 0
 301 -25 276 -7 259 17 c 1
 257 13 255 10 253 6 c 0
 232 -24 201 -40 165 -40 c 0
 146 -40 118 -38 94 -25 c 0
 61 -9 43 20 43 56 c 0
 43 75 50 104 81 128 c 0
 98 140 119 150 147 158 c 0
 148 158 149 158 149 158 c 1
 149 159 149 159 149 159 c 0
 119 173 85 181 55 181 c 0
 30 181 10 201 10 226 c 0
 10 251 30 271 55 271 c 0xa0
 103 271 156 258 200 234 c 0
 216 225 231 215 242 205 c 1
 250 226 260 244 274 258 c 0
 276 260 278 261 280 263 c 0
 309 284 337 295 364 295 c 0
 366 295 367 295 368 295 c 0
 388 294 419 287 447 256 c 0
 448 255 450 253 451 251 c 0
 459 238 463 224 463 208 c 0
 463 196 460 183 455 170 c 0
 438 132 402 106 356 98 c 0
 347 96 337 95 324 93 c 1
 325 89 326 84 327 79 c 0
 331 67 343 55 360 50 c 0
 366 48 374 46 384 46 c 0
 400 46 419 51 441 67 c 0
 449 73 458 75 467 75 c 0
 481 75 495 69 504 57 c 0
 510 49 513 39 513 30 c 0
 513 16 506 2 494 -6 c 0
 460 -31 421 -44 383 -44 c 0xd0
134 55 m 1
 139 53 149 50 165 50 c 0
 170 50 174 51 179 58 c 0
 181 61 184 66 187 75 c 1
 152 67 138 59 134 55 c 1
336 192 m 0
 334 190 333 188 331 185 c 1
 334 185 337 186 339 186 c 0
 340 186 340 187 341 187 c 0
 358 189 367 198 371 203 c 1
 368 205 367 205 366 205 c 0xd0
 362 205 353 204 336 192 c 0
EndSplineSet
Validated: 1
EndChar

StartChar: eth
Encoding: 240 240 132
Width: 369
Flags: W
HStem: -38 90<156.399 236.37> 122 90<184.078 258.601>
VStem: 64 90<53.1841 115.434> 99 85<211.424 247.387>
LayerCount: 2
Fore
SplineSet
293 324 m 1xd0
 335 286 359 222 359 139 c 0
 359 88 337 41 297 7 c 0
 264 -21 221 -38 182 -38 c 0
 147 -38 116 -23 94 4 c 0
 75 27 64 57 64 87 c 0xe0
 64 117 78 148 103 172 c 0
 110 179 119 186 127 191 c 1
 126 192 125 192 124 193 c 0
 108 201 99 216 99 232 c 0
 99 238 100 243 102 248 c 1
 97 244 92 240 86 235 c 0
 78 226 66 222 54 222 c 0
 43 222 32 226 23 235 c 0
 14 244 10 255 10 266 c 0
 10 278 15 290 24 299 c 0
 63 338 106 363 186 363 c 0
 187 363 188 363 189 363 c 0
 210 381 234 396 263 410 c 0
 269 413 275 414 282 414 c 0
 299 414 315 405 323 388 c 0
 326 382 327 376 327 369 c 0
 327 352 318 336 302 328 c 0
 299 327 296 326 293 324 c 1xd0
182 52 m 0
 205 52 241 68 259 100 c 0
 259 100 258 101 258 101 c 0
 256 106 248 121 199 122 c 0
 170 122 154 96 154 87 c 0
 154 74 162 52 182 52 c 0
201 212 m 0
 224 212 244 209 262 203 c 1
 255 230 242 255 218 266 c 1
 206 251 195 234 184 213 c 0xd0
 184 212 184 212 183 211 c 1
 189 212 194 212 200 212 c 0
 200 212 200 212 201 212 c 0
EndSplineSet
Validated: 1
EndChar

StartChar: divide
Encoding: 247 247 133
Width: 401
Flags: W
HStem: 54 120<176.538 226.624> 144 89<17.3563 129.852> 173 89<264.407 385.272> 180 89<113.003 380.087> 317 110<174.043 236.226>
VStem: 144 116<342.995 402.419> 156 104<73.9016 155.624>
LayerCount: 2
Fore
SplineSet
55 144 m 0x48
 36 144 18 157 12 177 c 0
 11 181 10 185 10 190 c 0
 10 209 23 227 42 233 c 0x48
 104 251 155 261 202 266 c 0
 223 268 243 269 263 269 c 0x18
 293 269 324 267 354 262 c 0
 376 258 392 239 392 217 c 0
 392 215 391 212 391 210 c 0
 387 188 368 173 347 173 c 0
 344 173 342 173 339 173 c 0x28
 313 177 288 180 262 180 c 0x18
 206 180 146 169 68 146 c 0
 63 145 59 144 55 144 c 0x48
215 317 m 0
 205 317 195 320 187 326 c 0
 182 331 177 335 174 339 c 0
 159 344 148 357 145 373 c 0
 144 376 144 379 144 382 c 0
 144 403 159 422 181 426 c 0
 184 427 188 427 191 427 c 0
 205 427 216 422 223 417 c 0
 232 412 237 405 240 400 c 0
 241 399 242 398 243 397 c 0
 254 388 260 375 260 362 c 0x0c
 260 352 257 342 250 334 c 0
 241 323 228 317 215 317 c 0
243 397 m 1
 243 397 243 397 243 397 c 1
215 54 m 0x8a
 202 54 189 59 181 70 c 0
 170 82 166 93 164 103 c 1
 158 110 156 120 156 129 c 0
 156 138 158 148 164 156 c 0
 173 168 187 174 201 174 c 0
 210 174 219 172 227 166 c 0
 248 151 252 133 253 123 c 1
 258 116 260 107 260 99 c 0
 260 86 254 73 244 64 c 0
 235 57 225 54 215 54 c 0x8a
174 93 m 1
 174 93 174 93 174 93 c 1
EndSplineSet
Validated: 1
EndChar

StartChar: oslash
Encoding: 248 248 134
Width: 373
Flags: W
VStem: 10 90<67.6323 118.223> 274 89<75.4185 154.833>
LayerCount: 2
Fore
SplineSet
356 174 m 0
 361 155 363 137 363 120 c 0
 363 89 355 61 340 37 c 0
 314 -0 271 -24 212 -31 c 0
 206 -32 200 -33 194 -33 c 1
 190 -44 185 -55 181 -65 c 2
 172 -89 l 2
 165 -106 148 -117 130 -117 c 0
 125 -117 119 -116 114 -114 c 0
 96 -107 85 -90 85 -72 c 0
 85 -66 86 -61 88 -55 c 2
 97 -32 l 2
 99 -29 100 -26 101 -23 c 1
 97 -21 93 -19 89 -18 c 0
 69 -8 52 5 39 22 c 0
 25 39 16 60 12 84 c 0
 11 91 10 99 10 106 c 0
 10 135 19 164 37 189 c 0
 61 222 97 245 143 256 c 0
 152 258 160 257 168 255 c 1
 180 258 192 260 204 260 c 1
 210 279 214 297 217 313 c 0
 221 335 240 350 261 350 c 0
 264 350 267 350 270 349 c 0
 292 345 307 326 307 304 c 0
 307 302 306 299 306 297 c 0
 303 280 298 263 293 244 c 1
 322 230 344 207 355 179 c 0
 355 177 356 176 356 174 c 0
101 99 m 0
 104 82 112 71 127 64 c 0
 129 63 132 62 134 61 c 0
 148 97 161 130 172 162 c 1
 157 156 142 145 133 131 c 0
 125 119 113 112 100 110 c 0
 100 107 100 103 101 99 c 0
265 88 m 0
 271 97 274 108 274 120 c 0
 274 130 272 140 270 148 c 0
 269 151 267 153 265 155 c 1
 255 127 244 97 232 65 c 1
 246 70 258 77 265 88 c 0
EndSplineSet
Validated: 1
EndChar

StartChar: thorn
Encoding: 254 254 135
Width: 378
Flags: W
HStem: 18 90<165.678 256.952> 244 90<158.451 270.704>
VStem: 79 90<-57.0391 18.041> 279 90<130.541 233.773>
LayerCount: 2
Fore
SplineSet
321 300 m 0
 343 281 369 248 369 190 c 0
 369 149 354 107 329 75 c 0
 300 38 259 18 216 18 c 0
 197 18 181 19 165 23 c 1
 167 10 168 -3 169 -16 c 0
 169 -17 169 -18 169 -19 c 0
 169 -42 151 -62 127 -64 c 0
 126 -64 125 -64 124 -64 c 0
 101 -64 81 -46 79 -22 c 0
 71 83 49 202 12 340 c 0
 11 344 10 348 10 353 c 0
 10 372 23 390 43 395 c 0
 47 396 51 397 56 397 c 0
 75 397 93 384 98 364 c 0
 104 343 109 322 114 302 c 1
 145 323 178 334 212 334 c 0
 256 334 293 322 321 300 c 0
216 108 m 0
 252 108 279 151 279 190 c 0
 279 204 279 244 212 244 c 0
 187 244 162 230 137 202 c 1
 142 177 147 153 151 129 c 0
 153 127 155 126 156 124 c 0
 164 117 177 108 216 108 c 0
EndSplineSet
Validated: 1
EndChar

StartChar: Aring
Encoding: 197 197 141
Width: 393
HStem: -20 40G<47.5 59 330 342> 466 20G<164.5 188>
VStem: 223 61<366.873 419.606>
LayerCount: 2
Fore
SplineSet
238 319 m 1
 378 66 l 2
 382 59 384 52 384 44 c 0
 384 28 375 13 360 5 c 0
 353 1 346 -1 338 -1 c 0
 322 -1 307 8 299 22 c 2
 265 84 l 1
 137 70 l 1
 132 61 127 53 123 45 c 0
 98 1 88 -7 79 -13 c 0
 72 -18 63 -20 55 -20 c 0
 40 -20 26 -13 17 1 c 0
 12 8 10 17 10 25 c 0
 10 38 18 48 26 59 c 0
 31 66 47 90 64 124 c 0
 66 128 68 134 71 139 c 0
 78 152 84 166 91 182 c 0
 118 243 132 284 136 308 c 1
 124 311 113 315 105 324 c 0
 92 336 85 353 85 374 c 0
 85 403 107 433 142 454 c 0
 142 455 142 455 142 457 c 0
 142 472 156 486 173 486 c 0
 203 486 229 479 248 468 c 0
 271 453 284 433 284 408 c 0
 284 381 276 358 262 340 c 0
 255 332 247 325 238 319 c 1
154 363 m 1
 158 362 164 361 174 361 c 0
 175 361 177 361 178 361 c 0
 188 362 197 364 203 367 c 1
 217 374 223 388 223 408 c 0
 223 413 218 417 212 420 c 1
 191 414 174 405 161 394 c 0
 149 383 147 376 146 374 c 0
 145 369 146 368 148 366 c 0
 148 365 149 365 154 363 c 1
183 166 m 1
 218 170 l 1
 198 204 l 1
 194 192 188 179 183 166 c 1
EndSplineSet
Validated: 1
EndChar

StartChar: Ccedilla
Encoding: 199 199 142
Width: 360
HStem: -287 90<208.238 334.667> -118 250<165 254.386> -108 90<270.271 337.638> 260 90<128.635 230.476>
VStem: 345 90<-190.073 -118.168>
LayerCount: 2
Fore
SplineSet
293 -287 m 0xb8
 275 -287 257 -285 239 -283 c 0
 216 -280 199 -261 199 -239 c 0
 199 -237 200 -235 200 -233 c 0
 203 -210 222 -194 244 -194 c 0
 246 -194 248 -194 250 -194 c 0
 267 -196 282 -197 294 -197 c 0
 314 -197 328 -194 335 -188 c 0
 344 -180 345 -162 345 -148 c 0
 345 -135 335 -125 329 -121 c 0
 318 -113 302 -108 283 -108 c 0xb8
 271 -108 258 -110 244 -115 c 0
 239 -117 233 -118 228 -118 c 0xd8
 218 -118 209 -114 201 -108 c 0xb8
 190 -100 183 -87 183 -74 c 0
 183 -72 184 -71 184 -69 c 0
 185 -58 185 -50 185 -42 c 0
 185 -17 181 -0 165 31 c 0
 163 35 162 38 161 42 c 0
 123 44 92 55 67 73 c 0
 32 98 13 138 10 189 c 0
 10 192 10 194 10 197 c 0
 15 239 34 277 66 304 c 0
 97 330 140 346 189 350 c 0
 190 350 191 350 193 350 c 0
 216 350 236 332 238 309 c 0
 238 308 238 308 238 307 c 0
 238 283 220 262 196 260 c 0
 163 258 108 246 100 191 c 1
 103 158 116 149 121 145 c 0
 131 138 149 132 181 132 c 0xd8
 208 132 245 136 295 149 c 0
 299 150 302 150 306 150 c 0
 326 150 345 137 350 116 c 0
 351 112 351 109 351 105 c 0
 351 85 337 67 317 62 c 0
 295 56 274 52 255 49 c 1
 266 24 271 3 274 -18 c 0
 277 -18 280 -18 284 -18 c 0
 319 -18 352 -28 380 -47 c 0
 415 -72 435 -108 435 -148 c 0
 435 -195 422 -231 394 -255 c 0
 367 -280 330 -287 293 -287 c 0xb8
EndSplineSet
Validated: 1
EndChar

StartChar: aring
Encoding: 229 229 162
Width: 435
HStem: -10 90<103.193 198.212> 0 90<340.718 418.749> 171 148<138.469 206.311>
VStem: 24 87<322.455 367.432> 219 87<332.087 404.094>
LayerCount: 2
Fore
SplineSet
204 405 m 1x38
 175 396 150 383 132 367 c 0
 115 351 111 340 111 338 c 0
 111 330 112 326 113 325 c 2
 113 325 120 319 151 319 c 0
 152 319 154 319 157 319 c 0
 201 324 219 343 219 387 c 0
 219 394 213 400 204 405 c 1x38
169 171 m 0
 158 171 148 168 138 163 c 0
 120 153 106 134 101 111 c 0
 100 106 98 94 103 89 c 0
 107 84 119 80 135 80 c 0xb8
 139 80 143 81 147 81 c 0
 196 89 203 103 220 137 c 0
 223 141 225 145 227 150 c 0
 229 153 231 156 233 159 c 1
 225 157 217 158 209 162 c 0
 195 168 181 171 169 171 c 0
135 -10 m 0
 94 -10 59 3 37 28 c 0
 24 42 10 65 10 100 c 0
 10 109 11 118 13 129 c 0
 23 177 53 218 93 242 c 1
 79 246 64 253 52 264 c 0
 34 282 24 307 24 338 c 0
 24 379 56 423 105 454 c 0
 105 455 105 456 105 458 c 0
 105 480 125 500 149 500 c 0
 191 500 228 491 255 474 c 0
 288 453 306 423 306 387 c 0
 306 347 295 314 275 288 c 0
 263 272 247 260 228 251 c 1
 233 249 239 247 244 245 c 0
 261 238 272 221 272 204 c 0
 272 198 271 192 268 186 c 0
 266 181 263 177 260 173 c 1
 262 173 264 174 266 174 c 0
 282 174 298 165 306 151 c 0
 321 125 352 96 388 90 c 0
 410 86 426 67 426 45 c 0
 426 43 425 40 425 38 c 0
 421 16 403 0 381 0 c 0x78
 378 0 376 1 373 1 c 0
 333 7 299 27 273 51 c 1
 268 45 263 39 257 33 c 0
 233 12 202 -1 161 -8 c 0
 160 -8 159 -8 158 -8 c 0
 150 -9 143 -10 135 -10 c 0
EndSplineSet
Validated: 8388609
EndChar

StartChar: ccedilla
Encoding: 231 231 163
Width: 329
HStem: -297 86<177.47 306.667> -134 232<159.445 229.684> -125 87<241.371 311.42> 196 90<124.164 234.355>
VStem: 10 90<117.701 172.554> 318 92<-203.921 -134.681>
LayerCount: 2
Fore
SplineSet
265 -297 m 0xbc
 246 -297 228 -295 209 -293 c 0
 186 -290 169 -272 169 -251 c 0
 169 -249 169 -247 170 -245 c 0
 172 -223 193 -207 215 -207 c 0
 217 -207 219 -207 221 -208 c 0
 238 -210 253 -211 266 -211 c 0
 287 -211 300 -208 307 -202 c 0
 317 -194 318 -177 318 -163 c 0
 318 -151 307 -141 301 -137 c 0
 291 -130 274 -125 254 -125 c 0xbc
 242 -125 229 -127 215 -132 c 0
 209 -133 204 -134 198 -134 c 0xdc
 188 -134 179 -131 171 -125 c 0xbc
 160 -117 153 -105 153 -92 c 0
 153 -91 153 -89 153 -88 c 0
 154 -77 155 -69 155 -61 c 0
 155 -38 150 -22 134 9 c 0
 133 10 132 12 132 13 c 0
 101 22 70 39 47 62 c 0
 23 87 10 114 10 143 c 0
 10 144 10 145 10 146 c 0
 10 179 30 215 65 243 c 0
 85 258 107 270 129 278 c 0
 146 283 163 286 180 286 c 0
 189 286 198 285 207 283 c 0
 228 278 242 260 242 239 c 0
 242 235 242 232 241 229 c 0
 237 208 218 194 197 194 c 0
 193 194 190 194 187 195 c 0
 184 196 181 196 178 196 c 0
 163 196 142 188 125 175 c 0
 107 162 100 148 100 145 c 0
 100 144 100 144 100 144 c 2
 100 141 103 134 111 126 c 0
 127 110 152 98 171 98 c 0xdc
 194 99 224 105 240 124 c 0
 249 135 262 141 275 141 c 0
 285 141 295 138 303 131 c 0
 314 122 320 109 320 96 c 0
 320 86 316 76 310 68 c 0
 295 50 276 35 252 25 c 0
 245 22 238 19 230 17 c 1
 239 -3 243 -21 245 -38 c 0
 249 -38 252 -38 255 -38 c 0
 291 -38 325 -48 353 -66 c 0
 389 -90 410 -125 410 -163 c 0
 410 -209 396 -243 368 -266 c 0
 340 -290 302 -297 265 -297 c 0xbc
EndSplineSet
Validated: 1
EndChar

StartChar: dotlessi
Encoding: 305 305 168
Width: 315
HStem: 15 260<125.58 157.862>
VStem: 74 232
AnchorPoint: "top" 116 272 basechar 0
AnchorPoint: "bottom" 170 11 basechar 0
LayerCount: 2
Fore
SplineSet
170 15 m 0
 158 15 136 19 119 46 c 0
 112 56 107 70 102 88 c 0
 94 115 86 156 75 223 c 0
 75 225 74 228 74 230 c 0
 74 251 90 270 112 274 c 0
 114 274 117 275 119 275 c 0
 141 275 160 259 164 237 c 0
 171 190 177 157 183 134 c 0
 185 123 187 115 189 109 c 1
 198 113 209 122 230 141 c 0
 239 149 250 153 261 153 c 0
 273 153 285 148 294 138 c 0
 302 130 306 119 306 109 c 0
 306 96 301 84 291 75 c 0
 251 39 222 15 170 15 c 0
EndSplineSet
Validated: 1
EndChar

StartChar: gravecomb
Encoding: 768 768 181
Width: 216
VWidth: 720
Flags: W
HStem: 400 89<16.4623 82.2581>
VStem: 10 197
LayerCount: 2
Fore
SplineSet
161 328 m 0
 151 328 140 331 132 339 c 0
 68 394 48 400 45 400 c 0
 24 405 10 424 10 445 c 0
 10 448 10 451 11 454 c 0
 15 475 34 489 55 489 c 0
 59 489 62 489 65 488 c 0
 95 482 132 457 191 407 c 0
 201 398 207 386 207 373 c 0
 207 363 203 352 195 343 c 0
 187 333 174 328 161 328 c 0
EndSplineSet
Validated: 1
EndChar

StartChar: uni00AD
Encoding: 173 173 191
Width: 272
VWidth: 720
Flags: W
HStem: 178 90<17.2246 239.248> 194 90<32.0671 255.309>
VStem: 10 252<200.325 261.738>
LayerCount: 2
Fore
SplineSet
73 178 m 0xa0
 67 178 60 178 52 178 c 0
 29 180 10 200 10 224 c 0
 10 225 10 225 10 226 c 0
 11 250 31 268 54 268 c 0
 56 268 57 268 58 268 c 0
 63 268 68 268 74 268 c 0xa0
 102 268 131 272 161 277 c 0
 178 279 195 282 213 284 c 0
 214 284 216 284 217 284 c 0
 240 284 260 267 262 244 c 0
 262 242 262 240 262 239 c 0
 262 216 245 197 223 194 c 0x60
 207 192 190 190 175 188 c 0
 143 183 109 178 73 178 c 0xa0
EndSplineSet
Validated: 1
EndChar
